<?xml version="1.0" encoding="utf-8" standalone="no"?>
<!DOCTYPE svg PUBLIC "-//W3C//DTD SVG 1.1//EN"
  "http://www.w3.org/Graphics/SVG/1.1/DTD/svg11.dtd">
<!-- Created with matplotlib (https://matplotlib.org/) -->
<svg height="419.519687pt" version="1.1" viewBox="0 0 550.745315 419.519687" width="550.745315pt" xmlns="http://www.w3.org/2000/svg" xmlns:xlink="http://www.w3.org/1999/xlink">
 <defs>
  <style type="text/css">
*{stroke-linecap:butt;stroke-linejoin:round;}
  </style>
 </defs>
 <g id="figure_1">
  <g id="patch_1">
   <path d="M 0 419.519687 
L 550.745315 419.519687 
L 550.745315 0 
L 0 0 
z
" style="fill:#ffffff;"/>
  </g>
  <g id="axes_1">
   <g id="patch_2">
    <path d="M 39.3125 198.654545 
L 187.018382 198.654545 
L 187.018382 50.4 
L 39.3125 50.4 
z
" style="fill:#eaeaf2;"/>
   </g>
   <g id="matplotlib.axis_1">
    <g id="xtick_1">
     <g id="line2d_1">
      <path clip-path="url(#pbc7a5eeb30)" d="M 46.026404 198.654545 
L 46.026404 50.4 
" style="fill:none;stroke:#ffffff;stroke-linecap:round;"/>
     </g>
    </g>
    <g id="xtick_2">
     <g id="line2d_2">
      <path clip-path="url(#pbc7a5eeb30)" d="M 113.165441 198.654545 
L 113.165441 50.4 
" style="fill:none;stroke:#ffffff;stroke-linecap:round;"/>
     </g>
    </g>
    <g id="xtick_3">
     <g id="line2d_3">
      <path clip-path="url(#pbc7a5eeb30)" d="M 180.304479 198.654545 
L 180.304479 50.4 
" style="fill:none;stroke:#ffffff;stroke-linecap:round;"/>
     </g>
    </g>
   </g>
   <g id="matplotlib.axis_2">
    <g id="ytick_1">
     <g id="line2d_4">
      <path clip-path="url(#pbc7a5eeb30)" d="M 39.3125 191.915702 
L 187.018382 191.915702 
" style="fill:none;stroke:#ffffff;stroke-linecap:round;"/>
     </g>
     <g id="text_1">
      <!-- 0 -->
      <defs>
       <path d="M 31.78125 66.40625 
Q 24.171875 66.40625 20.328125 58.90625 
Q 16.5 51.421875 16.5 36.375 
Q 16.5 21.390625 20.328125 13.890625 
Q 24.171875 6.390625 31.78125 6.390625 
Q 39.453125 6.390625 43.28125 13.890625 
Q 47.125 21.390625 47.125 36.375 
Q 47.125 51.421875 43.28125 58.90625 
Q 39.453125 66.40625 31.78125 66.40625 
z
M 31.78125 74.21875 
Q 44.046875 74.21875 50.515625 64.515625 
Q 56.984375 54.828125 56.984375 36.375 
Q 56.984375 17.96875 50.515625 8.265625 
Q 44.046875 -1.421875 31.78125 -1.421875 
Q 19.53125 -1.421875 13.0625 8.265625 
Q 6.59375 17.96875 6.59375 36.375 
Q 6.59375 54.828125 13.0625 64.515625 
Q 19.53125 74.21875 31.78125 74.21875 
z
" id="DejaVuSans-48"/>
      </defs>
      <g style="fill:#262626;" transform="translate(22.81375 196.094843)scale(0.11 -0.11)">
       <use xlink:href="#DejaVuSans-48"/>
      </g>
     </g>
    </g>
    <g id="ytick_2">
     <g id="line2d_5">
      <path clip-path="url(#pbc7a5eeb30)" d="M 39.3125 153.747236 
L 187.018382 153.747236 
" style="fill:none;stroke:#ffffff;stroke-linecap:round;"/>
     </g>
     <g id="text_2">
      <!-- 1 -->
      <defs>
       <path d="M 12.40625 8.296875 
L 28.515625 8.296875 
L 28.515625 63.921875 
L 10.984375 60.40625 
L 10.984375 69.390625 
L 28.421875 72.90625 
L 38.28125 72.90625 
L 38.28125 8.296875 
L 54.390625 8.296875 
L 54.390625 0 
L 12.40625 0 
z
" id="DejaVuSans-49"/>
      </defs>
      <g style="fill:#262626;" transform="translate(22.81375 157.926376)scale(0.11 -0.11)">
       <use xlink:href="#DejaVuSans-49"/>
      </g>
     </g>
    </g>
    <g id="ytick_3">
     <g id="line2d_6">
      <path clip-path="url(#pbc7a5eeb30)" d="M 39.3125 115.578769 
L 187.018382 115.578769 
" style="fill:none;stroke:#ffffff;stroke-linecap:round;"/>
     </g>
     <g id="text_3">
      <!-- 2 -->
      <defs>
       <path d="M 19.1875 8.296875 
L 53.609375 8.296875 
L 53.609375 0 
L 7.328125 0 
L 7.328125 8.296875 
Q 12.9375 14.109375 22.625 23.890625 
Q 32.328125 33.6875 34.8125 36.53125 
Q 39.546875 41.84375 41.421875 45.53125 
Q 43.3125 49.21875 43.3125 52.78125 
Q 43.3125 58.59375 39.234375 62.25 
Q 35.15625 65.921875 28.609375 65.921875 
Q 23.96875 65.921875 18.8125 64.3125 
Q 13.671875 62.703125 7.8125 59.421875 
L 7.8125 69.390625 
Q 13.765625 71.78125 18.9375 73 
Q 24.125 74.21875 28.421875 74.21875 
Q 39.75 74.21875 46.484375 68.546875 
Q 53.21875 62.890625 53.21875 53.421875 
Q 53.21875 48.921875 51.53125 44.890625 
Q 49.859375 40.875 45.40625 35.40625 
Q 44.1875 33.984375 37.640625 27.21875 
Q 31.109375 20.453125 19.1875 8.296875 
z
" id="DejaVuSans-50"/>
      </defs>
      <g style="fill:#262626;" transform="translate(22.81375 119.757909)scale(0.11 -0.11)">
       <use xlink:href="#DejaVuSans-50"/>
      </g>
     </g>
    </g>
    <g id="ytick_4">
     <g id="line2d_7">
      <path clip-path="url(#pbc7a5eeb30)" d="M 39.3125 77.410302 
L 187.018382 77.410302 
" style="fill:none;stroke:#ffffff;stroke-linecap:round;"/>
     </g>
     <g id="text_4">
      <!-- 3 -->
      <defs>
       <path d="M 40.578125 39.3125 
Q 47.65625 37.796875 51.625 33 
Q 55.609375 28.21875 55.609375 21.1875 
Q 55.609375 10.40625 48.1875 4.484375 
Q 40.765625 -1.421875 27.09375 -1.421875 
Q 22.515625 -1.421875 17.65625 -0.515625 
Q 12.796875 0.390625 7.625 2.203125 
L 7.625 11.71875 
Q 11.71875 9.328125 16.59375 8.109375 
Q 21.484375 6.890625 26.8125 6.890625 
Q 36.078125 6.890625 40.9375 10.546875 
Q 45.796875 14.203125 45.796875 21.1875 
Q 45.796875 27.640625 41.28125 31.265625 
Q 36.765625 34.90625 28.71875 34.90625 
L 20.21875 34.90625 
L 20.21875 43.015625 
L 29.109375 43.015625 
Q 36.375 43.015625 40.234375 45.921875 
Q 44.09375 48.828125 44.09375 54.296875 
Q 44.09375 59.90625 40.109375 62.90625 
Q 36.140625 65.921875 28.71875 65.921875 
Q 24.65625 65.921875 20.015625 65.03125 
Q 15.375 64.15625 9.8125 62.3125 
L 9.8125 71.09375 
Q 15.4375 72.65625 20.34375 73.4375 
Q 25.25 74.21875 29.59375 74.21875 
Q 40.828125 74.21875 47.359375 69.109375 
Q 53.90625 64.015625 53.90625 55.328125 
Q 53.90625 49.265625 50.4375 45.09375 
Q 46.96875 40.921875 40.578125 39.3125 
z
" id="DejaVuSans-51"/>
      </defs>
      <g style="fill:#262626;" transform="translate(22.81375 81.589443)scale(0.11 -0.11)">
       <use xlink:href="#DejaVuSans-51"/>
      </g>
     </g>
    </g>
    <g id="text_5">
     <!-- density -->
     <defs>
      <path d="M 45.40625 46.390625 
L 45.40625 75.984375 
L 54.390625 75.984375 
L 54.390625 0 
L 45.40625 0 
L 45.40625 8.203125 
Q 42.578125 3.328125 38.25 0.953125 
Q 33.9375 -1.421875 27.875 -1.421875 
Q 17.96875 -1.421875 11.734375 6.484375 
Q 5.515625 14.40625 5.515625 27.296875 
Q 5.515625 40.1875 11.734375 48.09375 
Q 17.96875 56 27.875 56 
Q 33.9375 56 38.25 53.625 
Q 42.578125 51.265625 45.40625 46.390625 
z
M 14.796875 27.296875 
Q 14.796875 17.390625 18.875 11.75 
Q 22.953125 6.109375 30.078125 6.109375 
Q 37.203125 6.109375 41.296875 11.75 
Q 45.40625 17.390625 45.40625 27.296875 
Q 45.40625 37.203125 41.296875 42.84375 
Q 37.203125 48.484375 30.078125 48.484375 
Q 22.953125 48.484375 18.875 42.84375 
Q 14.796875 37.203125 14.796875 27.296875 
z
" id="DejaVuSans-100"/>
      <path d="M 56.203125 29.59375 
L 56.203125 25.203125 
L 14.890625 25.203125 
Q 15.484375 15.921875 20.484375 11.0625 
Q 25.484375 6.203125 34.421875 6.203125 
Q 39.59375 6.203125 44.453125 7.46875 
Q 49.3125 8.734375 54.109375 11.28125 
L 54.109375 2.78125 
Q 49.265625 0.734375 44.1875 -0.34375 
Q 39.109375 -1.421875 33.890625 -1.421875 
Q 20.796875 -1.421875 13.15625 6.1875 
Q 5.515625 13.8125 5.515625 26.8125 
Q 5.515625 40.234375 12.765625 48.109375 
Q 20.015625 56 32.328125 56 
Q 43.359375 56 49.78125 48.890625 
Q 56.203125 41.796875 56.203125 29.59375 
z
M 47.21875 32.234375 
Q 47.125 39.59375 43.09375 43.984375 
Q 39.0625 48.390625 32.421875 48.390625 
Q 24.90625 48.390625 20.390625 44.140625 
Q 15.875 39.890625 15.1875 32.171875 
z
" id="DejaVuSans-101"/>
      <path d="M 54.890625 33.015625 
L 54.890625 0 
L 45.90625 0 
L 45.90625 32.71875 
Q 45.90625 40.484375 42.875 44.328125 
Q 39.84375 48.1875 33.796875 48.1875 
Q 26.515625 48.1875 22.3125 43.546875 
Q 18.109375 38.921875 18.109375 30.90625 
L 18.109375 0 
L 9.078125 0 
L 9.078125 54.6875 
L 18.109375 54.6875 
L 18.109375 46.1875 
Q 21.34375 51.125 25.703125 53.5625 
Q 30.078125 56 35.796875 56 
Q 45.21875 56 50.046875 50.171875 
Q 54.890625 44.34375 54.890625 33.015625 
z
" id="DejaVuSans-110"/>
      <path d="M 44.28125 53.078125 
L 44.28125 44.578125 
Q 40.484375 46.53125 36.375 47.5 
Q 32.28125 48.484375 27.875 48.484375 
Q 21.1875 48.484375 17.84375 46.4375 
Q 14.5 44.390625 14.5 40.28125 
Q 14.5 37.15625 16.890625 35.375 
Q 19.28125 33.59375 26.515625 31.984375 
L 29.59375 31.296875 
Q 39.15625 29.25 43.1875 25.515625 
Q 47.21875 21.78125 47.21875 15.09375 
Q 47.21875 7.46875 41.1875 3.015625 
Q 35.15625 -1.421875 24.609375 -1.421875 
Q 20.21875 -1.421875 15.453125 -0.5625 
Q 10.6875 0.296875 5.421875 2 
L 5.421875 11.28125 
Q 10.40625 8.6875 15.234375 7.390625 
Q 20.0625 6.109375 24.8125 6.109375 
Q 31.15625 6.109375 34.5625 8.28125 
Q 37.984375 10.453125 37.984375 14.40625 
Q 37.984375 18.0625 35.515625 20.015625 
Q 33.0625 21.96875 24.703125 23.78125 
L 21.578125 24.515625 
Q 13.234375 26.265625 9.515625 29.90625 
Q 5.8125 33.546875 5.8125 39.890625 
Q 5.8125 47.609375 11.28125 51.796875 
Q 16.75 56 26.8125 56 
Q 31.78125 56 36.171875 55.265625 
Q 40.578125 54.546875 44.28125 53.078125 
z
" id="DejaVuSans-115"/>
      <path d="M 9.421875 54.6875 
L 18.40625 54.6875 
L 18.40625 0 
L 9.421875 0 
z
M 9.421875 75.984375 
L 18.40625 75.984375 
L 18.40625 64.59375 
L 9.421875 64.59375 
z
" id="DejaVuSans-105"/>
      <path d="M 18.3125 70.21875 
L 18.3125 54.6875 
L 36.8125 54.6875 
L 36.8125 47.703125 
L 18.3125 47.703125 
L 18.3125 18.015625 
Q 18.3125 11.328125 20.140625 9.421875 
Q 21.96875 7.515625 27.59375 7.515625 
L 36.8125 7.515625 
L 36.8125 0 
L 27.59375 0 
Q 17.1875 0 13.234375 3.875 
Q 9.28125 7.765625 9.28125 18.015625 
L 9.28125 47.703125 
L 2.6875 47.703125 
L 2.6875 54.6875 
L 9.28125 54.6875 
L 9.28125 70.21875 
z
" id="DejaVuSans-116"/>
      <path d="M 32.171875 -5.078125 
Q 28.375 -14.84375 24.75 -17.8125 
Q 21.140625 -20.796875 15.09375 -20.796875 
L 7.90625 -20.796875 
L 7.90625 -13.28125 
L 13.1875 -13.28125 
Q 16.890625 -13.28125 18.9375 -11.515625 
Q 21 -9.765625 23.484375 -3.21875 
L 25.09375 0.875 
L 2.984375 54.6875 
L 12.5 54.6875 
L 29.59375 11.921875 
L 46.6875 54.6875 
L 56.203125 54.6875 
z
" id="DejaVuSans-121"/>
     </defs>
     <g style="fill:#262626;" transform="translate(16.318125 146.526648)rotate(-90)scale(0.12 -0.12)">
      <use xlink:href="#DejaVuSans-100"/>
      <use x="63.476562" xlink:href="#DejaVuSans-101"/>
      <use x="125" xlink:href="#DejaVuSans-110"/>
      <use x="188.378906" xlink:href="#DejaVuSans-115"/>
      <use x="240.478516" xlink:href="#DejaVuSans-105"/>
      <use x="268.261719" xlink:href="#DejaVuSans-116"/>
      <use x="307.470703" xlink:href="#DejaVuSans-121"/>
     </g>
    </g>
   </g>
   <g id="PolyCollection_1">
    <defs>
     <path d="M 47.369184 -227.603985 
L 47.369184 -349.710053 
L 48.711965 -314.385416 
L 50.054746 -298.825031 
L 51.397527 -289.603634 
L 52.740307 -283.349257 
L 54.083088 -278.762189 
L 55.425869 -275.221239 
L 56.76865 -272.387269 
L 58.11143 -270.057426 
L 59.454211 -268.101986 
L 60.796992 -266.433637 
L 62.139773 -264.99118 
L 63.482553 -263.73029 
L 64.825334 -262.617975 
L 66.168115 -261.629112 
L 67.510896 -260.744191 
L 68.853676 -259.947807 
L 70.196457 -259.227611 
L 71.539238 -258.573581 
L 72.882019 -257.977486 
L 74.224799 -257.432501 
L 75.56758 -256.932914 
L 76.910361 -256.473904 
L 78.253142 -256.051375 
L 79.595922 -255.661823 
L 80.938703 -255.302234 
L 82.281484 -254.969998 
L 83.624265 -254.66285 
L 84.967045 -254.378812 
L 86.309826 -254.11615 
L 87.652607 -253.873342 
L 88.995388 -253.649047 
L 90.338168 -253.442079 
L 91.680949 -253.251389 
L 93.02373 -253.076049 
L 94.366511 -252.915236 
L 95.709291 -252.768218 
L 97.052072 -252.634351 
L 98.394853 -252.513061 
L 99.737634 -252.403845 
L 101.080414 -252.306258 
L 102.423195 -252.219912 
L 103.765976 -252.144473 
L 105.108757 -252.079649 
L 106.451537 -252.025199 
L 107.794318 -251.980917 
L 109.137099 -251.946642 
L 110.47988 -251.922248 
L 111.82266 -251.907647 
L 113.165441 -251.902786 
L 114.508222 -251.907647 
L 115.851003 -251.922248 
L 117.193783 -251.946642 
L 118.536564 -251.980917 
L 119.879345 -252.025199 
L 121.222126 -252.079649 
L 122.564906 -252.144473 
L 123.907687 -252.219912 
L 125.250468 -252.306258 
L 126.593249 -252.403845 
L 127.936029 -252.513061 
L 129.27881 -252.634351 
L 130.621591 -252.768218 
L 131.964372 -252.915236 
L 133.307152 -253.076049 
L 134.649933 -253.251389 
L 135.992714 -253.442079 
L 137.335495 -253.649047 
L 138.678275 -253.873342 
L 140.021056 -254.11615 
L 141.363837 -254.378812 
L 142.706618 -254.66285 
L 144.049398 -254.969998 
L 145.392179 -255.302234 
L 146.73496 -255.661823 
L 148.077741 -256.051375 
L 149.420521 -256.473904 
L 150.763302 -256.932914 
L 152.106083 -257.432501 
L 153.448864 -257.977486 
L 154.791644 -258.573581 
L 156.134425 -259.227611 
L 157.477206 -259.947807 
L 158.819987 -260.744191 
L 160.162767 -261.629112 
L 161.505548 -262.617975 
L 162.848329 -263.73029 
L 164.19111 -264.99118 
L 165.53389 -266.433637 
L 166.876671 -268.101986 
L 168.219452 -270.057426 
L 169.562233 -272.387269 
L 170.905013 -275.221239 
L 172.247794 -278.762189 
L 173.590575 -283.349257 
L 174.933356 -289.603634 
L 176.276136 -298.825031 
L 177.618917 -314.385416 
L 178.961698 -349.710053 
L 178.961698 -227.603985 
L 178.961698 -227.603985 
L 177.618917 -227.603985 
L 176.276136 -227.603985 
L 174.933356 -227.603985 
L 173.590575 -227.603985 
L 172.247794 -227.603985 
L 170.905013 -227.603985 
L 169.562233 -227.603985 
L 168.219452 -227.603985 
L 166.876671 -227.603985 
L 165.53389 -227.603985 
L 164.19111 -227.603985 
L 162.848329 -227.603985 
L 161.505548 -227.603985 
L 160.162767 -227.603985 
L 158.819987 -227.603985 
L 157.477206 -227.603985 
L 156.134425 -227.603985 
L 154.791644 -227.603985 
L 153.448864 -227.603985 
L 152.106083 -227.603985 
L 150.763302 -227.603985 
L 149.420521 -227.603985 
L 148.077741 -227.603985 
L 146.73496 -227.603985 
L 145.392179 -227.603985 
L 144.049398 -227.603985 
L 142.706618 -227.603985 
L 141.363837 -227.603985 
L 140.021056 -227.603985 
L 138.678275 -227.603985 
L 137.335495 -227.603985 
L 135.992714 -227.603985 
L 134.649933 -227.603985 
L 133.307152 -227.603985 
L 131.964372 -227.603985 
L 130.621591 -227.603985 
L 129.27881 -227.603985 
L 127.936029 -227.603985 
L 126.593249 -227.603985 
L 125.250468 -227.603985 
L 123.907687 -227.603985 
L 122.564906 -227.603985 
L 121.222126 -227.603985 
L 119.879345 -227.603985 
L 118.536564 -227.603985 
L 117.193783 -227.603985 
L 115.851003 -227.603985 
L 114.508222 -227.603985 
L 113.165441 -227.603985 
L 111.82266 -227.603985 
L 110.47988 -227.603985 
L 109.137099 -227.603985 
L 107.794318 -227.603985 
L 106.451537 -227.603985 
L 105.108757 -227.603985 
L 103.765976 -227.603985 
L 102.423195 -227.603985 
L 101.080414 -227.603985 
L 99.737634 -227.603985 
L 98.394853 -227.603985 
L 97.052072 -227.603985 
L 95.709291 -227.603985 
L 94.366511 -227.603985 
L 93.02373 -227.603985 
L 91.680949 -227.603985 
L 90.338168 -227.603985 
L 88.995388 -227.603985 
L 87.652607 -227.603985 
L 86.309826 -227.603985 
L 84.967045 -227.603985 
L 83.624265 -227.603985 
L 82.281484 -227.603985 
L 80.938703 -227.603985 
L 79.595922 -227.603985 
L 78.253142 -227.603985 
L 76.910361 -227.603985 
L 75.56758 -227.603985 
L 74.224799 -227.603985 
L 72.882019 -227.603985 
L 71.539238 -227.603985 
L 70.196457 -227.603985 
L 68.853676 -227.603985 
L 67.510896 -227.603985 
L 66.168115 -227.603985 
L 64.825334 -227.603985 
L 63.482553 -227.603985 
L 62.139773 -227.603985 
L 60.796992 -227.603985 
L 59.454211 -227.603985 
L 58.11143 -227.603985 
L 56.76865 -227.603985 
L 55.425869 -227.603985 
L 54.083088 -227.603985 
L 52.740307 -227.603985 
L 51.397527 -227.603985 
L 50.054746 -227.603985 
L 48.711965 -227.603985 
L 47.369184 -227.603985 
z
" id="ma2980dd520" style="stroke:#ffffff;"/>
    </defs>
    <g clip-path="url(#pbc7a5eeb30)">
     <use style="fill:#4c72b0;stroke:#ffffff;" x="0" xlink:href="#ma2980dd520" y="419.519687"/>
    </g>
   </g>
   <g id="patch_3">
    <path d="M 39.3125 198.654545 
L 39.3125 50.4 
" style="fill:none;stroke:#ffffff;stroke-linecap:square;stroke-linejoin:miter;stroke-width:1.25;"/>
   </g>
   <g id="patch_4">
    <path d="M 187.018382 198.654545 
L 187.018382 50.4 
" style="fill:none;stroke:#ffffff;stroke-linecap:square;stroke-linejoin:miter;stroke-width:1.25;"/>
   </g>
   <g id="patch_5">
    <path d="M 39.3125 198.654545 
L 187.018382 198.654545 
" style="fill:none;stroke:#ffffff;stroke-linecap:square;stroke-linejoin:miter;stroke-width:1.25;"/>
   </g>
   <g id="patch_6">
    <path d="M 39.3125 50.4 
L 187.018382 50.4 
" style="fill:none;stroke:#ffffff;stroke-linecap:square;stroke-linejoin:miter;stroke-width:1.25;"/>
   </g>
   <g id="text_6">
    <!-- $Beta(0.5, 0.5)$ -->
    <defs>
     <path d="M 16.890625 72.90625 
L 42.09375 72.90625 
Q 52.34375 72.90625 57.421875 69.09375 
Q 62.5 65.28125 62.5 57.625 
Q 62.5 50.59375 58.125 45.484375 
Q 53.765625 40.375 46.6875 39.3125 
Q 52.734375 37.9375 55.765625 34.078125 
Q 58.796875 30.21875 58.796875 23.78125 
Q 58.796875 12.796875 50.65625 6.390625 
Q 42.53125 0 28.421875 0 
L 2.6875 0 
z
M 19.28125 34.8125 
L 14.109375 8.109375 
L 29.984375 8.109375 
Q 38.921875 8.109375 43.75 12.203125 
Q 48.578125 16.3125 48.578125 23.78125 
Q 48.578125 29.546875 45.375 32.171875 
Q 42.1875 34.8125 35.109375 34.8125 
z
M 25.09375 64.796875 
L 20.796875 42.828125 
L 35.5 42.828125 
Q 43.359375 42.828125 47.78125 46.234375 
Q 52.203125 49.65625 52.203125 55.71875 
Q 52.203125 60.453125 49.21875 62.625 
Q 46.234375 64.796875 39.703125 64.796875 
z
" id="DejaVuSans-Oblique-66"/>
     <path d="M 48.09375 32.234375 
Q 48.25 33.015625 48.3125 33.84375 
Q 48.390625 34.671875 48.390625 35.5 
Q 48.390625 41.453125 44.890625 44.921875 
Q 41.40625 48.390625 35.40625 48.390625 
Q 28.71875 48.390625 23.578125 44.15625 
Q 18.453125 39.9375 15.828125 32.171875 
z
M 55.90625 25.203125 
L 14.109375 25.203125 
Q 13.8125 23.34375 13.71875 22.265625 
Q 13.625 21.1875 13.625 20.40625 
Q 13.625 13.625 17.796875 9.90625 
Q 21.96875 6.203125 29.59375 6.203125 
Q 35.453125 6.203125 40.671875 7.515625 
Q 45.90625 8.84375 50.390625 11.375 
L 48.6875 2.484375 
Q 43.84375 0.53125 38.6875 -0.4375 
Q 33.546875 -1.421875 28.21875 -1.421875 
Q 16.84375 -1.421875 10.71875 4.015625 
Q 4.59375 9.46875 4.59375 19.484375 
Q 4.59375 28.03125 7.640625 35.375 
Q 10.6875 42.71875 16.609375 48.484375 
Q 20.40625 52.09375 25.65625 54.046875 
Q 30.90625 56 36.8125 56 
Q 46.09375 56 51.578125 50.4375 
Q 57.078125 44.875 57.078125 35.5 
Q 57.078125 33.25 56.78125 30.6875 
Q 56.5 28.125 55.90625 25.203125 
z
" id="DejaVuSans-Oblique-101"/>
     <path d="M 42.28125 54.6875 
L 40.921875 47.703125 
L 23 47.703125 
L 17.1875 18.015625 
Q 16.890625 16.359375 16.75 15.234375 
Q 16.609375 14.109375 16.609375 13.484375 
Q 16.609375 10.359375 18.484375 8.9375 
Q 20.359375 7.515625 24.515625 7.515625 
L 33.59375 7.515625 
L 32.078125 0 
L 23.484375 0 
Q 15.484375 0 11.546875 3.125 
Q 7.625 6.25 7.625 12.59375 
Q 7.625 13.71875 7.765625 15.0625 
Q 7.90625 16.40625 8.203125 18.015625 
L 14.015625 47.703125 
L 6.390625 47.703125 
L 7.8125 54.6875 
L 15.28125 54.6875 
L 18.3125 70.21875 
L 27.296875 70.21875 
L 24.3125 54.6875 
z
" id="DejaVuSans-Oblique-116"/>
     <path d="M 53.71875 31.203125 
L 47.609375 0 
L 38.625 0 
L 40.28125 8.296875 
Q 36.328125 3.421875 31.265625 1 
Q 26.21875 -1.421875 20.015625 -1.421875 
Q 13.03125 -1.421875 8.5625 2.84375 
Q 4.109375 7.125 4.109375 13.8125 
Q 4.109375 23.390625 11.75 28.953125 
Q 19.390625 34.515625 32.8125 34.515625 
L 45.3125 34.515625 
L 45.796875 36.921875 
Q 45.90625 37.3125 45.953125 37.765625 
Q 46 38.234375 46 39.203125 
Q 46 43.5625 42.453125 45.96875 
Q 38.921875 48.390625 32.515625 48.390625 
Q 28.125 48.390625 23.5 47.265625 
Q 18.890625 46.140625 14.015625 43.890625 
L 15.578125 52.203125 
Q 20.65625 54.109375 25.515625 55.046875 
Q 30.375 56 34.90625 56 
Q 44.578125 56 49.625 51.796875 
Q 54.6875 47.609375 54.6875 39.59375 
Q 54.6875 37.984375 54.4375 35.8125 
Q 54.203125 33.640625 53.71875 31.203125 
z
M 44 27.484375 
L 35.015625 27.484375 
Q 23.96875 27.484375 18.671875 24.53125 
Q 13.375 21.578125 13.375 15.375 
Q 13.375 11.078125 16.078125 8.640625 
Q 18.796875 6.203125 23.578125 6.203125 
Q 30.90625 6.203125 36.375 11.453125 
Q 41.84375 16.703125 43.609375 25.484375 
z
" id="DejaVuSans-Oblique-97"/>
     <path d="M 31 75.875 
Q 24.46875 64.65625 21.28125 53.65625 
Q 18.109375 42.671875 18.109375 31.390625 
Q 18.109375 20.125 21.3125 9.0625 
Q 24.515625 -2 31 -13.1875 
L 23.1875 -13.1875 
Q 15.875 -1.703125 12.234375 9.375 
Q 8.59375 20.453125 8.59375 31.390625 
Q 8.59375 42.28125 12.203125 53.3125 
Q 15.828125 64.359375 23.1875 75.875 
z
" id="DejaVuSans-40"/>
     <path d="M 10.6875 12.40625 
L 21 12.40625 
L 21 0 
L 10.6875 0 
z
" id="DejaVuSans-46"/>
     <path d="M 10.796875 72.90625 
L 49.515625 72.90625 
L 49.515625 64.59375 
L 19.828125 64.59375 
L 19.828125 46.734375 
Q 21.96875 47.46875 24.109375 47.828125 
Q 26.265625 48.1875 28.421875 48.1875 
Q 40.625 48.1875 47.75 41.5 
Q 54.890625 34.8125 54.890625 23.390625 
Q 54.890625 11.625 47.5625 5.09375 
Q 40.234375 -1.421875 26.90625 -1.421875 
Q 22.3125 -1.421875 17.546875 -0.640625 
Q 12.796875 0.140625 7.71875 1.703125 
L 7.71875 11.625 
Q 12.109375 9.234375 16.796875 8.0625 
Q 21.484375 6.890625 26.703125 6.890625 
Q 35.15625 6.890625 40.078125 11.328125 
Q 45.015625 15.765625 45.015625 23.390625 
Q 45.015625 31 40.078125 35.4375 
Q 35.15625 39.890625 26.703125 39.890625 
Q 22.75 39.890625 18.8125 39.015625 
Q 14.890625 38.140625 10.796875 36.28125 
z
" id="DejaVuSans-53"/>
     <path d="M 11.71875 12.40625 
L 22.015625 12.40625 
L 22.015625 4 
L 14.015625 -11.625 
L 7.71875 -11.625 
L 11.71875 4 
z
" id="DejaVuSans-44"/>
     <path d="M 8.015625 75.875 
L 15.828125 75.875 
Q 23.140625 64.359375 26.78125 53.3125 
Q 30.421875 42.28125 30.421875 31.390625 
Q 30.421875 20.453125 26.78125 9.375 
Q 23.140625 -1.703125 15.828125 -13.1875 
L 8.015625 -13.1875 
Q 14.5 -2 17.703125 9.0625 
Q 20.90625 20.125 20.90625 31.390625 
Q 20.90625 42.671875 17.703125 53.65625 
Q 14.5 64.65625 8.015625 75.875 
z
" id="DejaVuSans-41"/>
    </defs>
    <g style="fill:#262626;" transform="translate(72.485441 44.4)scale(0.12 -0.12)">
     <use transform="translate(0 0.125)" xlink:href="#DejaVuSans-Oblique-66"/>
     <use transform="translate(68.603516 0.125)" xlink:href="#DejaVuSans-Oblique-101"/>
     <use transform="translate(130.126953 0.125)" xlink:href="#DejaVuSans-Oblique-116"/>
     <use transform="translate(169.335938 0.125)" xlink:href="#DejaVuSans-Oblique-97"/>
     <use transform="translate(230.615234 0.125)" xlink:href="#DejaVuSans-40"/>
     <use transform="translate(269.628906 0.125)" xlink:href="#DejaVuSans-48"/>
     <use transform="translate(333.251953 0.125)" xlink:href="#DejaVuSans-46"/>
     <use transform="translate(365.039062 0.125)" xlink:href="#DejaVuSans-53"/>
     <use transform="translate(428.662109 0.125)" xlink:href="#DejaVuSans-44"/>
     <use transform="translate(479.931641 0.125)" xlink:href="#DejaVuSans-48"/>
     <use transform="translate(543.554688 0.125)" xlink:href="#DejaVuSans-46"/>
     <use transform="translate(575.341797 0.125)" xlink:href="#DejaVuSans-53"/>
     <use transform="translate(638.964844 0.125)" xlink:href="#DejaVuSans-41"/>
    </g>
   </g>
  </g>
  <g id="axes_2">
   <g id="patch_7">
    <path d="M 216.559559 198.654545 
L 364.265441 198.654545 
L 364.265441 50.4 
L 216.559559 50.4 
z
" style="fill:#eaeaf2;"/>
   </g>
   <g id="matplotlib.axis_3">
    <g id="xtick_4">
     <g id="line2d_8">
      <path clip-path="url(#pbd98786dd9)" d="M 223.273463 198.654545 
L 223.273463 50.4 
" style="fill:none;stroke:#ffffff;stroke-linecap:round;"/>
     </g>
    </g>
    <g id="xtick_5">
     <g id="line2d_9">
      <path clip-path="url(#pbd98786dd9)" d="M 290.4125 198.654545 
L 290.4125 50.4 
" style="fill:none;stroke:#ffffff;stroke-linecap:round;"/>
     </g>
    </g>
    <g id="xtick_6">
     <g id="line2d_10">
      <path clip-path="url(#pbd98786dd9)" d="M 357.551537 198.654545 
L 357.551537 50.4 
" style="fill:none;stroke:#ffffff;stroke-linecap:round;"/>
     </g>
    </g>
   </g>
   <g id="matplotlib.axis_4">
    <g id="ytick_5">
     <g id="line2d_11">
      <path clip-path="url(#pbd98786dd9)" d="M 216.559559 191.915702 
L 364.265441 191.915702 
" style="fill:none;stroke:#ffffff;stroke-linecap:round;"/>
     </g>
    </g>
    <g id="ytick_6">
     <g id="line2d_12">
      <path clip-path="url(#pbd98786dd9)" d="M 216.559559 153.747236 
L 364.265441 153.747236 
" style="fill:none;stroke:#ffffff;stroke-linecap:round;"/>
     </g>
    </g>
    <g id="ytick_7">
     <g id="line2d_13">
      <path clip-path="url(#pbd98786dd9)" d="M 216.559559 115.578769 
L 364.265441 115.578769 
" style="fill:none;stroke:#ffffff;stroke-linecap:round;"/>
     </g>
    </g>
    <g id="ytick_8">
     <g id="line2d_14">
      <path clip-path="url(#pbd98786dd9)" d="M 216.559559 77.410302 
L 364.265441 77.410302 
" style="fill:none;stroke:#ffffff;stroke-linecap:round;"/>
     </g>
    </g>
   </g>
   <g id="PolyCollection_2">
    <defs>
     <path d="M 223.273463 -227.603985 
L 223.273463 -265.772452 
L 224.616243 -265.772452 
L 225.959024 -265.772452 
L 227.301805 -265.772452 
L 228.644586 -265.772452 
L 229.987366 -265.772452 
L 231.330147 -265.772452 
L 232.672928 -265.772452 
L 234.015709 -265.772452 
L 235.358489 -265.772452 
L 236.70127 -265.772452 
L 238.044051 -265.772452 
L 239.386832 -265.772452 
L 240.729612 -265.772452 
L 242.072393 -265.772452 
L 243.415174 -265.772452 
L 244.757955 -265.772452 
L 246.100735 -265.772452 
L 247.443516 -265.772452 
L 248.786297 -265.772452 
L 250.129078 -265.772452 
L 251.471858 -265.772452 
L 252.814639 -265.772452 
L 254.15742 -265.772452 
L 255.500201 -265.772452 
L 256.842981 -265.772452 
L 258.185762 -265.772452 
L 259.528543 -265.772452 
L 260.871324 -265.772452 
L 262.214104 -265.772452 
L 263.556885 -265.772452 
L 264.899666 -265.772452 
L 266.242447 -265.772452 
L 267.585227 -265.772452 
L 268.928008 -265.772452 
L 270.270789 -265.772452 
L 271.61357 -265.772452 
L 272.95635 -265.772452 
L 274.299131 -265.772452 
L 275.641912 -265.772452 
L 276.984693 -265.772452 
L 278.327473 -265.772452 
L 279.670254 -265.772452 
L 281.013035 -265.772452 
L 282.355816 -265.772452 
L 283.698596 -265.772452 
L 285.041377 -265.772452 
L 286.384158 -265.772452 
L 287.726939 -265.772452 
L 289.069719 -265.772452 
L 290.4125 -265.772452 
L 291.755281 -265.772452 
L 293.098061 -265.772452 
L 294.440842 -265.772452 
L 295.783623 -265.772452 
L 297.126404 -265.772452 
L 298.469184 -265.772452 
L 299.811965 -265.772452 
L 301.154746 -265.772452 
L 302.497527 -265.772452 
L 303.840307 -265.772452 
L 305.183088 -265.772452 
L 306.525869 -265.772452 
L 307.86865 -265.772452 
L 309.21143 -265.772452 
L 310.554211 -265.772452 
L 311.896992 -265.772452 
L 313.239773 -265.772452 
L 314.582553 -265.772452 
L 315.925334 -265.772452 
L 317.268115 -265.772452 
L 318.610896 -265.772452 
L 319.953676 -265.772452 
L 321.296457 -265.772452 
L 322.639238 -265.772452 
L 323.982019 -265.772452 
L 325.324799 -265.772452 
L 326.66758 -265.772452 
L 328.010361 -265.772452 
L 329.353142 -265.772452 
L 330.695922 -265.772452 
L 332.038703 -265.772452 
L 333.381484 -265.772452 
L 334.724265 -265.772452 
L 336.067045 -265.772452 
L 337.409826 -265.772452 
L 338.752607 -265.772452 
L 340.095388 -265.772452 
L 341.438168 -265.772452 
L 342.780949 -265.772452 
L 344.12373 -265.772452 
L 345.466511 -265.772452 
L 346.809291 -265.772452 
L 348.152072 -265.772452 
L 349.494853 -265.772452 
L 350.837634 -265.772452 
L 352.180414 -265.772452 
L 353.523195 -265.772452 
L 354.865976 -265.772452 
L 356.208757 -265.772452 
L 357.551537 -265.772452 
L 357.551537 -227.603985 
L 357.551537 -227.603985 
L 356.208757 -227.603985 
L 354.865976 -227.603985 
L 353.523195 -227.603985 
L 352.180414 -227.603985 
L 350.837634 -227.603985 
L 349.494853 -227.603985 
L 348.152072 -227.603985 
L 346.809291 -227.603985 
L 345.466511 -227.603985 
L 344.12373 -227.603985 
L 342.780949 -227.603985 
L 341.438168 -227.603985 
L 340.095388 -227.603985 
L 338.752607 -227.603985 
L 337.409826 -227.603985 
L 336.067045 -227.603985 
L 334.724265 -227.603985 
L 333.381484 -227.603985 
L 332.038703 -227.603985 
L 330.695922 -227.603985 
L 329.353142 -227.603985 
L 328.010361 -227.603985 
L 326.66758 -227.603985 
L 325.324799 -227.603985 
L 323.982019 -227.603985 
L 322.639238 -227.603985 
L 321.296457 -227.603985 
L 319.953676 -227.603985 
L 318.610896 -227.603985 
L 317.268115 -227.603985 
L 315.925334 -227.603985 
L 314.582553 -227.603985 
L 313.239773 -227.603985 
L 311.896992 -227.603985 
L 310.554211 -227.603985 
L 309.21143 -227.603985 
L 307.86865 -227.603985 
L 306.525869 -227.603985 
L 305.183088 -227.603985 
L 303.840307 -227.603985 
L 302.497527 -227.603985 
L 301.154746 -227.603985 
L 299.811965 -227.603985 
L 298.469184 -227.603985 
L 297.126404 -227.603985 
L 295.783623 -227.603985 
L 294.440842 -227.603985 
L 293.098061 -227.603985 
L 291.755281 -227.603985 
L 290.4125 -227.603985 
L 289.069719 -227.603985 
L 287.726939 -227.603985 
L 286.384158 -227.603985 
L 285.041377 -227.603985 
L 283.698596 -227.603985 
L 282.355816 -227.603985 
L 281.013035 -227.603985 
L 279.670254 -227.603985 
L 278.327473 -227.603985 
L 276.984693 -227.603985 
L 275.641912 -227.603985 
L 274.299131 -227.603985 
L 272.95635 -227.603985 
L 271.61357 -227.603985 
L 270.270789 -227.603985 
L 268.928008 -227.603985 
L 267.585227 -227.603985 
L 266.242447 -227.603985 
L 264.899666 -227.603985 
L 263.556885 -227.603985 
L 262.214104 -227.603985 
L 260.871324 -227.603985 
L 259.528543 -227.603985 
L 258.185762 -227.603985 
L 256.842981 -227.603985 
L 255.500201 -227.603985 
L 254.15742 -227.603985 
L 252.814639 -227.603985 
L 251.471858 -227.603985 
L 250.129078 -227.603985 
L 248.786297 -227.603985 
L 247.443516 -227.603985 
L 246.100735 -227.603985 
L 244.757955 -227.603985 
L 243.415174 -227.603985 
L 242.072393 -227.603985 
L 240.729612 -227.603985 
L 239.386832 -227.603985 
L 238.044051 -227.603985 
L 236.70127 -227.603985 
L 235.358489 -227.603985 
L 234.015709 -227.603985 
L 232.672928 -227.603985 
L 231.330147 -227.603985 
L 229.987366 -227.603985 
L 228.644586 -227.603985 
L 227.301805 -227.603985 
L 225.959024 -227.603985 
L 224.616243 -227.603985 
L 223.273463 -227.603985 
z
" id="m7b029207ec" style="stroke:#ffffff;"/>
    </defs>
    <g clip-path="url(#pbd98786dd9)">
     <use style="fill:#4c72b0;stroke:#ffffff;" x="0" xlink:href="#m7b029207ec" y="419.519687"/>
    </g>
   </g>
   <g id="patch_8">
    <path d="M 216.559559 198.654545 
L 216.559559 50.4 
" style="fill:none;stroke:#ffffff;stroke-linecap:square;stroke-linejoin:miter;stroke-width:1.25;"/>
   </g>
   <g id="patch_9">
    <path d="M 364.265441 198.654545 
L 364.265441 50.4 
" style="fill:none;stroke:#ffffff;stroke-linecap:square;stroke-linejoin:miter;stroke-width:1.25;"/>
   </g>
   <g id="patch_10">
    <path d="M 216.559559 198.654545 
L 364.265441 198.654545 
" style="fill:none;stroke:#ffffff;stroke-linecap:square;stroke-linejoin:miter;stroke-width:1.25;"/>
   </g>
   <g id="patch_11">
    <path d="M 216.559559 50.4 
L 364.265441 50.4 
" style="fill:none;stroke:#ffffff;stroke-linecap:square;stroke-linejoin:miter;stroke-width:1.25;"/>
   </g>
   <g id="text_7">
    <!-- $Beta(1, 1)$ -->
    <g style="fill:#262626;" transform="translate(261.1325 44.4)scale(0.12 -0.12)">
     <use transform="translate(0 0.125)" xlink:href="#DejaVuSans-Oblique-66"/>
     <use transform="translate(68.603516 0.125)" xlink:href="#DejaVuSans-Oblique-101"/>
     <use transform="translate(130.126953 0.125)" xlink:href="#DejaVuSans-Oblique-116"/>
     <use transform="translate(169.335938 0.125)" xlink:href="#DejaVuSans-Oblique-97"/>
     <use transform="translate(230.615234 0.125)" xlink:href="#DejaVuSans-40"/>
     <use transform="translate(269.628906 0.125)" xlink:href="#DejaVuSans-49"/>
     <use transform="translate(333.251953 0.125)" xlink:href="#DejaVuSans-44"/>
     <use transform="translate(384.521484 0.125)" xlink:href="#DejaVuSans-49"/>
     <use transform="translate(448.144531 0.125)" xlink:href="#DejaVuSans-41"/>
    </g>
   </g>
  </g>
  <g id="axes_3">
   <g id="patch_12">
    <path d="M 393.806618 198.654545 
L 541.5125 198.654545 
L 541.5125 50.4 
L 393.806618 50.4 
z
" style="fill:#eaeaf2;"/>
   </g>
   <g id="matplotlib.axis_5">
    <g id="xtick_7">
     <g id="line2d_15">
      <path clip-path="url(#p4854ec4801)" d="M 400.520521 198.654545 
L 400.520521 50.4 
" style="fill:none;stroke:#ffffff;stroke-linecap:round;"/>
     </g>
    </g>
    <g id="xtick_8">
     <g id="line2d_16">
      <path clip-path="url(#p4854ec4801)" d="M 467.659559 198.654545 
L 467.659559 50.4 
" style="fill:none;stroke:#ffffff;stroke-linecap:round;"/>
     </g>
    </g>
    <g id="xtick_9">
     <g id="line2d_17">
      <path clip-path="url(#p4854ec4801)" d="M 534.798596 198.654545 
L 534.798596 50.4 
" style="fill:none;stroke:#ffffff;stroke-linecap:round;"/>
     </g>
    </g>
   </g>
   <g id="matplotlib.axis_6">
    <g id="ytick_9">
     <g id="line2d_18">
      <path clip-path="url(#p4854ec4801)" d="M 393.806618 191.915702 
L 541.5125 191.915702 
" style="fill:none;stroke:#ffffff;stroke-linecap:round;"/>
     </g>
    </g>
    <g id="ytick_10">
     <g id="line2d_19">
      <path clip-path="url(#p4854ec4801)" d="M 393.806618 153.747236 
L 541.5125 153.747236 
" style="fill:none;stroke:#ffffff;stroke-linecap:round;"/>
     </g>
    </g>
    <g id="ytick_11">
     <g id="line2d_20">
      <path clip-path="url(#p4854ec4801)" d="M 393.806618 115.578769 
L 541.5125 115.578769 
" style="fill:none;stroke:#ffffff;stroke-linecap:round;"/>
     </g>
    </g>
    <g id="ytick_12">
     <g id="line2d_21">
      <path clip-path="url(#p4854ec4801)" d="M 393.806618 77.410302 
L 541.5125 77.410302 
" style="fill:none;stroke:#ffffff;stroke-linecap:round;"/>
     </g>
    </g>
   </g>
   <g id="PolyCollection_3">
    <defs>
     <path d="M 400.520521 -227.603985 
L 400.520521 -303.940919 
L 401.863302 -303.177549 
L 403.206083 -302.41418 
L 404.548864 -301.650811 
L 405.891644 -300.887441 
L 407.234425 -300.124072 
L 408.577206 -299.360703 
L 409.919987 -298.597333 
L 411.262767 -297.833964 
L 412.605548 -297.070595 
L 413.948329 -296.307225 
L 415.29111 -295.543856 
L 416.63389 -294.780487 
L 417.976671 -294.017117 
L 419.319452 -293.253748 
L 420.662233 -292.490379 
L 422.005013 -291.727009 
L 423.347794 -290.96364 
L 424.690575 -290.200271 
L 426.033356 -289.436901 
L 427.376136 -288.673532 
L 428.718917 -287.910163 
L 430.061698 -287.146793 
L 431.404479 -286.383424 
L 432.747259 -285.620055 
L 434.09004 -284.856685 
L 435.432821 -284.093316 
L 436.775602 -283.329947 
L 438.118382 -282.566577 
L 439.461163 -281.803208 
L 440.803944 -281.039839 
L 442.146725 -280.276469 
L 443.489505 -279.5131 
L 444.832286 -278.749731 
L 446.175067 -277.986361 
L 447.517848 -277.222992 
L 448.860628 -276.459623 
L 450.203409 -275.696253 
L 451.54619 -274.932884 
L 452.888971 -274.169515 
L 454.231751 -273.406145 
L 455.574532 -272.642776 
L 456.917313 -271.879407 
L 458.260094 -271.116037 
L 459.602874 -270.352668 
L 460.945655 -269.589299 
L 462.288436 -268.825929 
L 463.631217 -268.06256 
L 464.973997 -267.299191 
L 466.316778 -266.535821 
L 467.659559 -265.772452 
L 469.00234 -265.009083 
L 470.34512 -264.245713 
L 471.687901 -263.482344 
L 473.030682 -262.718975 
L 474.373463 -261.955605 
L 475.716243 -261.192236 
L 477.059024 -260.428866 
L 478.401805 -259.665497 
L 479.744586 -258.902128 
L 481.087366 -258.138758 
L 482.430147 -257.375389 
L 483.772928 -256.61202 
L 485.115709 -255.84865 
L 486.458489 -255.085281 
L 487.80127 -254.321912 
L 489.144051 -253.558542 
L 490.486832 -252.795173 
L 491.829612 -252.031804 
L 493.172393 -251.268434 
L 494.515174 -250.505065 
L 495.857955 -249.741696 
L 497.200735 -248.978326 
L 498.543516 -248.214957 
L 499.886297 -247.451588 
L 501.229078 -246.688218 
L 502.571858 -245.924849 
L 503.914639 -245.16148 
L 505.25742 -244.39811 
L 506.600201 -243.634741 
L 507.942981 -242.871372 
L 509.285762 -242.108002 
L 510.628543 -241.344633 
L 511.971324 -240.581264 
L 513.314104 -239.817894 
L 514.656885 -239.054525 
L 515.999666 -238.291156 
L 517.342447 -237.527786 
L 518.685227 -236.764417 
L 520.028008 -236.001048 
L 521.370789 -235.237678 
L 522.71357 -234.474309 
L 524.05635 -233.71094 
L 525.399131 -232.94757 
L 526.741912 -232.184201 
L 528.084693 -231.420832 
L 529.427473 -230.657462 
L 530.770254 -229.894093 
L 532.113035 -229.130724 
L 533.455816 -228.367354 
L 534.798596 -227.603985 
L 534.798596 -227.603985 
L 534.798596 -227.603985 
L 533.455816 -227.603985 
L 532.113035 -227.603985 
L 530.770254 -227.603985 
L 529.427473 -227.603985 
L 528.084693 -227.603985 
L 526.741912 -227.603985 
L 525.399131 -227.603985 
L 524.05635 -227.603985 
L 522.71357 -227.603985 
L 521.370789 -227.603985 
L 520.028008 -227.603985 
L 518.685227 -227.603985 
L 517.342447 -227.603985 
L 515.999666 -227.603985 
L 514.656885 -227.603985 
L 513.314104 -227.603985 
L 511.971324 -227.603985 
L 510.628543 -227.603985 
L 509.285762 -227.603985 
L 507.942981 -227.603985 
L 506.600201 -227.603985 
L 505.25742 -227.603985 
L 503.914639 -227.603985 
L 502.571858 -227.603985 
L 501.229078 -227.603985 
L 499.886297 -227.603985 
L 498.543516 -227.603985 
L 497.200735 -227.603985 
L 495.857955 -227.603985 
L 494.515174 -227.603985 
L 493.172393 -227.603985 
L 491.829612 -227.603985 
L 490.486832 -227.603985 
L 489.144051 -227.603985 
L 487.80127 -227.603985 
L 486.458489 -227.603985 
L 485.115709 -227.603985 
L 483.772928 -227.603985 
L 482.430147 -227.603985 
L 481.087366 -227.603985 
L 479.744586 -227.603985 
L 478.401805 -227.603985 
L 477.059024 -227.603985 
L 475.716243 -227.603985 
L 474.373463 -227.603985 
L 473.030682 -227.603985 
L 471.687901 -227.603985 
L 470.34512 -227.603985 
L 469.00234 -227.603985 
L 467.659559 -227.603985 
L 466.316778 -227.603985 
L 464.973997 -227.603985 
L 463.631217 -227.603985 
L 462.288436 -227.603985 
L 460.945655 -227.603985 
L 459.602874 -227.603985 
L 458.260094 -227.603985 
L 456.917313 -227.603985 
L 455.574532 -227.603985 
L 454.231751 -227.603985 
L 452.888971 -227.603985 
L 451.54619 -227.603985 
L 450.203409 -227.603985 
L 448.860628 -227.603985 
L 447.517848 -227.603985 
L 446.175067 -227.603985 
L 444.832286 -227.603985 
L 443.489505 -227.603985 
L 442.146725 -227.603985 
L 440.803944 -227.603985 
L 439.461163 -227.603985 
L 438.118382 -227.603985 
L 436.775602 -227.603985 
L 435.432821 -227.603985 
L 434.09004 -227.603985 
L 432.747259 -227.603985 
L 431.404479 -227.603985 
L 430.061698 -227.603985 
L 428.718917 -227.603985 
L 427.376136 -227.603985 
L 426.033356 -227.603985 
L 424.690575 -227.603985 
L 423.347794 -227.603985 
L 422.005013 -227.603985 
L 420.662233 -227.603985 
L 419.319452 -227.603985 
L 417.976671 -227.603985 
L 416.63389 -227.603985 
L 415.29111 -227.603985 
L 413.948329 -227.603985 
L 412.605548 -227.603985 
L 411.262767 -227.603985 
L 409.919987 -227.603985 
L 408.577206 -227.603985 
L 407.234425 -227.603985 
L 405.891644 -227.603985 
L 404.548864 -227.603985 
L 403.206083 -227.603985 
L 401.863302 -227.603985 
L 400.520521 -227.603985 
z
" id="me94810c919" style="stroke:#ffffff;"/>
    </defs>
    <g clip-path="url(#p4854ec4801)">
     <use style="fill:#4c72b0;stroke:#ffffff;" x="0" xlink:href="#me94810c919" y="419.519687"/>
    </g>
   </g>
   <g id="patch_13">
    <path d="M 393.806618 198.654545 
L 393.806618 50.4 
" style="fill:none;stroke:#ffffff;stroke-linecap:square;stroke-linejoin:miter;stroke-width:1.25;"/>
   </g>
   <g id="patch_14">
    <path d="M 541.5125 198.654545 
L 541.5125 50.4 
" style="fill:none;stroke:#ffffff;stroke-linecap:square;stroke-linejoin:miter;stroke-width:1.25;"/>
   </g>
   <g id="patch_15">
    <path d="M 393.806618 198.654545 
L 541.5125 198.654545 
" style="fill:none;stroke:#ffffff;stroke-linecap:square;stroke-linejoin:miter;stroke-width:1.25;"/>
   </g>
   <g id="patch_16">
    <path d="M 393.806618 50.4 
L 541.5125 50.4 
" style="fill:none;stroke:#ffffff;stroke-linecap:square;stroke-linejoin:miter;stroke-width:1.25;"/>
   </g>
   <g id="text_8">
    <!-- $Beta(1, 2)$ -->
    <g style="fill:#262626;" transform="translate(438.379559 44.4)scale(0.12 -0.12)">
     <use transform="translate(0 0.125)" xlink:href="#DejaVuSans-Oblique-66"/>
     <use transform="translate(68.603516 0.125)" xlink:href="#DejaVuSans-Oblique-101"/>
     <use transform="translate(130.126953 0.125)" xlink:href="#DejaVuSans-Oblique-116"/>
     <use transform="translate(169.335938 0.125)" xlink:href="#DejaVuSans-Oblique-97"/>
     <use transform="translate(230.615234 0.125)" xlink:href="#DejaVuSans-40"/>
     <use transform="translate(269.628906 0.125)" xlink:href="#DejaVuSans-49"/>
     <use transform="translate(333.251953 0.125)" xlink:href="#DejaVuSans-44"/>
     <use transform="translate(384.521484 0.125)" xlink:href="#DejaVuSans-50"/>
     <use transform="translate(448.144531 0.125)" xlink:href="#DejaVuSans-41"/>
    </g>
   </g>
  </g>
  <g id="axes_4">
   <g id="patch_17">
    <path d="M 39.3125 376.56 
L 187.018382 376.56 
L 187.018382 228.305455 
L 39.3125 228.305455 
z
" style="fill:#eaeaf2;"/>
   </g>
   <g id="matplotlib.axis_7">
    <g id="xtick_10">
     <g id="line2d_22">
      <path clip-path="url(#p84c29d843b)" d="M 46.026404 376.56 
L 46.026404 228.305455 
" style="fill:none;stroke:#ffffff;stroke-linecap:round;"/>
     </g>
     <g id="text_9">
      <!-- 0.0 -->
      <g style="fill:#262626;" transform="translate(37.279685 394.418281)scale(0.11 -0.11)">
       <use xlink:href="#DejaVuSans-48"/>
       <use x="63.623047" xlink:href="#DejaVuSans-46"/>
       <use x="95.410156" xlink:href="#DejaVuSans-48"/>
      </g>
     </g>
    </g>
    <g id="xtick_11">
     <g id="line2d_23">
      <path clip-path="url(#p84c29d843b)" d="M 113.165441 376.56 
L 113.165441 228.305455 
" style="fill:none;stroke:#ffffff;stroke-linecap:round;"/>
     </g>
     <g id="text_10">
      <!-- 0.5 -->
      <g style="fill:#262626;" transform="translate(104.418722 394.418281)scale(0.11 -0.11)">
       <use xlink:href="#DejaVuSans-48"/>
       <use x="63.623047" xlink:href="#DejaVuSans-46"/>
       <use x="95.410156" xlink:href="#DejaVuSans-53"/>
      </g>
     </g>
    </g>
    <g id="xtick_12">
     <g id="line2d_24">
      <path clip-path="url(#p84c29d843b)" d="M 180.304479 376.56 
L 180.304479 228.305455 
" style="fill:none;stroke:#ffffff;stroke-linecap:round;"/>
     </g>
     <g id="text_11">
      <!-- 1.0 -->
      <g style="fill:#262626;" transform="translate(171.55776 394.418281)scale(0.11 -0.11)">
       <use xlink:href="#DejaVuSans-49"/>
       <use x="63.623047" xlink:href="#DejaVuSans-46"/>
       <use x="95.410156" xlink:href="#DejaVuSans-48"/>
      </g>
     </g>
    </g>
    <g id="text_12">
     <!-- $\theta$ -->
     <defs>
      <path d="M 45.515625 34.671875 
L 14.453125 34.671875 
Q 12.359375 20.0625 14.5 13.875 
Q 17.1875 6.25 24.46875 6.25 
Q 31.78125 6.25 37.359375 13.921875 
Q 42.234375 20.65625 45.515625 34.671875 
z
M 47.015625 42.96875 
Q 48.34375 56.84375 46.625 61.71875 
Q 43.953125 69.4375 36.765625 69.4375 
Q 29.296875 69.4375 23.828125 61.8125 
Q 19.53125 55.671875 16.15625 42.96875 
z
M 38.1875 76.765625 
Q 49.90625 76.765625 54.59375 66.40625 
Q 59.28125 56.109375 55.71875 37.84375 
Q 52.203125 19.625 43.453125 9.28125 
Q 34.765625 -1.125 23.046875 -1.125 
Q 11.28125 -1.125 6.640625 9.28125 
Q 2 19.625 5.515625 37.84375 
Q 9.078125 56.109375 17.71875 66.40625 
Q 26.421875 76.765625 38.1875 76.765625 
z
" id="DejaVuSans-Oblique-952"/>
     </defs>
     <g style="fill:#262626;" transform="translate(109.445441 409.824062)scale(0.12 -0.12)">
      <use transform="translate(0 0.234375)" xlink:href="#DejaVuSans-Oblique-952"/>
     </g>
    </g>
   </g>
   <g id="matplotlib.axis_8">
    <g id="ytick_13">
     <g id="line2d_25">
      <path clip-path="url(#p84c29d843b)" d="M 39.3125 369.821157 
L 187.018382 369.821157 
" style="fill:none;stroke:#ffffff;stroke-linecap:round;"/>
     </g>
     <g id="text_13">
      <!-- 0 -->
      <g style="fill:#262626;" transform="translate(22.81375 374.000298)scale(0.11 -0.11)">
       <use xlink:href="#DejaVuSans-48"/>
      </g>
     </g>
    </g>
    <g id="ytick_14">
     <g id="line2d_26">
      <path clip-path="url(#p84c29d843b)" d="M 39.3125 331.65269 
L 187.018382 331.65269 
" style="fill:none;stroke:#ffffff;stroke-linecap:round;"/>
     </g>
     <g id="text_14">
      <!-- 1 -->
      <g style="fill:#262626;" transform="translate(22.81375 335.831831)scale(0.11 -0.11)">
       <use xlink:href="#DejaVuSans-49"/>
      </g>
     </g>
    </g>
    <g id="ytick_15">
     <g id="line2d_27">
      <path clip-path="url(#p84c29d843b)" d="M 39.3125 293.484223 
L 187.018382 293.484223 
" style="fill:none;stroke:#ffffff;stroke-linecap:round;"/>
     </g>
     <g id="text_15">
      <!-- 2 -->
      <g style="fill:#262626;" transform="translate(22.81375 297.663364)scale(0.11 -0.11)">
       <use xlink:href="#DejaVuSans-50"/>
      </g>
     </g>
    </g>
    <g id="ytick_16">
     <g id="line2d_28">
      <path clip-path="url(#p84c29d843b)" d="M 39.3125 255.315757 
L 187.018382 255.315757 
" style="fill:none;stroke:#ffffff;stroke-linecap:round;"/>
     </g>
     <g id="text_16">
      <!-- 3 -->
      <g style="fill:#262626;" transform="translate(22.81375 259.494897)scale(0.11 -0.11)">
       <use xlink:href="#DejaVuSans-51"/>
      </g>
     </g>
    </g>
    <g id="text_17">
     <!-- density -->
     <g style="fill:#262626;" transform="translate(16.318125 324.432102)rotate(-90)scale(0.12 -0.12)">
      <use xlink:href="#DejaVuSans-100"/>
      <use x="63.476562" xlink:href="#DejaVuSans-101"/>
      <use x="125" xlink:href="#DejaVuSans-110"/>
      <use x="188.378906" xlink:href="#DejaVuSans-115"/>
      <use x="240.478516" xlink:href="#DejaVuSans-105"/>
      <use x="268.261719" xlink:href="#DejaVuSans-116"/>
      <use x="307.470703" xlink:href="#DejaVuSans-121"/>
     </g>
    </g>
   </g>
   <g id="PolyCollection_4">
    <defs>
     <path d="M 46.026404 -49.69853 
L 46.026404 -49.69853 
L 47.369184 -51.965737 
L 48.711965 -54.187142 
L 50.054746 -56.362745 
L 51.397527 -58.492545 
L 52.740307 -60.576544 
L 54.083088 -62.61474 
L 55.425869 -64.607134 
L 56.76865 -66.553725 
L 58.11143 -68.454515 
L 59.454211 -70.309503 
L 60.796992 -72.118688 
L 62.139773 -73.882071 
L 63.482553 -75.599652 
L 64.825334 -77.271431 
L 66.168115 -78.897408 
L 67.510896 -80.477582 
L 68.853676 -82.011954 
L 70.196457 -83.500525 
L 71.539238 -84.943293 
L 72.882019 -86.340259 
L 74.224799 -87.691422 
L 75.56758 -88.996784 
L 76.910361 -90.256343 
L 78.253142 -91.470101 
L 79.595922 -92.638056 
L 80.938703 -93.760209 
L 82.281484 -94.836559 
L 83.624265 -95.867108 
L 84.967045 -96.851854 
L 86.309826 -97.790799 
L 87.652607 -98.683941 
L 88.995388 -99.531281 
L 90.338168 -100.332819 
L 91.680949 -101.088554 
L 93.02373 -101.798488 
L 94.366511 -102.462619 
L 95.709291 -103.080948 
L 97.052072 -103.653475 
L 98.394853 -104.1802 
L 99.737634 -104.661123 
L 101.080414 -105.096243 
L 102.423195 -105.485562 
L 103.765976 -105.829078 
L 105.108757 -106.126792 
L 106.451537 -106.378704 
L 107.794318 -106.584813 
L 109.137099 -106.745121 
L 110.47988 -106.859626 
L 111.82266 -106.92833 
L 113.165441 -106.951231 
L 114.508222 -106.92833 
L 115.851003 -106.859626 
L 117.193783 -106.745121 
L 118.536564 -106.584813 
L 119.879345 -106.378704 
L 121.222126 -106.126792 
L 122.564906 -105.829078 
L 123.907687 -105.485562 
L 125.250468 -105.096243 
L 126.593249 -104.661123 
L 127.936029 -104.1802 
L 129.27881 -103.653475 
L 130.621591 -103.080948 
L 131.964372 -102.462619 
L 133.307152 -101.798488 
L 134.649933 -101.088554 
L 135.992714 -100.332819 
L 137.335495 -99.531281 
L 138.678275 -98.683941 
L 140.021056 -97.790799 
L 141.363837 -96.851854 
L 142.706618 -95.867108 
L 144.049398 -94.836559 
L 145.392179 -93.760209 
L 146.73496 -92.638056 
L 148.077741 -91.470101 
L 149.420521 -90.256343 
L 150.763302 -88.996784 
L 152.106083 -87.691422 
L 153.448864 -86.340259 
L 154.791644 -84.943293 
L 156.134425 -83.500525 
L 157.477206 -82.011954 
L 158.819987 -80.477582 
L 160.162767 -78.897408 
L 161.505548 -77.271431 
L 162.848329 -75.599652 
L 164.19111 -73.882071 
L 165.53389 -72.118688 
L 166.876671 -70.309503 
L 168.219452 -68.454515 
L 169.562233 -66.553725 
L 170.905013 -64.607134 
L 172.247794 -62.61474 
L 173.590575 -60.576544 
L 174.933356 -58.492545 
L 176.276136 -56.362745 
L 177.618917 -54.187142 
L 178.961698 -51.965737 
L 180.304479 -49.69853 
L 180.304479 -49.69853 
L 180.304479 -49.69853 
L 178.961698 -49.69853 
L 177.618917 -49.69853 
L 176.276136 -49.69853 
L 174.933356 -49.69853 
L 173.590575 -49.69853 
L 172.247794 -49.69853 
L 170.905013 -49.69853 
L 169.562233 -49.69853 
L 168.219452 -49.69853 
L 166.876671 -49.69853 
L 165.53389 -49.69853 
L 164.19111 -49.69853 
L 162.848329 -49.69853 
L 161.505548 -49.69853 
L 160.162767 -49.69853 
L 158.819987 -49.69853 
L 157.477206 -49.69853 
L 156.134425 -49.69853 
L 154.791644 -49.69853 
L 153.448864 -49.69853 
L 152.106083 -49.69853 
L 150.763302 -49.69853 
L 149.420521 -49.69853 
L 148.077741 -49.69853 
L 146.73496 -49.69853 
L 145.392179 -49.69853 
L 144.049398 -49.69853 
L 142.706618 -49.69853 
L 141.363837 -49.69853 
L 140.021056 -49.69853 
L 138.678275 -49.69853 
L 137.335495 -49.69853 
L 135.992714 -49.69853 
L 134.649933 -49.69853 
L 133.307152 -49.69853 
L 131.964372 -49.69853 
L 130.621591 -49.69853 
L 129.27881 -49.69853 
L 127.936029 -49.69853 
L 126.593249 -49.69853 
L 125.250468 -49.69853 
L 123.907687 -49.69853 
L 122.564906 -49.69853 
L 121.222126 -49.69853 
L 119.879345 -49.69853 
L 118.536564 -49.69853 
L 117.193783 -49.69853 
L 115.851003 -49.69853 
L 114.508222 -49.69853 
L 113.165441 -49.69853 
L 111.82266 -49.69853 
L 110.47988 -49.69853 
L 109.137099 -49.69853 
L 107.794318 -49.69853 
L 106.451537 -49.69853 
L 105.108757 -49.69853 
L 103.765976 -49.69853 
L 102.423195 -49.69853 
L 101.080414 -49.69853 
L 99.737634 -49.69853 
L 98.394853 -49.69853 
L 97.052072 -49.69853 
L 95.709291 -49.69853 
L 94.366511 -49.69853 
L 93.02373 -49.69853 
L 91.680949 -49.69853 
L 90.338168 -49.69853 
L 88.995388 -49.69853 
L 87.652607 -49.69853 
L 86.309826 -49.69853 
L 84.967045 -49.69853 
L 83.624265 -49.69853 
L 82.281484 -49.69853 
L 80.938703 -49.69853 
L 79.595922 -49.69853 
L 78.253142 -49.69853 
L 76.910361 -49.69853 
L 75.56758 -49.69853 
L 74.224799 -49.69853 
L 72.882019 -49.69853 
L 71.539238 -49.69853 
L 70.196457 -49.69853 
L 68.853676 -49.69853 
L 67.510896 -49.69853 
L 66.168115 -49.69853 
L 64.825334 -49.69853 
L 63.482553 -49.69853 
L 62.139773 -49.69853 
L 60.796992 -49.69853 
L 59.454211 -49.69853 
L 58.11143 -49.69853 
L 56.76865 -49.69853 
L 55.425869 -49.69853 
L 54.083088 -49.69853 
L 52.740307 -49.69853 
L 51.397527 -49.69853 
L 50.054746 -49.69853 
L 48.711965 -49.69853 
L 47.369184 -49.69853 
L 46.026404 -49.69853 
z
" id="mad161a3b7c" style="stroke:#ffffff;"/>
    </defs>
    <g clip-path="url(#p84c29d843b)">
     <use style="fill:#4c72b0;stroke:#ffffff;" x="0" xlink:href="#mad161a3b7c" y="419.519687"/>
    </g>
   </g>
   <g id="patch_18">
    <path d="M 39.3125 376.56 
L 39.3125 228.305455 
" style="fill:none;stroke:#ffffff;stroke-linecap:square;stroke-linejoin:miter;stroke-width:1.25;"/>
   </g>
   <g id="patch_19">
    <path d="M 187.018382 376.56 
L 187.018382 228.305455 
" style="fill:none;stroke:#ffffff;stroke-linecap:square;stroke-linejoin:miter;stroke-width:1.25;"/>
   </g>
   <g id="patch_20">
    <path d="M 39.3125 376.56 
L 187.018382 376.56 
" style="fill:none;stroke:#ffffff;stroke-linecap:square;stroke-linejoin:miter;stroke-width:1.25;"/>
   </g>
   <g id="patch_21">
    <path d="M 39.3125 228.305455 
L 187.018382 228.305455 
" style="fill:none;stroke:#ffffff;stroke-linecap:square;stroke-linejoin:miter;stroke-width:1.25;"/>
   </g>
   <g id="text_18">
    <!-- $Beta(2, 2)$ -->
    <g style="fill:#262626;" transform="translate(83.885441 222.305455)scale(0.12 -0.12)">
     <use transform="translate(0 0.125)" xlink:href="#DejaVuSans-Oblique-66"/>
     <use transform="translate(68.603516 0.125)" xlink:href="#DejaVuSans-Oblique-101"/>
     <use transform="translate(130.126953 0.125)" xlink:href="#DejaVuSans-Oblique-116"/>
     <use transform="translate(169.335938 0.125)" xlink:href="#DejaVuSans-Oblique-97"/>
     <use transform="translate(230.615234 0.125)" xlink:href="#DejaVuSans-40"/>
     <use transform="translate(269.628906 0.125)" xlink:href="#DejaVuSans-50"/>
     <use transform="translate(333.251953 0.125)" xlink:href="#DejaVuSans-44"/>
     <use transform="translate(384.521484 0.125)" xlink:href="#DejaVuSans-50"/>
     <use transform="translate(448.144531 0.125)" xlink:href="#DejaVuSans-41"/>
    </g>
   </g>
  </g>
  <g id="axes_5">
   <g id="patch_22">
    <path d="M 216.559559 376.56 
L 364.265441 376.56 
L 364.265441 228.305455 
L 216.559559 228.305455 
z
" style="fill:#eaeaf2;"/>
   </g>
   <g id="matplotlib.axis_9">
    <g id="xtick_13">
     <g id="line2d_29">
      <path clip-path="url(#p045a35a8d0)" d="M 223.273463 376.56 
L 223.273463 228.305455 
" style="fill:none;stroke:#ffffff;stroke-linecap:round;"/>
     </g>
     <g id="text_19">
      <!-- 0.0 -->
      <g style="fill:#262626;" transform="translate(214.526744 394.418281)scale(0.11 -0.11)">
       <use xlink:href="#DejaVuSans-48"/>
       <use x="63.623047" xlink:href="#DejaVuSans-46"/>
       <use x="95.410156" xlink:href="#DejaVuSans-48"/>
      </g>
     </g>
    </g>
    <g id="xtick_14">
     <g id="line2d_30">
      <path clip-path="url(#p045a35a8d0)" d="M 290.4125 376.56 
L 290.4125 228.305455 
" style="fill:none;stroke:#ffffff;stroke-linecap:round;"/>
     </g>
     <g id="text_20">
      <!-- 0.5 -->
      <g style="fill:#262626;" transform="translate(281.665781 394.418281)scale(0.11 -0.11)">
       <use xlink:href="#DejaVuSans-48"/>
       <use x="63.623047" xlink:href="#DejaVuSans-46"/>
       <use x="95.410156" xlink:href="#DejaVuSans-53"/>
      </g>
     </g>
    </g>
    <g id="xtick_15">
     <g id="line2d_31">
      <path clip-path="url(#p045a35a8d0)" d="M 357.551537 376.56 
L 357.551537 228.305455 
" style="fill:none;stroke:#ffffff;stroke-linecap:round;"/>
     </g>
     <g id="text_21">
      <!-- 1.0 -->
      <g style="fill:#262626;" transform="translate(348.804819 394.418281)scale(0.11 -0.11)">
       <use xlink:href="#DejaVuSans-49"/>
       <use x="63.623047" xlink:href="#DejaVuSans-46"/>
       <use x="95.410156" xlink:href="#DejaVuSans-48"/>
      </g>
     </g>
    </g>
    <g id="text_22">
     <!-- $\theta$ -->
     <g style="fill:#262626;" transform="translate(286.6925 409.824062)scale(0.12 -0.12)">
      <use transform="translate(0 0.234375)" xlink:href="#DejaVuSans-Oblique-952"/>
     </g>
    </g>
   </g>
   <g id="matplotlib.axis_10">
    <g id="ytick_17">
     <g id="line2d_32">
      <path clip-path="url(#p045a35a8d0)" d="M 216.559559 369.821157 
L 364.265441 369.821157 
" style="fill:none;stroke:#ffffff;stroke-linecap:round;"/>
     </g>
    </g>
    <g id="ytick_18">
     <g id="line2d_33">
      <path clip-path="url(#p045a35a8d0)" d="M 216.559559 331.65269 
L 364.265441 331.65269 
" style="fill:none;stroke:#ffffff;stroke-linecap:round;"/>
     </g>
    </g>
    <g id="ytick_19">
     <g id="line2d_34">
      <path clip-path="url(#p045a35a8d0)" d="M 216.559559 293.484223 
L 364.265441 293.484223 
" style="fill:none;stroke:#ffffff;stroke-linecap:round;"/>
     </g>
    </g>
    <g id="ytick_20">
     <g id="line2d_35">
      <path clip-path="url(#p045a35a8d0)" d="M 216.559559 255.315757 
L 364.265441 255.315757 
" style="fill:none;stroke:#ffffff;stroke-linecap:round;"/>
     </g>
    </g>
   </g>
   <g id="PolyCollection_5">
    <defs>
     <path d="M 223.273463 -49.69853 
L 223.273463 -49.69853 
L 224.616243 -49.698761 
L 225.959024 -49.702079 
L 227.301805 -49.715774 
L 228.644586 -49.750815 
L 229.987366 -49.820941 
L 231.330147 -49.941841 
L 232.672928 -50.130417 
L 234.015709 -50.404127 
L 235.358489 -50.780415 
L 236.70127 -51.276197 
L 238.044051 -51.90743 
L 239.386832 -52.688735 
L 240.729612 -53.633086 
L 242.072393 -54.751553 
L 243.415174 -56.053098 
L 244.757955 -57.544423 
L 246.100735 -59.229856 
L 247.443516 -61.111291 
L 248.786297 -63.188151 
L 250.129078 -65.457405 
L 251.471858 -67.913599 
L 252.814639 -70.548931 
L 254.15742 -73.353343 
L 255.500201 -76.314642 
L 256.842981 -79.418636 
L 258.185762 -82.649298 
L 259.528543 -85.988931 
L 260.871324 -89.41836 
L 262.214104 -92.917126 
L 263.556885 -96.463693 
L 264.899666 -100.035655 
L 266.242447 -103.609958 
L 267.585227 -107.16311 
L 268.928008 -110.671406 
L 270.270789 -114.111136 
L 271.61357 -117.458806 
L 272.95635 -120.691339 
L 274.299131 -123.786281 
L 275.641912 -126.721992 
L 276.984693 -129.477832 
L 278.327473 -132.034336 
L 279.670254 -134.373374 
L 281.013035 -136.478303 
L 282.355816 -138.334108 
L 283.698596 -139.927517 
L 285.041377 -141.247114 
L 286.384158 -142.283433 
L 287.726939 -143.02903 
L 289.069719 -143.478544 
L 290.4125 -143.628742 
L 291.755281 -143.478544 
L 293.098061 -143.02903 
L 294.440842 -142.283433 
L 295.783623 -141.247114 
L 297.126404 -139.927517 
L 298.469184 -138.334108 
L 299.811965 -136.478303 
L 301.154746 -134.373374 
L 302.497527 -132.034336 
L 303.840307 -129.477832 
L 305.183088 -126.721992 
L 306.525869 -123.786281 
L 307.86865 -120.691339 
L 309.21143 -117.458806 
L 310.554211 -114.111136 
L 311.896992 -110.671406 
L 313.239773 -107.16311 
L 314.582553 -103.609958 
L 315.925334 -100.035655 
L 317.268115 -96.463693 
L 318.610896 -92.917126 
L 319.953676 -89.41836 
L 321.296457 -85.988931 
L 322.639238 -82.649298 
L 323.982019 -79.418636 
L 325.324799 -76.314642 
L 326.66758 -73.353343 
L 328.010361 -70.548931 
L 329.353142 -67.913599 
L 330.695922 -65.457405 
L 332.038703 -63.188151 
L 333.381484 -61.111291 
L 334.724265 -59.229856 
L 336.067045 -57.544423 
L 337.409826 -56.053098 
L 338.752607 -54.751553 
L 340.095388 -53.633086 
L 341.438168 -52.688735 
L 342.780949 -51.90743 
L 344.12373 -51.276197 
L 345.466511 -50.780415 
L 346.809291 -50.404127 
L 348.152072 -50.130417 
L 349.494853 -49.941841 
L 350.837634 -49.820941 
L 352.180414 -49.750815 
L 353.523195 -49.715774 
L 354.865976 -49.702079 
L 356.208757 -49.698761 
L 357.551537 -49.69853 
L 357.551537 -49.69853 
L 357.551537 -49.69853 
L 356.208757 -49.69853 
L 354.865976 -49.69853 
L 353.523195 -49.69853 
L 352.180414 -49.69853 
L 350.837634 -49.69853 
L 349.494853 -49.69853 
L 348.152072 -49.69853 
L 346.809291 -49.69853 
L 345.466511 -49.69853 
L 344.12373 -49.69853 
L 342.780949 -49.69853 
L 341.438168 -49.69853 
L 340.095388 -49.69853 
L 338.752607 -49.69853 
L 337.409826 -49.69853 
L 336.067045 -49.69853 
L 334.724265 -49.69853 
L 333.381484 -49.69853 
L 332.038703 -49.69853 
L 330.695922 -49.69853 
L 329.353142 -49.69853 
L 328.010361 -49.69853 
L 326.66758 -49.69853 
L 325.324799 -49.69853 
L 323.982019 -49.69853 
L 322.639238 -49.69853 
L 321.296457 -49.69853 
L 319.953676 -49.69853 
L 318.610896 -49.69853 
L 317.268115 -49.69853 
L 315.925334 -49.69853 
L 314.582553 -49.69853 
L 313.239773 -49.69853 
L 311.896992 -49.69853 
L 310.554211 -49.69853 
L 309.21143 -49.69853 
L 307.86865 -49.69853 
L 306.525869 -49.69853 
L 305.183088 -49.69853 
L 303.840307 -49.69853 
L 302.497527 -49.69853 
L 301.154746 -49.69853 
L 299.811965 -49.69853 
L 298.469184 -49.69853 
L 297.126404 -49.69853 
L 295.783623 -49.69853 
L 294.440842 -49.69853 
L 293.098061 -49.69853 
L 291.755281 -49.69853 
L 290.4125 -49.69853 
L 289.069719 -49.69853 
L 287.726939 -49.69853 
L 286.384158 -49.69853 
L 285.041377 -49.69853 
L 283.698596 -49.69853 
L 282.355816 -49.69853 
L 281.013035 -49.69853 
L 279.670254 -49.69853 
L 278.327473 -49.69853 
L 276.984693 -49.69853 
L 275.641912 -49.69853 
L 274.299131 -49.69853 
L 272.95635 -49.69853 
L 271.61357 -49.69853 
L 270.270789 -49.69853 
L 268.928008 -49.69853 
L 267.585227 -49.69853 
L 266.242447 -49.69853 
L 264.899666 -49.69853 
L 263.556885 -49.69853 
L 262.214104 -49.69853 
L 260.871324 -49.69853 
L 259.528543 -49.69853 
L 258.185762 -49.69853 
L 256.842981 -49.69853 
L 255.500201 -49.69853 
L 254.15742 -49.69853 
L 252.814639 -49.69853 
L 251.471858 -49.69853 
L 250.129078 -49.69853 
L 248.786297 -49.69853 
L 247.443516 -49.69853 
L 246.100735 -49.69853 
L 244.757955 -49.69853 
L 243.415174 -49.69853 
L 242.072393 -49.69853 
L 240.729612 -49.69853 
L 239.386832 -49.69853 
L 238.044051 -49.69853 
L 236.70127 -49.69853 
L 235.358489 -49.69853 
L 234.015709 -49.69853 
L 232.672928 -49.69853 
L 231.330147 -49.69853 
L 229.987366 -49.69853 
L 228.644586 -49.69853 
L 227.301805 -49.69853 
L 225.959024 -49.69853 
L 224.616243 -49.69853 
L 223.273463 -49.69853 
z
" id="mefa089e7cc" style="stroke:#ffffff;"/>
    </defs>
    <g clip-path="url(#p045a35a8d0)">
     <use style="fill:#4c72b0;stroke:#ffffff;" x="0" xlink:href="#mefa089e7cc" y="419.519687"/>
    </g>
   </g>
   <g id="patch_23">
    <path d="M 216.559559 376.56 
L 216.559559 228.305455 
" style="fill:none;stroke:#ffffff;stroke-linecap:square;stroke-linejoin:miter;stroke-width:1.25;"/>
   </g>
   <g id="patch_24">
    <path d="M 364.265441 376.56 
L 364.265441 228.305455 
" style="fill:none;stroke:#ffffff;stroke-linecap:square;stroke-linejoin:miter;stroke-width:1.25;"/>
   </g>
   <g id="patch_25">
    <path d="M 216.559559 376.56 
L 364.265441 376.56 
" style="fill:none;stroke:#ffffff;stroke-linecap:square;stroke-linejoin:miter;stroke-width:1.25;"/>
   </g>
   <g id="patch_26">
    <path d="M 216.559559 228.305455 
L 364.265441 228.305455 
" style="fill:none;stroke:#ffffff;stroke-linecap:square;stroke-linejoin:miter;stroke-width:1.25;"/>
   </g>
   <g id="text_23">
    <!-- $Beta(5, 5)$ -->
    <g style="fill:#262626;" transform="translate(261.1325 222.305455)scale(0.12 -0.12)">
     <use transform="translate(0 0.125)" xlink:href="#DejaVuSans-Oblique-66"/>
     <use transform="translate(68.603516 0.125)" xlink:href="#DejaVuSans-Oblique-101"/>
     <use transform="translate(130.126953 0.125)" xlink:href="#DejaVuSans-Oblique-116"/>
     <use transform="translate(169.335938 0.125)" xlink:href="#DejaVuSans-Oblique-97"/>
     <use transform="translate(230.615234 0.125)" xlink:href="#DejaVuSans-40"/>
     <use transform="translate(269.628906 0.125)" xlink:href="#DejaVuSans-53"/>
     <use transform="translate(333.251953 0.125)" xlink:href="#DejaVuSans-44"/>
     <use transform="translate(384.521484 0.125)" xlink:href="#DejaVuSans-53"/>
     <use transform="translate(448.144531 0.125)" xlink:href="#DejaVuSans-41"/>
    </g>
   </g>
  </g>
  <g id="axes_6">
   <g id="patch_27">
    <path d="M 393.806618 376.56 
L 541.5125 376.56 
L 541.5125 228.305455 
L 393.806618 228.305455 
z
" style="fill:#eaeaf2;"/>
   </g>
   <g id="matplotlib.axis_11">
    <g id="xtick_16">
     <g id="line2d_36">
      <path clip-path="url(#pd213373a9f)" d="M 400.520521 376.56 
L 400.520521 228.305455 
" style="fill:none;stroke:#ffffff;stroke-linecap:round;"/>
     </g>
     <g id="text_24">
      <!-- 0.0 -->
      <g style="fill:#262626;" transform="translate(391.773803 394.418281)scale(0.11 -0.11)">
       <use xlink:href="#DejaVuSans-48"/>
       <use x="63.623047" xlink:href="#DejaVuSans-46"/>
       <use x="95.410156" xlink:href="#DejaVuSans-48"/>
      </g>
     </g>
    </g>
    <g id="xtick_17">
     <g id="line2d_37">
      <path clip-path="url(#pd213373a9f)" d="M 467.659559 376.56 
L 467.659559 228.305455 
" style="fill:none;stroke:#ffffff;stroke-linecap:round;"/>
     </g>
     <g id="text_25">
      <!-- 0.5 -->
      <g style="fill:#262626;" transform="translate(458.91284 394.418281)scale(0.11 -0.11)">
       <use xlink:href="#DejaVuSans-48"/>
       <use x="63.623047" xlink:href="#DejaVuSans-46"/>
       <use x="95.410156" xlink:href="#DejaVuSans-53"/>
      </g>
     </g>
    </g>
    <g id="xtick_18">
     <g id="line2d_38">
      <path clip-path="url(#pd213373a9f)" d="M 534.798596 376.56 
L 534.798596 228.305455 
" style="fill:none;stroke:#ffffff;stroke-linecap:round;"/>
     </g>
     <g id="text_26">
      <!-- 1.0 -->
      <g style="fill:#262626;" transform="translate(526.051878 394.418281)scale(0.11 -0.11)">
       <use xlink:href="#DejaVuSans-49"/>
       <use x="63.623047" xlink:href="#DejaVuSans-46"/>
       <use x="95.410156" xlink:href="#DejaVuSans-48"/>
      </g>
     </g>
    </g>
    <g id="text_27">
     <!-- $\theta$ -->
     <g style="fill:#262626;" transform="translate(463.939559 409.824062)scale(0.12 -0.12)">
      <use transform="translate(0 0.234375)" xlink:href="#DejaVuSans-Oblique-952"/>
     </g>
    </g>
   </g>
   <g id="matplotlib.axis_12">
    <g id="ytick_21">
     <g id="line2d_39">
      <path clip-path="url(#pd213373a9f)" d="M 393.806618 369.821157 
L 541.5125 369.821157 
" style="fill:none;stroke:#ffffff;stroke-linecap:round;"/>
     </g>
    </g>
    <g id="ytick_22">
     <g id="line2d_40">
      <path clip-path="url(#pd213373a9f)" d="M 393.806618 331.65269 
L 541.5125 331.65269 
" style="fill:none;stroke:#ffffff;stroke-linecap:round;"/>
     </g>
    </g>
    <g id="ytick_23">
     <g id="line2d_41">
      <path clip-path="url(#pd213373a9f)" d="M 393.806618 293.484223 
L 541.5125 293.484223 
" style="fill:none;stroke:#ffffff;stroke-linecap:round;"/>
     </g>
    </g>
    <g id="ytick_24">
     <g id="line2d_42">
      <path clip-path="url(#pd213373a9f)" d="M 393.806618 255.315757 
L 541.5125 255.315757 
" style="fill:none;stroke:#ffffff;stroke-linecap:round;"/>
     </g>
    </g>
   </g>
   <g id="PolyCollection_6">
    <defs>
     <path d="M 400.520521 -49.69853 
L 400.520521 -49.69853 
L 401.863302 -75.312894 
L 403.206083 -97.41296 
L 404.548864 -116.311778 
L 405.891644 -132.301533 
L 407.234425 -145.654601 
L 408.577206 -156.624559 
L 409.919987 -165.447169 
L 411.262767 -172.341312 
L 412.605548 -177.509894 
L 413.948329 -181.140718 
L 415.29111 -183.407316 
L 416.63389 -184.469751 
L 417.976671 -184.47539 
L 419.319452 -183.559636 
L 420.662233 -181.846639 
L 422.005013 -179.449974 
L 423.347794 -176.473285 
L 424.690575 -173.010912 
L 426.033356 -169.148473 
L 427.376136 -164.963441 
L 428.718917 -160.525675 
L 430.061698 -155.897942 
L 431.404479 -151.136401 
L 432.747259 -146.291073 
L 434.09004 -141.406286 
L 435.432821 -136.521093 
L 436.775602 -131.669675 
L 438.118382 -126.881719 
L 439.461163 -122.182781 
L 440.803944 -117.594618 
L 442.146725 -113.135516 
L 443.489505 -108.820593 
L 444.832286 -104.66208 
L 446.175067 -100.669592 
L 447.517848 -96.850382 
L 448.860628 -93.209577 
L 450.203409 -89.750399 
L 451.54619 -86.474373 
L 452.888971 -83.381523 
L 454.231751 -80.470547 
L 455.574532 -77.738992 
L 456.917313 -75.183403 
L 458.260094 -72.799471 
L 459.602874 -70.582165 
L 460.945655 -68.525853 
L 462.288436 -66.624415 
L 463.631217 -64.871345 
L 464.973997 -63.259847 
L 466.316778 -61.782915 
L 467.659559 -60.433412 
L 469.00234 -59.20414 
L 470.34512 -58.087898 
L 471.687901 -57.07754 
L 473.030682 -56.166021 
L 474.373463 -55.346437 
L 475.716243 -54.612065 
L 477.059024 -53.956389 
L 478.401805 -53.373132 
L 479.744586 -52.856269 
L 481.087366 -52.400052 
L 482.430147 -51.999015 
L 483.772928 -51.647989 
L 485.115709 -51.342107 
L 486.458489 -51.076802 
L 487.80127 -50.847813 
L 489.144051 -50.651181 
L 490.486832 -50.483241 
L 491.829612 -50.340621 
L 493.172393 -50.220227 
L 494.515174 -50.119242 
L 495.857955 -50.035105 
L 497.200735 -49.965509 
L 498.543516 -49.908379 
L 499.886297 -49.861867 
L 501.229078 -49.82433 
L 502.571858 -49.794323 
L 503.914639 -49.770579 
L 505.25742 -49.751998 
L 506.600201 -49.737633 
L 507.942981 -49.726671 
L 509.285762 -49.718428 
L 510.628543 -49.712327 
L 511.971324 -49.70789 
L 513.314104 -49.704727 
L 514.656885 -49.702522 
L 515.999666 -49.701022 
L 517.342447 -49.700031 
L 518.685227 -49.699397 
L 520.028008 -49.699007 
L 521.370789 -49.698778 
L 522.71357 -49.69865 
L 524.05635 -49.698583 
L 525.399131 -49.698552 
L 526.741912 -49.698538 
L 528.084693 -49.698533 
L 529.427473 -49.698531 
L 530.770254 -49.698531 
L 532.113035 -49.69853 
L 533.455816 -49.69853 
L 534.798596 -49.69853 
L 534.798596 -49.69853 
L 534.798596 -49.69853 
L 533.455816 -49.69853 
L 532.113035 -49.69853 
L 530.770254 -49.69853 
L 529.427473 -49.69853 
L 528.084693 -49.69853 
L 526.741912 -49.69853 
L 525.399131 -49.69853 
L 524.05635 -49.69853 
L 522.71357 -49.69853 
L 521.370789 -49.69853 
L 520.028008 -49.69853 
L 518.685227 -49.69853 
L 517.342447 -49.69853 
L 515.999666 -49.69853 
L 514.656885 -49.69853 
L 513.314104 -49.69853 
L 511.971324 -49.69853 
L 510.628543 -49.69853 
L 509.285762 -49.69853 
L 507.942981 -49.69853 
L 506.600201 -49.69853 
L 505.25742 -49.69853 
L 503.914639 -49.69853 
L 502.571858 -49.69853 
L 501.229078 -49.69853 
L 499.886297 -49.69853 
L 498.543516 -49.69853 
L 497.200735 -49.69853 
L 495.857955 -49.69853 
L 494.515174 -49.69853 
L 493.172393 -49.69853 
L 491.829612 -49.69853 
L 490.486832 -49.69853 
L 489.144051 -49.69853 
L 487.80127 -49.69853 
L 486.458489 -49.69853 
L 485.115709 -49.69853 
L 483.772928 -49.69853 
L 482.430147 -49.69853 
L 481.087366 -49.69853 
L 479.744586 -49.69853 
L 478.401805 -49.69853 
L 477.059024 -49.69853 
L 475.716243 -49.69853 
L 474.373463 -49.69853 
L 473.030682 -49.69853 
L 471.687901 -49.69853 
L 470.34512 -49.69853 
L 469.00234 -49.69853 
L 467.659559 -49.69853 
L 466.316778 -49.69853 
L 464.973997 -49.69853 
L 463.631217 -49.69853 
L 462.288436 -49.69853 
L 460.945655 -49.69853 
L 459.602874 -49.69853 
L 458.260094 -49.69853 
L 456.917313 -49.69853 
L 455.574532 -49.69853 
L 454.231751 -49.69853 
L 452.888971 -49.69853 
L 451.54619 -49.69853 
L 450.203409 -49.69853 
L 448.860628 -49.69853 
L 447.517848 -49.69853 
L 446.175067 -49.69853 
L 444.832286 -49.69853 
L 443.489505 -49.69853 
L 442.146725 -49.69853 
L 440.803944 -49.69853 
L 439.461163 -49.69853 
L 438.118382 -49.69853 
L 436.775602 -49.69853 
L 435.432821 -49.69853 
L 434.09004 -49.69853 
L 432.747259 -49.69853 
L 431.404479 -49.69853 
L 430.061698 -49.69853 
L 428.718917 -49.69853 
L 427.376136 -49.69853 
L 426.033356 -49.69853 
L 424.690575 -49.69853 
L 423.347794 -49.69853 
L 422.005013 -49.69853 
L 420.662233 -49.69853 
L 419.319452 -49.69853 
L 417.976671 -49.69853 
L 416.63389 -49.69853 
L 415.29111 -49.69853 
L 413.948329 -49.69853 
L 412.605548 -49.69853 
L 411.262767 -49.69853 
L 409.919987 -49.69853 
L 408.577206 -49.69853 
L 407.234425 -49.69853 
L 405.891644 -49.69853 
L 404.548864 -49.69853 
L 403.206083 -49.69853 
L 401.863302 -49.69853 
L 400.520521 -49.69853 
z
" id="m80eb6a97a2" style="stroke:#ffffff;"/>
    </defs>
    <g clip-path="url(#pd213373a9f)">
     <use style="fill:#4c72b0;stroke:#ffffff;" x="0" xlink:href="#m80eb6a97a2" y="419.519687"/>
    </g>
   </g>
   <g id="patch_28">
    <path d="M 393.806618 376.56 
L 393.806618 228.305455 
" style="fill:none;stroke:#ffffff;stroke-linecap:square;stroke-linejoin:miter;stroke-width:1.25;"/>
   </g>
   <g id="patch_29">
    <path d="M 541.5125 376.56 
L 541.5125 228.305455 
" style="fill:none;stroke:#ffffff;stroke-linecap:square;stroke-linejoin:miter;stroke-width:1.25;"/>
   </g>
   <g id="patch_30">
    <path d="M 393.806618 376.56 
L 541.5125 376.56 
" style="fill:none;stroke:#ffffff;stroke-linecap:square;stroke-linejoin:miter;stroke-width:1.25;"/>
   </g>
   <g id="patch_31">
    <path d="M 393.806618 228.305455 
L 541.5125 228.305455 
" style="fill:none;stroke:#ffffff;stroke-linecap:square;stroke-linejoin:miter;stroke-width:1.25;"/>
   </g>
   <g id="text_28">
    <!-- $Beta(2, 8)$ -->
    <defs>
     <path d="M 31.78125 34.625 
Q 24.75 34.625 20.71875 30.859375 
Q 16.703125 27.09375 16.703125 20.515625 
Q 16.703125 13.921875 20.71875 10.15625 
Q 24.75 6.390625 31.78125 6.390625 
Q 38.8125 6.390625 42.859375 10.171875 
Q 46.921875 13.96875 46.921875 20.515625 
Q 46.921875 27.09375 42.890625 30.859375 
Q 38.875 34.625 31.78125 34.625 
z
M 21.921875 38.8125 
Q 15.578125 40.375 12.03125 44.71875 
Q 8.5 49.078125 8.5 55.328125 
Q 8.5 64.0625 14.71875 69.140625 
Q 20.953125 74.21875 31.78125 74.21875 
Q 42.671875 74.21875 48.875 69.140625 
Q 55.078125 64.0625 55.078125 55.328125 
Q 55.078125 49.078125 51.53125 44.71875 
Q 48 40.375 41.703125 38.8125 
Q 48.828125 37.15625 52.796875 32.3125 
Q 56.78125 27.484375 56.78125 20.515625 
Q 56.78125 9.90625 50.3125 4.234375 
Q 43.84375 -1.421875 31.78125 -1.421875 
Q 19.734375 -1.421875 13.25 4.234375 
Q 6.78125 9.90625 6.78125 20.515625 
Q 6.78125 27.484375 10.78125 32.3125 
Q 14.796875 37.15625 21.921875 38.8125 
z
M 18.3125 54.390625 
Q 18.3125 48.734375 21.84375 45.5625 
Q 25.390625 42.390625 31.78125 42.390625 
Q 38.140625 42.390625 41.71875 45.5625 
Q 45.3125 48.734375 45.3125 54.390625 
Q 45.3125 60.0625 41.71875 63.234375 
Q 38.140625 66.40625 31.78125 66.40625 
Q 25.390625 66.40625 21.84375 63.234375 
Q 18.3125 60.0625 18.3125 54.390625 
z
" id="DejaVuSans-56"/>
    </defs>
    <g style="fill:#262626;" transform="translate(438.379559 222.305455)scale(0.12 -0.12)">
     <use transform="translate(0 0.125)" xlink:href="#DejaVuSans-Oblique-66"/>
     <use transform="translate(68.603516 0.125)" xlink:href="#DejaVuSans-Oblique-101"/>
     <use transform="translate(130.126953 0.125)" xlink:href="#DejaVuSans-Oblique-116"/>
     <use transform="translate(169.335938 0.125)" xlink:href="#DejaVuSans-Oblique-97"/>
     <use transform="translate(230.615234 0.125)" xlink:href="#DejaVuSans-40"/>
     <use transform="translate(269.628906 0.125)" xlink:href="#DejaVuSans-50"/>
     <use transform="translate(333.251953 0.125)" xlink:href="#DejaVuSans-44"/>
     <use transform="translate(384.521484 0.125)" xlink:href="#DejaVuSans-56"/>
     <use transform="translate(448.144531 0.125)" xlink:href="#DejaVuSans-41"/>
    </g>
   </g>
  </g>
  <g id="text_29">
   <!-- Beta Examples -->
   <defs>
    <path d="M 19.671875 34.8125 
L 19.671875 8.109375 
L 35.5 8.109375 
Q 43.453125 8.109375 47.28125 11.40625 
Q 51.125 14.703125 51.125 21.484375 
Q 51.125 28.328125 47.28125 31.5625 
Q 43.453125 34.8125 35.5 34.8125 
z
M 19.671875 64.796875 
L 19.671875 42.828125 
L 34.28125 42.828125 
Q 41.5 42.828125 45.03125 45.53125 
Q 48.578125 48.25 48.578125 53.8125 
Q 48.578125 59.328125 45.03125 62.0625 
Q 41.5 64.796875 34.28125 64.796875 
z
M 9.8125 72.90625 
L 35.015625 72.90625 
Q 46.296875 72.90625 52.390625 68.21875 
Q 58.5 63.53125 58.5 54.890625 
Q 58.5 48.1875 55.375 44.234375 
Q 52.25 40.28125 46.1875 39.3125 
Q 53.46875 37.75 57.5 32.78125 
Q 61.53125 27.828125 61.53125 20.40625 
Q 61.53125 10.640625 54.890625 5.3125 
Q 48.25 0 35.984375 0 
L 9.8125 0 
z
" id="DejaVuSans-66"/>
    <path d="M 34.28125 27.484375 
Q 23.390625 27.484375 19.1875 25 
Q 14.984375 22.515625 14.984375 16.5 
Q 14.984375 11.71875 18.140625 8.90625 
Q 21.296875 6.109375 26.703125 6.109375 
Q 34.1875 6.109375 38.703125 11.40625 
Q 43.21875 16.703125 43.21875 25.484375 
L 43.21875 27.484375 
z
M 52.203125 31.203125 
L 52.203125 0 
L 43.21875 0 
L 43.21875 8.296875 
Q 40.140625 3.328125 35.546875 0.953125 
Q 30.953125 -1.421875 24.3125 -1.421875 
Q 15.921875 -1.421875 10.953125 3.296875 
Q 6 8.015625 6 15.921875 
Q 6 25.140625 12.171875 29.828125 
Q 18.359375 34.515625 30.609375 34.515625 
L 43.21875 34.515625 
L 43.21875 35.40625 
Q 43.21875 41.609375 39.140625 45 
Q 35.0625 48.390625 27.6875 48.390625 
Q 23 48.390625 18.546875 47.265625 
Q 14.109375 46.140625 10.015625 43.890625 
L 10.015625 52.203125 
Q 14.9375 54.109375 19.578125 55.046875 
Q 24.21875 56 28.609375 56 
Q 40.484375 56 46.34375 49.84375 
Q 52.203125 43.703125 52.203125 31.203125 
z
" id="DejaVuSans-97"/>
    <path id="DejaVuSans-32"/>
    <path d="M 9.8125 72.90625 
L 55.90625 72.90625 
L 55.90625 64.59375 
L 19.671875 64.59375 
L 19.671875 43.015625 
L 54.390625 43.015625 
L 54.390625 34.71875 
L 19.671875 34.71875 
L 19.671875 8.296875 
L 56.78125 8.296875 
L 56.78125 0 
L 9.8125 0 
z
" id="DejaVuSans-69"/>
    <path d="M 54.890625 54.6875 
L 35.109375 28.078125 
L 55.90625 0 
L 45.3125 0 
L 29.390625 21.484375 
L 13.484375 0 
L 2.875 0 
L 24.125 28.609375 
L 4.6875 54.6875 
L 15.28125 54.6875 
L 29.78125 35.203125 
L 44.28125 54.6875 
z
" id="DejaVuSans-120"/>
    <path d="M 52 44.1875 
Q 55.375 50.25 60.0625 53.125 
Q 64.75 56 71.09375 56 
Q 79.640625 56 84.28125 50.015625 
Q 88.921875 44.046875 88.921875 33.015625 
L 88.921875 0 
L 79.890625 0 
L 79.890625 32.71875 
Q 79.890625 40.578125 77.09375 44.375 
Q 74.3125 48.1875 68.609375 48.1875 
Q 61.625 48.1875 57.5625 43.546875 
Q 53.515625 38.921875 53.515625 30.90625 
L 53.515625 0 
L 44.484375 0 
L 44.484375 32.71875 
Q 44.484375 40.625 41.703125 44.40625 
Q 38.921875 48.1875 33.109375 48.1875 
Q 26.21875 48.1875 22.15625 43.53125 
Q 18.109375 38.875 18.109375 30.90625 
L 18.109375 0 
L 9.078125 0 
L 9.078125 54.6875 
L 18.109375 54.6875 
L 18.109375 46.1875 
Q 21.1875 51.21875 25.484375 53.609375 
Q 29.78125 56 35.6875 56 
Q 41.65625 56 45.828125 52.96875 
Q 50 49.953125 52 44.1875 
z
" id="DejaVuSans-109"/>
    <path d="M 18.109375 8.203125 
L 18.109375 -20.796875 
L 9.078125 -20.796875 
L 9.078125 54.6875 
L 18.109375 54.6875 
L 18.109375 46.390625 
Q 20.953125 51.265625 25.265625 53.625 
Q 29.59375 56 35.59375 56 
Q 45.5625 56 51.78125 48.09375 
Q 58.015625 40.1875 58.015625 27.296875 
Q 58.015625 14.40625 51.78125 6.484375 
Q 45.5625 -1.421875 35.59375 -1.421875 
Q 29.59375 -1.421875 25.265625 0.953125 
Q 20.953125 3.328125 18.109375 8.203125 
z
M 48.6875 27.296875 
Q 48.6875 37.203125 44.609375 42.84375 
Q 40.53125 48.484375 33.40625 48.484375 
Q 26.265625 48.484375 22.1875 42.84375 
Q 18.109375 37.203125 18.109375 27.296875 
Q 18.109375 17.390625 22.1875 11.75 
Q 26.265625 6.109375 33.40625 6.109375 
Q 40.53125 6.109375 44.609375 11.75 
Q 48.6875 17.390625 48.6875 27.296875 
z
" id="DejaVuSans-112"/>
    <path d="M 9.421875 75.984375 
L 18.40625 75.984375 
L 18.40625 0 
L 9.421875 0 
z
" id="DejaVuSans-108"/>
   </defs>
   <g style="fill:#262626;" transform="translate(237.410937 16.318125)scale(0.12 -0.12)">
    <use xlink:href="#DejaVuSans-66"/>
    <use x="68.603516" xlink:href="#DejaVuSans-101"/>
    <use x="130.126953" xlink:href="#DejaVuSans-116"/>
    <use x="169.335938" xlink:href="#DejaVuSans-97"/>
    <use x="230.615234" xlink:href="#DejaVuSans-32"/>
    <use x="262.402344" xlink:href="#DejaVuSans-69"/>
    <use x="325.585938" xlink:href="#DejaVuSans-120"/>
    <use x="384.765625" xlink:href="#DejaVuSans-97"/>
    <use x="446.044922" xlink:href="#DejaVuSans-109"/>
    <use x="543.457031" xlink:href="#DejaVuSans-112"/>
    <use x="606.933594" xlink:href="#DejaVuSans-108"/>
    <use x="634.716797" xlink:href="#DejaVuSans-101"/>
    <use x="696.240234" xlink:href="#DejaVuSans-115"/>
   </g>
  </g>
 </g>
 <defs>
  <clipPath id="pbc7a5eeb30">
   <rect height="148.254545" width="147.705882" x="39.3125" y="50.4"/>
  </clipPath>
  <clipPath id="pbd98786dd9">
   <rect height="148.254545" width="147.705882" x="216.559559" y="50.4"/>
  </clipPath>
  <clipPath id="p4854ec4801">
   <rect height="148.254545" width="147.705882" x="393.806618" y="50.4"/>
  </clipPath>
  <clipPath id="p84c29d843b">
   <rect height="148.254545" width="147.705882" x="39.3125" y="228.305455"/>
  </clipPath>
  <clipPath id="p045a35a8d0">
   <rect height="148.254545" width="147.705882" x="216.559559" y="228.305455"/>
  </clipPath>
  <clipPath id="pd213373a9f">
   <rect height="148.254545" width="147.705882" x="393.806618" y="228.305455"/>
  </clipPath>
 </defs>
</svg>
