<?xml version="1.0" encoding="utf-8" standalone="no"?>
<!DOCTYPE svg PUBLIC "-//W3C//DTD SVG 1.1//EN"
  "http://www.w3.org/Graphics/SVG/1.1/DTD/svg11.dtd">
<!-- Created with matplotlib (https://matplotlib.org/) -->
<svg height="245.639688pt" version="1.1" viewBox="0 0 400.635301 245.639688" width="400.635301pt" xmlns="http://www.w3.org/2000/svg" xmlns:xlink="http://www.w3.org/1999/xlink">
 <defs>
  <style type="text/css">
*{stroke-linecap:butt;stroke-linejoin:round;}
  </style>
 </defs>
 <g id="figure_1">
  <g id="patch_1">
   <path d="M 0 245.639688 
L 400.635301 245.639688 
L 400.635301 0 
L 0 0 
z
" style="fill:#ffffff;"/>
  </g>
  <g id="axes_1">
   <g id="patch_2">
    <path d="M 56.805937 202.68 
L 208.987756 202.68 
L 208.987756 39.6 
L 56.805937 39.6 
z
" style="fill:#eaeaf2;"/>
   </g>
   <g id="matplotlib.axis_1">
    <g id="xtick_1">
     <g id="line2d_1">
      <path clip-path="url(#p8d1d329e78)" d="M 63.723293 202.68 
L 63.723293 39.6 
" style="fill:none;stroke:#ffffff;stroke-linecap:round;"/>
     </g>
     <g id="text_1">
      <!-- 0.0 -->
      <defs>
       <path d="M 31.78125 66.40625 
Q 24.171875 66.40625 20.328125 58.90625 
Q 16.5 51.421875 16.5 36.375 
Q 16.5 21.390625 20.328125 13.890625 
Q 24.171875 6.390625 31.78125 6.390625 
Q 39.453125 6.390625 43.28125 13.890625 
Q 47.125 21.390625 47.125 36.375 
Q 47.125 51.421875 43.28125 58.90625 
Q 39.453125 66.40625 31.78125 66.40625 
z
M 31.78125 74.21875 
Q 44.046875 74.21875 50.515625 64.515625 
Q 56.984375 54.828125 56.984375 36.375 
Q 56.984375 17.96875 50.515625 8.265625 
Q 44.046875 -1.421875 31.78125 -1.421875 
Q 19.53125 -1.421875 13.0625 8.265625 
Q 6.59375 17.96875 6.59375 36.375 
Q 6.59375 54.828125 13.0625 64.515625 
Q 19.53125 74.21875 31.78125 74.21875 
z
" id="DejaVuSans-48"/>
       <path d="M 10.6875 12.40625 
L 21 12.40625 
L 21 0 
L 10.6875 0 
z
" id="DejaVuSans-46"/>
      </defs>
      <g style="fill:#262626;" transform="translate(54.976574 220.538281)scale(0.11 -0.11)">
       <use xlink:href="#DejaVuSans-48"/>
       <use x="63.623047" xlink:href="#DejaVuSans-46"/>
       <use x="95.410156" xlink:href="#DejaVuSans-48"/>
      </g>
     </g>
    </g>
    <g id="xtick_2">
     <g id="line2d_2">
      <path clip-path="url(#p8d1d329e78)" d="M 132.896847 202.68 
L 132.896847 39.6 
" style="fill:none;stroke:#ffffff;stroke-linecap:round;"/>
     </g>
     <g id="text_2">
      <!-- 0.5 -->
      <defs>
       <path d="M 10.796875 72.90625 
L 49.515625 72.90625 
L 49.515625 64.59375 
L 19.828125 64.59375 
L 19.828125 46.734375 
Q 21.96875 47.46875 24.109375 47.828125 
Q 26.265625 48.1875 28.421875 48.1875 
Q 40.625 48.1875 47.75 41.5 
Q 54.890625 34.8125 54.890625 23.390625 
Q 54.890625 11.625 47.5625 5.09375 
Q 40.234375 -1.421875 26.90625 -1.421875 
Q 22.3125 -1.421875 17.546875 -0.640625 
Q 12.796875 0.140625 7.71875 1.703125 
L 7.71875 11.625 
Q 12.109375 9.234375 16.796875 8.0625 
Q 21.484375 6.890625 26.703125 6.890625 
Q 35.15625 6.890625 40.078125 11.328125 
Q 45.015625 15.765625 45.015625 23.390625 
Q 45.015625 31 40.078125 35.4375 
Q 35.15625 39.890625 26.703125 39.890625 
Q 22.75 39.890625 18.8125 39.015625 
Q 14.890625 38.140625 10.796875 36.28125 
z
" id="DejaVuSans-53"/>
      </defs>
      <g style="fill:#262626;" transform="translate(124.150128 220.538281)scale(0.11 -0.11)">
       <use xlink:href="#DejaVuSans-48"/>
       <use x="63.623047" xlink:href="#DejaVuSans-46"/>
       <use x="95.410156" xlink:href="#DejaVuSans-53"/>
      </g>
     </g>
    </g>
    <g id="xtick_3">
     <g id="line2d_3">
      <path clip-path="url(#p8d1d329e78)" d="M 202.0704 202.68 
L 202.0704 39.6 
" style="fill:none;stroke:#ffffff;stroke-linecap:round;"/>
     </g>
     <g id="text_3">
      <!-- 1.0 -->
      <defs>
       <path d="M 12.40625 8.296875 
L 28.515625 8.296875 
L 28.515625 63.921875 
L 10.984375 60.40625 
L 10.984375 69.390625 
L 28.421875 72.90625 
L 38.28125 72.90625 
L 38.28125 8.296875 
L 54.390625 8.296875 
L 54.390625 0 
L 12.40625 0 
z
" id="DejaVuSans-49"/>
      </defs>
      <g style="fill:#262626;" transform="translate(193.323682 220.538281)scale(0.11 -0.11)">
       <use xlink:href="#DejaVuSans-49"/>
       <use x="63.623047" xlink:href="#DejaVuSans-46"/>
       <use x="95.410156" xlink:href="#DejaVuSans-48"/>
      </g>
     </g>
    </g>
    <g id="text_4">
     <!-- $\theta$ -->
     <defs>
      <path d="M 45.515625 34.671875 
L 14.453125 34.671875 
Q 12.359375 20.0625 14.5 13.875 
Q 17.1875 6.25 24.46875 6.25 
Q 31.78125 6.25 37.359375 13.921875 
Q 42.234375 20.65625 45.515625 34.671875 
z
M 47.015625 42.96875 
Q 48.34375 56.84375 46.625 61.71875 
Q 43.953125 69.4375 36.765625 69.4375 
Q 29.296875 69.4375 23.828125 61.8125 
Q 19.53125 55.671875 16.15625 42.96875 
z
M 38.1875 76.765625 
Q 49.90625 76.765625 54.59375 66.40625 
Q 59.28125 56.109375 55.71875 37.84375 
Q 52.203125 19.625 43.453125 9.28125 
Q 34.765625 -1.125 23.046875 -1.125 
Q 11.28125 -1.125 6.640625 9.28125 
Q 2 19.625 5.515625 37.84375 
Q 9.078125 56.109375 17.71875 66.40625 
Q 26.421875 76.765625 38.1875 76.765625 
z
" id="DejaVuSans-Oblique-952"/>
     </defs>
     <g style="fill:#262626;" transform="translate(129.176847 235.944063)scale(0.12 -0.12)">
      <use transform="translate(0 0.234375)" xlink:href="#DejaVuSans-Oblique-952"/>
     </g>
    </g>
   </g>
   <g id="matplotlib.axis_2">
    <g id="ytick_1">
     <g id="line2d_4">
      <path clip-path="url(#p8d1d329e78)" d="M 56.805937 195.267273 
L 208.987756 195.267273 
" style="fill:none;stroke:#ffffff;stroke-linecap:round;"/>
     </g>
     <g id="text_5">
      <!-- 0.00 -->
      <g style="fill:#262626;" transform="translate(22.81375 199.446413)scale(0.11 -0.11)">
       <use xlink:href="#DejaVuSans-48"/>
       <use x="63.623047" xlink:href="#DejaVuSans-46"/>
       <use x="95.410156" xlink:href="#DejaVuSans-48"/>
       <use x="159.033203" xlink:href="#DejaVuSans-48"/>
      </g>
     </g>
    </g>
    <g id="ytick_2">
     <g id="line2d_5">
      <path clip-path="url(#p8d1d329e78)" d="M 56.805937 163.86911 
L 208.987756 163.86911 
" style="fill:none;stroke:#ffffff;stroke-linecap:round;"/>
     </g>
     <g id="text_6">
      <!-- 0.05 -->
      <g style="fill:#262626;" transform="translate(22.81375 168.048251)scale(0.11 -0.11)">
       <use xlink:href="#DejaVuSans-48"/>
       <use x="63.623047" xlink:href="#DejaVuSans-46"/>
       <use x="95.410156" xlink:href="#DejaVuSans-48"/>
       <use x="159.033203" xlink:href="#DejaVuSans-53"/>
      </g>
     </g>
    </g>
    <g id="ytick_3">
     <g id="line2d_6">
      <path clip-path="url(#p8d1d329e78)" d="M 56.805937 132.470948 
L 208.987756 132.470948 
" style="fill:none;stroke:#ffffff;stroke-linecap:round;"/>
     </g>
     <g id="text_7">
      <!-- 0.10 -->
      <g style="fill:#262626;" transform="translate(22.81375 136.650088)scale(0.11 -0.11)">
       <use xlink:href="#DejaVuSans-48"/>
       <use x="63.623047" xlink:href="#DejaVuSans-46"/>
       <use x="95.410156" xlink:href="#DejaVuSans-49"/>
       <use x="159.033203" xlink:href="#DejaVuSans-48"/>
      </g>
     </g>
    </g>
    <g id="ytick_4">
     <g id="line2d_7">
      <path clip-path="url(#p8d1d329e78)" d="M 56.805937 101.072785 
L 208.987756 101.072785 
" style="fill:none;stroke:#ffffff;stroke-linecap:round;"/>
     </g>
     <g id="text_8">
      <!-- 0.15 -->
      <g style="fill:#262626;" transform="translate(22.81375 105.251926)scale(0.11 -0.11)">
       <use xlink:href="#DejaVuSans-48"/>
       <use x="63.623047" xlink:href="#DejaVuSans-46"/>
       <use x="95.410156" xlink:href="#DejaVuSans-49"/>
       <use x="159.033203" xlink:href="#DejaVuSans-53"/>
      </g>
     </g>
    </g>
    <g id="ytick_5">
     <g id="line2d_8">
      <path clip-path="url(#p8d1d329e78)" d="M 56.805937 69.674623 
L 208.987756 69.674623 
" style="fill:none;stroke:#ffffff;stroke-linecap:round;"/>
     </g>
     <g id="text_9">
      <!-- 0.20 -->
      <defs>
       <path d="M 19.1875 8.296875 
L 53.609375 8.296875 
L 53.609375 0 
L 7.328125 0 
L 7.328125 8.296875 
Q 12.9375 14.109375 22.625 23.890625 
Q 32.328125 33.6875 34.8125 36.53125 
Q 39.546875 41.84375 41.421875 45.53125 
Q 43.3125 49.21875 43.3125 52.78125 
Q 43.3125 58.59375 39.234375 62.25 
Q 35.15625 65.921875 28.609375 65.921875 
Q 23.96875 65.921875 18.8125 64.3125 
Q 13.671875 62.703125 7.8125 59.421875 
L 7.8125 69.390625 
Q 13.765625 71.78125 18.9375 73 
Q 24.125 74.21875 28.421875 74.21875 
Q 39.75 74.21875 46.484375 68.546875 
Q 53.21875 62.890625 53.21875 53.421875 
Q 53.21875 48.921875 51.53125 44.890625 
Q 49.859375 40.875 45.40625 35.40625 
Q 44.1875 33.984375 37.640625 27.21875 
Q 31.109375 20.453125 19.1875 8.296875 
z
" id="DejaVuSans-50"/>
      </defs>
      <g style="fill:#262626;" transform="translate(22.81375 73.853763)scale(0.11 -0.11)">
       <use xlink:href="#DejaVuSans-48"/>
       <use x="63.623047" xlink:href="#DejaVuSans-46"/>
       <use x="95.410156" xlink:href="#DejaVuSans-50"/>
       <use x="159.033203" xlink:href="#DejaVuSans-48"/>
      </g>
     </g>
    </g>
    <g id="text_10">
     <!-- likelihood -->
     <defs>
      <path d="M 9.421875 75.984375 
L 18.40625 75.984375 
L 18.40625 0 
L 9.421875 0 
z
" id="DejaVuSans-108"/>
      <path d="M 9.421875 54.6875 
L 18.40625 54.6875 
L 18.40625 0 
L 9.421875 0 
z
M 9.421875 75.984375 
L 18.40625 75.984375 
L 18.40625 64.59375 
L 9.421875 64.59375 
z
" id="DejaVuSans-105"/>
      <path d="M 9.078125 75.984375 
L 18.109375 75.984375 
L 18.109375 31.109375 
L 44.921875 54.6875 
L 56.390625 54.6875 
L 27.390625 29.109375 
L 57.625 0 
L 45.90625 0 
L 18.109375 26.703125 
L 18.109375 0 
L 9.078125 0 
z
" id="DejaVuSans-107"/>
      <path d="M 56.203125 29.59375 
L 56.203125 25.203125 
L 14.890625 25.203125 
Q 15.484375 15.921875 20.484375 11.0625 
Q 25.484375 6.203125 34.421875 6.203125 
Q 39.59375 6.203125 44.453125 7.46875 
Q 49.3125 8.734375 54.109375 11.28125 
L 54.109375 2.78125 
Q 49.265625 0.734375 44.1875 -0.34375 
Q 39.109375 -1.421875 33.890625 -1.421875 
Q 20.796875 -1.421875 13.15625 6.1875 
Q 5.515625 13.8125 5.515625 26.8125 
Q 5.515625 40.234375 12.765625 48.109375 
Q 20.015625 56 32.328125 56 
Q 43.359375 56 49.78125 48.890625 
Q 56.203125 41.796875 56.203125 29.59375 
z
M 47.21875 32.234375 
Q 47.125 39.59375 43.09375 43.984375 
Q 39.0625 48.390625 32.421875 48.390625 
Q 24.90625 48.390625 20.390625 44.140625 
Q 15.875 39.890625 15.1875 32.171875 
z
" id="DejaVuSans-101"/>
      <path d="M 54.890625 33.015625 
L 54.890625 0 
L 45.90625 0 
L 45.90625 32.71875 
Q 45.90625 40.484375 42.875 44.328125 
Q 39.84375 48.1875 33.796875 48.1875 
Q 26.515625 48.1875 22.3125 43.546875 
Q 18.109375 38.921875 18.109375 30.90625 
L 18.109375 0 
L 9.078125 0 
L 9.078125 75.984375 
L 18.109375 75.984375 
L 18.109375 46.1875 
Q 21.34375 51.125 25.703125 53.5625 
Q 30.078125 56 35.796875 56 
Q 45.21875 56 50.046875 50.171875 
Q 54.890625 44.34375 54.890625 33.015625 
z
" id="DejaVuSans-104"/>
      <path d="M 30.609375 48.390625 
Q 23.390625 48.390625 19.1875 42.75 
Q 14.984375 37.109375 14.984375 27.296875 
Q 14.984375 17.484375 19.15625 11.84375 
Q 23.34375 6.203125 30.609375 6.203125 
Q 37.796875 6.203125 41.984375 11.859375 
Q 46.1875 17.53125 46.1875 27.296875 
Q 46.1875 37.015625 41.984375 42.703125 
Q 37.796875 48.390625 30.609375 48.390625 
z
M 30.609375 56 
Q 42.328125 56 49.015625 48.375 
Q 55.71875 40.765625 55.71875 27.296875 
Q 55.71875 13.875 49.015625 6.21875 
Q 42.328125 -1.421875 30.609375 -1.421875 
Q 18.84375 -1.421875 12.171875 6.21875 
Q 5.515625 13.875 5.515625 27.296875 
Q 5.515625 40.765625 12.171875 48.375 
Q 18.84375 56 30.609375 56 
z
" id="DejaVuSans-111"/>
      <path d="M 45.40625 46.390625 
L 45.40625 75.984375 
L 54.390625 75.984375 
L 54.390625 0 
L 45.40625 0 
L 45.40625 8.203125 
Q 42.578125 3.328125 38.25 0.953125 
Q 33.9375 -1.421875 27.875 -1.421875 
Q 17.96875 -1.421875 11.734375 6.484375 
Q 5.515625 14.40625 5.515625 27.296875 
Q 5.515625 40.1875 11.734375 48.09375 
Q 17.96875 56 27.875 56 
Q 33.9375 56 38.25 53.625 
Q 42.578125 51.265625 45.40625 46.390625 
z
M 14.796875 27.296875 
Q 14.796875 17.390625 18.875 11.75 
Q 22.953125 6.109375 30.078125 6.109375 
Q 37.203125 6.109375 41.296875 11.75 
Q 45.40625 17.390625 45.40625 27.296875 
Q 45.40625 37.203125 41.296875 42.84375 
Q 37.203125 48.484375 30.078125 48.484375 
Q 22.953125 48.484375 18.875 42.84375 
Q 14.796875 37.203125 14.796875 27.296875 
z
" id="DejaVuSans-100"/>
     </defs>
     <g style="fill:#262626;" transform="translate(16.318125 149.925)rotate(-90)scale(0.12 -0.12)">
      <use xlink:href="#DejaVuSans-108"/>
      <use x="27.783203" xlink:href="#DejaVuSans-105"/>
      <use x="55.566406" xlink:href="#DejaVuSans-107"/>
      <use x="113.429688" xlink:href="#DejaVuSans-101"/>
      <use x="174.953125" xlink:href="#DejaVuSans-108"/>
      <use x="202.736328" xlink:href="#DejaVuSans-105"/>
      <use x="230.519531" xlink:href="#DejaVuSans-104"/>
      <use x="293.898438" xlink:href="#DejaVuSans-111"/>
      <use x="355.080078" xlink:href="#DejaVuSans-111"/>
      <use x="416.261719" xlink:href="#DejaVuSans-100"/>
     </g>
    </g>
   </g>
   <g id="PolyCollection_1">
    <defs>
     <path d="M 63.723293 -50.372415 
L 63.723293 -50.372415 
L 65.106764 -50.372415 
L 66.490235 -50.372415 
L 67.873706 -50.372415 
L 69.257177 -50.372415 
L 70.640648 -50.372415 
L 72.024119 -50.372415 
L 73.40759 -50.372415 
L 74.791061 -50.372416 
L 76.174533 -50.37242 
L 77.558004 -50.372435 
L 78.941475 -50.372486 
L 80.324946 -50.372635 
L 81.708417 -50.373032 
L 83.091888 -50.373992 
L 84.475359 -50.376141 
L 85.85883 -50.380629 
L 87.242301 -50.389456 
L 88.625772 -50.405903 
L 90.009243 -50.435101 
L 91.392714 -50.484719 
L 92.776185 -50.565741 
L 94.159657 -50.693303 
L 95.543128 -50.887493 
L 96.926599 -51.174033 
L 98.31007 -51.584726 
L 99.693541 -52.15755 
L 101.077012 -52.936276 
L 102.460483 -53.969519 
L 103.843954 -55.309155 
L 105.227425 -57.008081 
L 106.610896 -59.117355 
L 107.994367 -61.682827 
L 109.377838 -64.741404 
L 110.761309 -68.317184 
L 112.14478 -72.417719 
L 113.528252 -77.0307 
L 114.911723 -82.121351 
L 116.295194 -87.63083 
L 117.678665 -93.475833 
L 119.062136 -99.549605 
L 120.445607 -105.724388 
L 121.829078 -111.855314 
L 123.212549 -117.785585 
L 124.59602 -123.352713 
L 125.979491 -128.395502 
L 127.362962 -132.761362 
L 128.746433 -136.313532 
L 130.129904 -138.937755 
L 131.513376 -140.54799 
L 132.896847 -141.090779 
L 134.280318 -140.54799 
L 135.663789 -138.937755 
L 137.04726 -136.313532 
L 138.430731 -132.761362 
L 139.814202 -128.395502 
L 141.197673 -123.352713 
L 142.581144 -117.785585 
L 143.964615 -111.855314 
L 145.348086 -105.724388 
L 146.731557 -99.549605 
L 148.115028 -93.475833 
L 149.498499 -87.63083 
L 150.881971 -82.121351 
L 152.265442 -77.0307 
L 153.648913 -72.417719 
L 155.032384 -68.317184 
L 156.415855 -64.741404 
L 157.799326 -61.682827 
L 159.182797 -59.117355 
L 160.566268 -57.008081 
L 161.949739 -55.309155 
L 163.33321 -53.969519 
L 164.716681 -52.936276 
L 166.100152 -52.15755 
L 167.483623 -51.584726 
L 168.867095 -51.174033 
L 170.250566 -50.887493 
L 171.634037 -50.693303 
L 173.017508 -50.565741 
L 174.400979 -50.484719 
L 175.78445 -50.435101 
L 177.167921 -50.405903 
L 178.551392 -50.389456 
L 179.934863 -50.380629 
L 181.318334 -50.376141 
L 182.701805 -50.373992 
L 184.085276 -50.373032 
L 185.468747 -50.372635 
L 186.852218 -50.372486 
L 188.23569 -50.372435 
L 189.619161 -50.37242 
L 191.002632 -50.372416 
L 192.386103 -50.372415 
L 193.769574 -50.372415 
L 195.153045 -50.372415 
L 196.536516 -50.372415 
L 197.919987 -50.372415 
L 199.303458 -50.372415 
L 200.686929 -50.372415 
L 202.0704 -50.372415 
L 202.0704 -50.372415 
L 202.0704 -50.372415 
L 200.686929 -50.372415 
L 199.303458 -50.372415 
L 197.919987 -50.372415 
L 196.536516 -50.372415 
L 195.153045 -50.372415 
L 193.769574 -50.372415 
L 192.386103 -50.372415 
L 191.002632 -50.372415 
L 189.619161 -50.372415 
L 188.23569 -50.372415 
L 186.852218 -50.372415 
L 185.468747 -50.372415 
L 184.085276 -50.372415 
L 182.701805 -50.372415 
L 181.318334 -50.372415 
L 179.934863 -50.372415 
L 178.551392 -50.372415 
L 177.167921 -50.372415 
L 175.78445 -50.372415 
L 174.400979 -50.372415 
L 173.017508 -50.372415 
L 171.634037 -50.372415 
L 170.250566 -50.372415 
L 168.867095 -50.372415 
L 167.483623 -50.372415 
L 166.100152 -50.372415 
L 164.716681 -50.372415 
L 163.33321 -50.372415 
L 161.949739 -50.372415 
L 160.566268 -50.372415 
L 159.182797 -50.372415 
L 157.799326 -50.372415 
L 156.415855 -50.372415 
L 155.032384 -50.372415 
L 153.648913 -50.372415 
L 152.265442 -50.372415 
L 150.881971 -50.372415 
L 149.498499 -50.372415 
L 148.115028 -50.372415 
L 146.731557 -50.372415 
L 145.348086 -50.372415 
L 143.964615 -50.372415 
L 142.581144 -50.372415 
L 141.197673 -50.372415 
L 139.814202 -50.372415 
L 138.430731 -50.372415 
L 137.04726 -50.372415 
L 135.663789 -50.372415 
L 134.280318 -50.372415 
L 132.896847 -50.372415 
L 131.513376 -50.372415 
L 130.129904 -50.372415 
L 128.746433 -50.372415 
L 127.362962 -50.372415 
L 125.979491 -50.372415 
L 124.59602 -50.372415 
L 123.212549 -50.372415 
L 121.829078 -50.372415 
L 120.445607 -50.372415 
L 119.062136 -50.372415 
L 117.678665 -50.372415 
L 116.295194 -50.372415 
L 114.911723 -50.372415 
L 113.528252 -50.372415 
L 112.14478 -50.372415 
L 110.761309 -50.372415 
L 109.377838 -50.372415 
L 107.994367 -50.372415 
L 106.610896 -50.372415 
L 105.227425 -50.372415 
L 103.843954 -50.372415 
L 102.460483 -50.372415 
L 101.077012 -50.372415 
L 99.693541 -50.372415 
L 98.31007 -50.372415 
L 96.926599 -50.372415 
L 95.543128 -50.372415 
L 94.159657 -50.372415 
L 92.776185 -50.372415 
L 91.392714 -50.372415 
L 90.009243 -50.372415 
L 88.625772 -50.372415 
L 87.242301 -50.372415 
L 85.85883 -50.372415 
L 84.475359 -50.372415 
L 83.091888 -50.372415 
L 81.708417 -50.372415 
L 80.324946 -50.372415 
L 78.941475 -50.372415 
L 77.558004 -50.372415 
L 76.174533 -50.372415 
L 74.791061 -50.372415 
L 73.40759 -50.372415 
L 72.024119 -50.372415 
L 70.640648 -50.372415 
L 69.257177 -50.372415 
L 67.873706 -50.372415 
L 66.490235 -50.372415 
L 65.106764 -50.372415 
L 63.723293 -50.372415 
z
" id="m6d1562c2be" style="stroke:#ffffff;"/>
    </defs>
    <g clip-path="url(#p8d1d329e78)">
     <use style="fill:#4c72b0;stroke:#ffffff;" x="0" xlink:href="#m6d1562c2be" y="245.639688"/>
    </g>
   </g>
   <g id="patch_3">
    <path d="M 56.805937 202.68 
L 56.805937 39.6 
" style="fill:none;stroke:#ffffff;stroke-linecap:square;stroke-linejoin:miter;stroke-width:1.25;"/>
   </g>
   <g id="patch_4">
    <path d="M 208.987756 202.68 
L 208.987756 39.6 
" style="fill:none;stroke:#ffffff;stroke-linecap:square;stroke-linejoin:miter;stroke-width:1.25;"/>
   </g>
   <g id="patch_5">
    <path d="M 56.805937 202.68 
L 208.987756 202.68 
" style="fill:none;stroke:#ffffff;stroke-linecap:square;stroke-linejoin:miter;stroke-width:1.25;"/>
   </g>
   <g id="patch_6">
    <path d="M 56.805937 39.6 
L 208.987756 39.6 
" style="fill:none;stroke:#ffffff;stroke-linecap:square;stroke-linejoin:miter;stroke-width:1.25;"/>
   </g>
   <g id="text_11">
    <!-- $p(15\mid{}30,\theta)$ -->
    <defs>
     <path d="M 49.609375 33.6875 
Q 49.609375 40.875 46.484375 44.671875 
Q 43.359375 48.484375 37.5 48.484375 
Q 33.5 48.484375 29.859375 46.4375 
Q 26.21875 44.390625 23.390625 40.484375 
Q 20.609375 36.625 18.9375 31.15625 
Q 17.28125 25.6875 17.28125 20.3125 
Q 17.28125 13.484375 20.40625 9.796875 
Q 23.53125 6.109375 29.296875 6.109375 
Q 33.546875 6.109375 37.1875 8.109375 
Q 40.828125 10.109375 43.40625 13.921875 
Q 46.1875 17.921875 47.890625 23.34375 
Q 49.609375 28.765625 49.609375 33.6875 
z
M 21.78125 46.390625 
Q 25.390625 51.125 30.296875 53.5625 
Q 35.203125 56 41.21875 56 
Q 49.609375 56 54.25 50.5 
Q 58.890625 45.015625 58.890625 35.109375 
Q 58.890625 27 56 19.65625 
Q 53.125 12.3125 47.703125 6.5 
Q 44.09375 2.640625 39.546875 0.609375 
Q 35.015625 -1.421875 29.984375 -1.421875 
Q 24.171875 -1.421875 20.21875 1 
Q 16.265625 3.421875 14.3125 8.203125 
L 8.6875 -20.796875 
L -0.296875 -20.796875 
L 14.40625 54.6875 
L 23.390625 54.6875 
z
" id="DejaVuSans-Oblique-112"/>
     <path d="M 31 75.875 
Q 24.46875 64.65625 21.28125 53.65625 
Q 18.109375 42.671875 18.109375 31.390625 
Q 18.109375 20.125 21.3125 9.0625 
Q 24.515625 -2 31 -13.1875 
L 23.1875 -13.1875 
Q 15.875 -1.703125 12.234375 9.375 
Q 8.59375 20.453125 8.59375 31.390625 
Q 8.59375 42.28125 12.203125 53.3125 
Q 15.828125 64.359375 23.1875 75.875 
z
" id="DejaVuSans-40"/>
     <path d="M 21.09375 77.09375 
L 28.90625 77.09375 
L 28.90625 -21.390625 
L 21.09375 -21.390625 
z
" id="DejaVuSans-8739"/>
     <path d="M 40.578125 39.3125 
Q 47.65625 37.796875 51.625 33 
Q 55.609375 28.21875 55.609375 21.1875 
Q 55.609375 10.40625 48.1875 4.484375 
Q 40.765625 -1.421875 27.09375 -1.421875 
Q 22.515625 -1.421875 17.65625 -0.515625 
Q 12.796875 0.390625 7.625 2.203125 
L 7.625 11.71875 
Q 11.71875 9.328125 16.59375 8.109375 
Q 21.484375 6.890625 26.8125 6.890625 
Q 36.078125 6.890625 40.9375 10.546875 
Q 45.796875 14.203125 45.796875 21.1875 
Q 45.796875 27.640625 41.28125 31.265625 
Q 36.765625 34.90625 28.71875 34.90625 
L 20.21875 34.90625 
L 20.21875 43.015625 
L 29.109375 43.015625 
Q 36.375 43.015625 40.234375 45.921875 
Q 44.09375 48.828125 44.09375 54.296875 
Q 44.09375 59.90625 40.109375 62.90625 
Q 36.140625 65.921875 28.71875 65.921875 
Q 24.65625 65.921875 20.015625 65.03125 
Q 15.375 64.15625 9.8125 62.3125 
L 9.8125 71.09375 
Q 15.4375 72.65625 20.34375 73.4375 
Q 25.25 74.21875 29.59375 74.21875 
Q 40.828125 74.21875 47.359375 69.109375 
Q 53.90625 64.015625 53.90625 55.328125 
Q 53.90625 49.265625 50.4375 45.09375 
Q 46.96875 40.921875 40.578125 39.3125 
z
" id="DejaVuSans-51"/>
     <path d="M 11.71875 12.40625 
L 22.015625 12.40625 
L 22.015625 4 
L 14.015625 -11.625 
L 7.71875 -11.625 
L 11.71875 4 
z
" id="DejaVuSans-44"/>
     <path d="M 8.015625 75.875 
L 15.828125 75.875 
Q 23.140625 64.359375 26.78125 53.3125 
Q 30.421875 42.28125 30.421875 31.390625 
Q 30.421875 20.453125 26.78125 9.375 
Q 23.140625 -1.703125 15.828125 -13.1875 
L 8.015625 -13.1875 
Q 14.5 -2 17.703125 9.0625 
Q 20.90625 20.125 20.90625 31.390625 
Q 20.90625 42.671875 17.703125 53.65625 
Q 14.5 64.65625 8.015625 75.875 
z
" id="DejaVuSans-41"/>
    </defs>
    <g style="fill:#262626;" transform="translate(97.016847 33.6)scale(0.12 -0.12)">
     <use transform="translate(0 0.90625)" xlink:href="#DejaVuSans-Oblique-112"/>
     <use transform="translate(63.476562 0.90625)" xlink:href="#DejaVuSans-40"/>
     <use transform="translate(102.490234 0.90625)" xlink:href="#DejaVuSans-49"/>
     <use transform="translate(166.113281 0.90625)" xlink:href="#DejaVuSans-53"/>
     <use transform="translate(249.21875 0.90625)" xlink:href="#DejaVuSans-8739"/>
     <use transform="translate(318.701172 0.90625)" xlink:href="#DejaVuSans-51"/>
     <use transform="translate(382.324219 0.90625)" xlink:href="#DejaVuSans-48"/>
     <use transform="translate(445.947266 0.90625)" xlink:href="#DejaVuSans-44"/>
     <use transform="translate(497.216797 0.90625)" xlink:href="#DejaVuSans-Oblique-952"/>
     <use transform="translate(558.398438 0.90625)" xlink:href="#DejaVuSans-41"/>
    </g>
   </g>
  </g>
  <g id="axes_2">
   <g id="patch_7">
    <path d="M 239.424119 202.68 
L 391.605937 202.68 
L 391.605937 39.6 
L 239.424119 39.6 
z
" style="fill:#eaeaf2;"/>
   </g>
   <g id="matplotlib.axis_3">
    <g id="xtick_4">
     <g id="line2d_9">
      <path clip-path="url(#p6f4907b408)" d="M 246.341475 202.68 
L 246.341475 39.6 
" style="fill:none;stroke:#ffffff;stroke-linecap:round;"/>
     </g>
     <g id="text_12">
      <!-- 0.0 -->
      <g style="fill:#262626;" transform="translate(237.594756 220.538281)scale(0.11 -0.11)">
       <use xlink:href="#DejaVuSans-48"/>
       <use x="63.623047" xlink:href="#DejaVuSans-46"/>
       <use x="95.410156" xlink:href="#DejaVuSans-48"/>
      </g>
     </g>
    </g>
    <g id="xtick_5">
     <g id="line2d_10">
      <path clip-path="url(#p6f4907b408)" d="M 315.515028 202.68 
L 315.515028 39.6 
" style="fill:none;stroke:#ffffff;stroke-linecap:round;"/>
     </g>
     <g id="text_13">
      <!-- 0.5 -->
      <g style="fill:#262626;" transform="translate(306.76831 220.538281)scale(0.11 -0.11)">
       <use xlink:href="#DejaVuSans-48"/>
       <use x="63.623047" xlink:href="#DejaVuSans-46"/>
       <use x="95.410156" xlink:href="#DejaVuSans-53"/>
      </g>
     </g>
    </g>
    <g id="xtick_6">
     <g id="line2d_11">
      <path clip-path="url(#p6f4907b408)" d="M 384.688582 202.68 
L 384.688582 39.6 
" style="fill:none;stroke:#ffffff;stroke-linecap:round;"/>
     </g>
     <g id="text_14">
      <!-- 1.0 -->
      <g style="fill:#262626;" transform="translate(375.941863 220.538281)scale(0.11 -0.11)">
       <use xlink:href="#DejaVuSans-49"/>
       <use x="63.623047" xlink:href="#DejaVuSans-46"/>
       <use x="95.410156" xlink:href="#DejaVuSans-48"/>
      </g>
     </g>
    </g>
    <g id="text_15">
     <!-- $\theta$ -->
     <g style="fill:#262626;" transform="translate(311.795028 235.944063)scale(0.12 -0.12)">
      <use transform="translate(0 0.234375)" xlink:href="#DejaVuSans-Oblique-952"/>
     </g>
    </g>
   </g>
   <g id="matplotlib.axis_4">
    <g id="ytick_6">
     <g id="line2d_12">
      <path clip-path="url(#p6f4907b408)" d="M 239.424119 195.267273 
L 391.605937 195.267273 
" style="fill:none;stroke:#ffffff;stroke-linecap:round;"/>
     </g>
    </g>
    <g id="ytick_7">
     <g id="line2d_13">
      <path clip-path="url(#p6f4907b408)" d="M 239.424119 163.86911 
L 391.605937 163.86911 
" style="fill:none;stroke:#ffffff;stroke-linecap:round;"/>
     </g>
    </g>
    <g id="ytick_8">
     <g id="line2d_14">
      <path clip-path="url(#p6f4907b408)" d="M 239.424119 132.470948 
L 391.605937 132.470948 
" style="fill:none;stroke:#ffffff;stroke-linecap:round;"/>
     </g>
    </g>
    <g id="ytick_9">
     <g id="line2d_15">
      <path clip-path="url(#p6f4907b408)" d="M 239.424119 101.072785 
L 391.605937 101.072785 
" style="fill:none;stroke:#ffffff;stroke-linecap:round;"/>
     </g>
    </g>
    <g id="ytick_10">
     <g id="line2d_16">
      <path clip-path="url(#p6f4907b408)" d="M 239.424119 69.674623 
L 391.605937 69.674623 
" style="fill:none;stroke:#ffffff;stroke-linecap:round;"/>
     </g>
    </g>
   </g>
   <g id="PolyCollection_2">
    <defs>
     <path d="M 246.341475 -50.372415 
L 246.341475 -50.372415 
L 247.724946 -50.372415 
L 249.108417 -50.372415 
L 250.491888 -50.372415 
L 251.875359 -50.372415 
L 253.25883 -50.372415 
L 254.642301 -50.372415 
L 256.025772 -50.372415 
L 257.409243 -50.372415 
L 258.792714 -50.372415 
L 260.176185 -50.372415 
L 261.559657 -50.372415 
L 262.943128 -50.372415 
L 264.326599 -50.372415 
L 265.71007 -50.372415 
L 267.093541 -50.372415 
L 268.477012 -50.372415 
L 269.860483 -50.372415 
L 271.243954 -50.372415 
L 272.627425 -50.372415 
L 274.010896 -50.372415 
L 275.394367 -50.372415 
L 276.777838 -50.372415 
L 278.161309 -50.372415 
L 279.54478 -50.372415 
L 280.928252 -50.372415 
L 282.311723 -50.372415 
L 283.695194 -50.372415 
L 285.078665 -50.372415 
L 286.462136 -50.372415 
L 287.845607 -50.372415 
L 289.229078 -50.372415 
L 290.612549 -50.372415 
L 291.99602 -50.372415 
L 293.379491 -50.372415 
L 294.762962 -50.372415 
L 296.146433 -50.372415 
L 297.529904 -50.372416 
L 298.913376 -50.372418 
L 300.296847 -50.37242 
L 301.680318 -50.372425 
L 303.063789 -50.372433 
L 304.44726 -50.372448 
L 305.830731 -50.372475 
L 307.214202 -50.372521 
L 308.597673 -50.372599 
L 309.981144 -50.37273 
L 311.364615 -50.372947 
L 312.748086 -50.373302 
L 314.131557 -50.373875 
L 315.515028 -50.374789 
L 316.898499 -50.376229 
L 318.281971 -50.378472 
L 319.665442 -50.381925 
L 321.048913 -50.387184 
L 322.432384 -50.395108 
L 323.815855 -50.406921 
L 325.199326 -50.424353 
L 326.582797 -50.449819 
L 327.966268 -50.486654 
L 329.349739 -50.539418 
L 330.73321 -50.614272 
L 332.116681 -50.71946 
L 333.500152 -50.865884 
L 334.883623 -51.067803 
L 336.267095 -51.343651 
L 337.650566 -51.716984 
L 339.034037 -52.217523 
L 340.417508 -52.882283 
L 341.800979 -53.75673 
L 343.18445 -54.895878 
L 344.567921 -56.365213 
L 345.951392 -58.241274 
L 347.334863 -60.61168 
L 348.718334 -63.574324 
L 350.101805 -67.235398 
L 351.485276 -71.705859 
L 352.868747 -77.095916 
L 354.252218 -83.507079 
L 355.63569 -91.021391 
L 357.019161 -99.687513 
L 358.402632 -109.503599 
L 359.786103 -120.397201 
L 361.169574 -132.202974 
L 362.553045 -144.639686 
L 363.936516 -157.288989 
L 365.319987 -169.579633 
L 366.703458 -180.782188 
L 368.086929 -190.020874 
L 369.4704 -196.310451 
L 370.853871 -198.62696 
L 372.237342 -196.020703 
L 373.620814 -187.777106 
L 375.004285 -173.62442 
L 376.387756 -153.973919 
L 377.771227 -130.154911 
L 379.154698 -104.567952 
L 380.538169 -80.617921 
L 381.92164 -62.193417 
L 383.305111 -52.316031 
L 384.688582 -50.372415 
L 384.688582 -50.372415 
L 384.688582 -50.372415 
L 383.305111 -50.372415 
L 381.92164 -50.372415 
L 380.538169 -50.372415 
L 379.154698 -50.372415 
L 377.771227 -50.372415 
L 376.387756 -50.372415 
L 375.004285 -50.372415 
L 373.620814 -50.372415 
L 372.237342 -50.372415 
L 370.853871 -50.372415 
L 369.4704 -50.372415 
L 368.086929 -50.372415 
L 366.703458 -50.372415 
L 365.319987 -50.372415 
L 363.936516 -50.372415 
L 362.553045 -50.372415 
L 361.169574 -50.372415 
L 359.786103 -50.372415 
L 358.402632 -50.372415 
L 357.019161 -50.372415 
L 355.63569 -50.372415 
L 354.252218 -50.372415 
L 352.868747 -50.372415 
L 351.485276 -50.372415 
L 350.101805 -50.372415 
L 348.718334 -50.372415 
L 347.334863 -50.372415 
L 345.951392 -50.372415 
L 344.567921 -50.372415 
L 343.18445 -50.372415 
L 341.800979 -50.372415 
L 340.417508 -50.372415 
L 339.034037 -50.372415 
L 337.650566 -50.372415 
L 336.267095 -50.372415 
L 334.883623 -50.372415 
L 333.500152 -50.372415 
L 332.116681 -50.372415 
L 330.73321 -50.372415 
L 329.349739 -50.372415 
L 327.966268 -50.372415 
L 326.582797 -50.372415 
L 325.199326 -50.372415 
L 323.815855 -50.372415 
L 322.432384 -50.372415 
L 321.048913 -50.372415 
L 319.665442 -50.372415 
L 318.281971 -50.372415 
L 316.898499 -50.372415 
L 315.515028 -50.372415 
L 314.131557 -50.372415 
L 312.748086 -50.372415 
L 311.364615 -50.372415 
L 309.981144 -50.372415 
L 308.597673 -50.372415 
L 307.214202 -50.372415 
L 305.830731 -50.372415 
L 304.44726 -50.372415 
L 303.063789 -50.372415 
L 301.680318 -50.372415 
L 300.296847 -50.372415 
L 298.913376 -50.372415 
L 297.529904 -50.372415 
L 296.146433 -50.372415 
L 294.762962 -50.372415 
L 293.379491 -50.372415 
L 291.99602 -50.372415 
L 290.612549 -50.372415 
L 289.229078 -50.372415 
L 287.845607 -50.372415 
L 286.462136 -50.372415 
L 285.078665 -50.372415 
L 283.695194 -50.372415 
L 282.311723 -50.372415 
L 280.928252 -50.372415 
L 279.54478 -50.372415 
L 278.161309 -50.372415 
L 276.777838 -50.372415 
L 275.394367 -50.372415 
L 274.010896 -50.372415 
L 272.627425 -50.372415 
L 271.243954 -50.372415 
L 269.860483 -50.372415 
L 268.477012 -50.372415 
L 267.093541 -50.372415 
L 265.71007 -50.372415 
L 264.326599 -50.372415 
L 262.943128 -50.372415 
L 261.559657 -50.372415 
L 260.176185 -50.372415 
L 258.792714 -50.372415 
L 257.409243 -50.372415 
L 256.025772 -50.372415 
L 254.642301 -50.372415 
L 253.25883 -50.372415 
L 251.875359 -50.372415 
L 250.491888 -50.372415 
L 249.108417 -50.372415 
L 247.724946 -50.372415 
L 246.341475 -50.372415 
z
" id="m278850c2af" style="stroke:#ffffff;"/>
    </defs>
    <g clip-path="url(#p6f4907b408)">
     <use style="fill:#4c72b0;stroke:#ffffff;" x="0" xlink:href="#m278850c2af" y="245.639688"/>
    </g>
   </g>
   <g id="patch_8">
    <path d="M 239.424119 202.68 
L 239.424119 39.6 
" style="fill:none;stroke:#ffffff;stroke-linecap:square;stroke-linejoin:miter;stroke-width:1.25;"/>
   </g>
   <g id="patch_9">
    <path d="M 391.605937 202.68 
L 391.605937 39.6 
" style="fill:none;stroke:#ffffff;stroke-linecap:square;stroke-linejoin:miter;stroke-width:1.25;"/>
   </g>
   <g id="patch_10">
    <path d="M 239.424119 202.68 
L 391.605937 202.68 
" style="fill:none;stroke:#ffffff;stroke-linecap:square;stroke-linejoin:miter;stroke-width:1.25;"/>
   </g>
   <g id="patch_11">
    <path d="M 239.424119 39.6 
L 391.605937 39.6 
" style="fill:none;stroke:#ffffff;stroke-linecap:square;stroke-linejoin:miter;stroke-width:1.25;"/>
   </g>
   <g id="text_16">
    <!-- $p(27\mid{}30,\theta)$ -->
    <defs>
     <path d="M 8.203125 72.90625 
L 55.078125 72.90625 
L 55.078125 68.703125 
L 28.609375 0 
L 18.3125 0 
L 43.21875 64.59375 
L 8.203125 64.59375 
z
" id="DejaVuSans-55"/>
    </defs>
    <g style="fill:#262626;" transform="translate(279.635028 33.6)scale(0.12 -0.12)">
     <use transform="translate(0 0.90625)" xlink:href="#DejaVuSans-Oblique-112"/>
     <use transform="translate(63.476562 0.90625)" xlink:href="#DejaVuSans-40"/>
     <use transform="translate(102.490234 0.90625)" xlink:href="#DejaVuSans-50"/>
     <use transform="translate(166.113281 0.90625)" xlink:href="#DejaVuSans-55"/>
     <use transform="translate(249.21875 0.90625)" xlink:href="#DejaVuSans-8739"/>
     <use transform="translate(318.701172 0.90625)" xlink:href="#DejaVuSans-51"/>
     <use transform="translate(382.324219 0.90625)" xlink:href="#DejaVuSans-48"/>
     <use transform="translate(445.947266 0.90625)" xlink:href="#DejaVuSans-44"/>
     <use transform="translate(497.216797 0.90625)" xlink:href="#DejaVuSans-Oblique-952"/>
     <use transform="translate(558.398438 0.90625)" xlink:href="#DejaVuSans-41"/>
    </g>
   </g>
  </g>
  <g id="text_17">
   <!-- Binomal as likelihood function $p(z\mid{}N,\theta)$ -->
   <defs>
    <path d="M 19.671875 34.8125 
L 19.671875 8.109375 
L 35.5 8.109375 
Q 43.453125 8.109375 47.28125 11.40625 
Q 51.125 14.703125 51.125 21.484375 
Q 51.125 28.328125 47.28125 31.5625 
Q 43.453125 34.8125 35.5 34.8125 
z
M 19.671875 64.796875 
L 19.671875 42.828125 
L 34.28125 42.828125 
Q 41.5 42.828125 45.03125 45.53125 
Q 48.578125 48.25 48.578125 53.8125 
Q 48.578125 59.328125 45.03125 62.0625 
Q 41.5 64.796875 34.28125 64.796875 
z
M 9.8125 72.90625 
L 35.015625 72.90625 
Q 46.296875 72.90625 52.390625 68.21875 
Q 58.5 63.53125 58.5 54.890625 
Q 58.5 48.1875 55.375 44.234375 
Q 52.25 40.28125 46.1875 39.3125 
Q 53.46875 37.75 57.5 32.78125 
Q 61.53125 27.828125 61.53125 20.40625 
Q 61.53125 10.640625 54.890625 5.3125 
Q 48.25 0 35.984375 0 
L 9.8125 0 
z
" id="DejaVuSans-66"/>
    <path d="M 54.890625 33.015625 
L 54.890625 0 
L 45.90625 0 
L 45.90625 32.71875 
Q 45.90625 40.484375 42.875 44.328125 
Q 39.84375 48.1875 33.796875 48.1875 
Q 26.515625 48.1875 22.3125 43.546875 
Q 18.109375 38.921875 18.109375 30.90625 
L 18.109375 0 
L 9.078125 0 
L 9.078125 54.6875 
L 18.109375 54.6875 
L 18.109375 46.1875 
Q 21.34375 51.125 25.703125 53.5625 
Q 30.078125 56 35.796875 56 
Q 45.21875 56 50.046875 50.171875 
Q 54.890625 44.34375 54.890625 33.015625 
z
" id="DejaVuSans-110"/>
    <path d="M 52 44.1875 
Q 55.375 50.25 60.0625 53.125 
Q 64.75 56 71.09375 56 
Q 79.640625 56 84.28125 50.015625 
Q 88.921875 44.046875 88.921875 33.015625 
L 88.921875 0 
L 79.890625 0 
L 79.890625 32.71875 
Q 79.890625 40.578125 77.09375 44.375 
Q 74.3125 48.1875 68.609375 48.1875 
Q 61.625 48.1875 57.5625 43.546875 
Q 53.515625 38.921875 53.515625 30.90625 
L 53.515625 0 
L 44.484375 0 
L 44.484375 32.71875 
Q 44.484375 40.625 41.703125 44.40625 
Q 38.921875 48.1875 33.109375 48.1875 
Q 26.21875 48.1875 22.15625 43.53125 
Q 18.109375 38.875 18.109375 30.90625 
L 18.109375 0 
L 9.078125 0 
L 9.078125 54.6875 
L 18.109375 54.6875 
L 18.109375 46.1875 
Q 21.1875 51.21875 25.484375 53.609375 
Q 29.78125 56 35.6875 56 
Q 41.65625 56 45.828125 52.96875 
Q 50 49.953125 52 44.1875 
z
" id="DejaVuSans-109"/>
    <path d="M 34.28125 27.484375 
Q 23.390625 27.484375 19.1875 25 
Q 14.984375 22.515625 14.984375 16.5 
Q 14.984375 11.71875 18.140625 8.90625 
Q 21.296875 6.109375 26.703125 6.109375 
Q 34.1875 6.109375 38.703125 11.40625 
Q 43.21875 16.703125 43.21875 25.484375 
L 43.21875 27.484375 
z
M 52.203125 31.203125 
L 52.203125 0 
L 43.21875 0 
L 43.21875 8.296875 
Q 40.140625 3.328125 35.546875 0.953125 
Q 30.953125 -1.421875 24.3125 -1.421875 
Q 15.921875 -1.421875 10.953125 3.296875 
Q 6 8.015625 6 15.921875 
Q 6 25.140625 12.171875 29.828125 
Q 18.359375 34.515625 30.609375 34.515625 
L 43.21875 34.515625 
L 43.21875 35.40625 
Q 43.21875 41.609375 39.140625 45 
Q 35.0625 48.390625 27.6875 48.390625 
Q 23 48.390625 18.546875 47.265625 
Q 14.109375 46.140625 10.015625 43.890625 
L 10.015625 52.203125 
Q 14.9375 54.109375 19.578125 55.046875 
Q 24.21875 56 28.609375 56 
Q 40.484375 56 46.34375 49.84375 
Q 52.203125 43.703125 52.203125 31.203125 
z
" id="DejaVuSans-97"/>
    <path id="DejaVuSans-32"/>
    <path d="M 44.28125 53.078125 
L 44.28125 44.578125 
Q 40.484375 46.53125 36.375 47.5 
Q 32.28125 48.484375 27.875 48.484375 
Q 21.1875 48.484375 17.84375 46.4375 
Q 14.5 44.390625 14.5 40.28125 
Q 14.5 37.15625 16.890625 35.375 
Q 19.28125 33.59375 26.515625 31.984375 
L 29.59375 31.296875 
Q 39.15625 29.25 43.1875 25.515625 
Q 47.21875 21.78125 47.21875 15.09375 
Q 47.21875 7.46875 41.1875 3.015625 
Q 35.15625 -1.421875 24.609375 -1.421875 
Q 20.21875 -1.421875 15.453125 -0.5625 
Q 10.6875 0.296875 5.421875 2 
L 5.421875 11.28125 
Q 10.40625 8.6875 15.234375 7.390625 
Q 20.0625 6.109375 24.8125 6.109375 
Q 31.15625 6.109375 34.5625 8.28125 
Q 37.984375 10.453125 37.984375 14.40625 
Q 37.984375 18.0625 35.515625 20.015625 
Q 33.0625 21.96875 24.703125 23.78125 
L 21.578125 24.515625 
Q 13.234375 26.265625 9.515625 29.90625 
Q 5.8125 33.546875 5.8125 39.890625 
Q 5.8125 47.609375 11.28125 51.796875 
Q 16.75 56 26.8125 56 
Q 31.78125 56 36.171875 55.265625 
Q 40.578125 54.546875 44.28125 53.078125 
z
" id="DejaVuSans-115"/>
    <path d="M 37.109375 75.984375 
L 37.109375 68.5 
L 28.515625 68.5 
Q 23.6875 68.5 21.796875 66.546875 
Q 19.921875 64.59375 19.921875 59.515625 
L 19.921875 54.6875 
L 34.71875 54.6875 
L 34.71875 47.703125 
L 19.921875 47.703125 
L 19.921875 0 
L 10.890625 0 
L 10.890625 47.703125 
L 2.296875 47.703125 
L 2.296875 54.6875 
L 10.890625 54.6875 
L 10.890625 58.5 
Q 10.890625 67.625 15.140625 71.796875 
Q 19.390625 75.984375 28.609375 75.984375 
z
" id="DejaVuSans-102"/>
    <path d="M 8.5 21.578125 
L 8.5 54.6875 
L 17.484375 54.6875 
L 17.484375 21.921875 
Q 17.484375 14.15625 20.5 10.265625 
Q 23.53125 6.390625 29.59375 6.390625 
Q 36.859375 6.390625 41.078125 11.03125 
Q 45.3125 15.671875 45.3125 23.6875 
L 45.3125 54.6875 
L 54.296875 54.6875 
L 54.296875 0 
L 45.3125 0 
L 45.3125 8.40625 
Q 42.046875 3.421875 37.71875 1 
Q 33.40625 -1.421875 27.6875 -1.421875 
Q 18.265625 -1.421875 13.375 4.4375 
Q 8.5 10.296875 8.5 21.578125 
z
M 31.109375 56 
z
" id="DejaVuSans-117"/>
    <path d="M 48.78125 52.59375 
L 48.78125 44.1875 
Q 44.96875 46.296875 41.140625 47.34375 
Q 37.3125 48.390625 33.40625 48.390625 
Q 24.65625 48.390625 19.8125 42.84375 
Q 14.984375 37.3125 14.984375 27.296875 
Q 14.984375 17.28125 19.8125 11.734375 
Q 24.65625 6.203125 33.40625 6.203125 
Q 37.3125 6.203125 41.140625 7.25 
Q 44.96875 8.296875 48.78125 10.40625 
L 48.78125 2.09375 
Q 45.015625 0.34375 40.984375 -0.53125 
Q 36.96875 -1.421875 32.421875 -1.421875 
Q 20.0625 -1.421875 12.78125 6.34375 
Q 5.515625 14.109375 5.515625 27.296875 
Q 5.515625 40.671875 12.859375 48.328125 
Q 20.21875 56 33.015625 56 
Q 37.15625 56 41.109375 55.140625 
Q 45.0625 54.296875 48.78125 52.59375 
z
" id="DejaVuSans-99"/>
    <path d="M 18.3125 70.21875 
L 18.3125 54.6875 
L 36.8125 54.6875 
L 36.8125 47.703125 
L 18.3125 47.703125 
L 18.3125 18.015625 
Q 18.3125 11.328125 20.140625 9.421875 
Q 21.96875 7.515625 27.59375 7.515625 
L 36.8125 7.515625 
L 36.8125 0 
L 27.59375 0 
Q 17.1875 0 13.234375 3.875 
Q 9.28125 7.765625 9.28125 18.015625 
L 9.28125 47.703125 
L 2.6875 47.703125 
L 2.6875 54.6875 
L 9.28125 54.6875 
L 9.28125 70.21875 
z
" id="DejaVuSans-116"/>
    <path d="M 11.625 54.6875 
L 54.296875 54.6875 
L 52.6875 46.484375 
L 11.53125 7.171875 
L 45.515625 7.171875 
L 44.09375 0 
L -0.296875 0 
L 1.3125 8.203125 
L 42.484375 47.515625 
L 10.203125 47.515625 
z
" id="DejaVuSans-Oblique-122"/>
    <path d="M 16.890625 72.90625 
L 30.171875 72.90625 
L 50.296875 10.40625 
L 62.5 72.90625 
L 72.125 72.90625 
L 57.90625 0 
L 44.578125 0 
L 24.515625 62.890625 
L 12.3125 0 
L 2.6875 0 
z
" id="DejaVuSans-Oblique-78"/>
   </defs>
   <g style="fill:#262626;" transform="translate(98.385937 16.56)scale(0.12 -0.12)">
    <use transform="translate(0 0.90625)" xlink:href="#DejaVuSans-66"/>
    <use transform="translate(68.603516 0.90625)" xlink:href="#DejaVuSans-105"/>
    <use transform="translate(96.386719 0.90625)" xlink:href="#DejaVuSans-110"/>
    <use transform="translate(159.765625 0.90625)" xlink:href="#DejaVuSans-111"/>
    <use transform="translate(220.947266 0.90625)" xlink:href="#DejaVuSans-109"/>
    <use transform="translate(318.359375 0.90625)" xlink:href="#DejaVuSans-97"/>
    <use transform="translate(379.638672 0.90625)" xlink:href="#DejaVuSans-108"/>
    <use transform="translate(407.421875 0.90625)" xlink:href="#DejaVuSans-32"/>
    <use transform="translate(439.208984 0.90625)" xlink:href="#DejaVuSans-97"/>
    <use transform="translate(500.488281 0.90625)" xlink:href="#DejaVuSans-115"/>
    <use transform="translate(552.587891 0.90625)" xlink:href="#DejaVuSans-32"/>
    <use transform="translate(584.375 0.90625)" xlink:href="#DejaVuSans-108"/>
    <use transform="translate(612.158203 0.90625)" xlink:href="#DejaVuSans-105"/>
    <use transform="translate(639.941406 0.90625)" xlink:href="#DejaVuSans-107"/>
    <use transform="translate(697.851562 0.90625)" xlink:href="#DejaVuSans-101"/>
    <use transform="translate(759.375 0.90625)" xlink:href="#DejaVuSans-108"/>
    <use transform="translate(787.158203 0.90625)" xlink:href="#DejaVuSans-105"/>
    <use transform="translate(814.941406 0.90625)" xlink:href="#DejaVuSans-104"/>
    <use transform="translate(878.320312 0.90625)" xlink:href="#DejaVuSans-111"/>
    <use transform="translate(939.501953 0.90625)" xlink:href="#DejaVuSans-111"/>
    <use transform="translate(1000.683594 0.90625)" xlink:href="#DejaVuSans-100"/>
    <use transform="translate(1064.160156 0.90625)" xlink:href="#DejaVuSans-32"/>
    <use transform="translate(1095.947266 0.90625)" xlink:href="#DejaVuSans-102"/>
    <use transform="translate(1131.152344 0.90625)" xlink:href="#DejaVuSans-117"/>
    <use transform="translate(1194.53125 0.90625)" xlink:href="#DejaVuSans-110"/>
    <use transform="translate(1257.910156 0.90625)" xlink:href="#DejaVuSans-99"/>
    <use transform="translate(1312.890625 0.90625)" xlink:href="#DejaVuSans-116"/>
    <use transform="translate(1352.099609 0.90625)" xlink:href="#DejaVuSans-105"/>
    <use transform="translate(1379.882812 0.90625)" xlink:href="#DejaVuSans-111"/>
    <use transform="translate(1441.064453 0.90625)" xlink:href="#DejaVuSans-110"/>
    <use transform="translate(1504.443359 0.90625)" xlink:href="#DejaVuSans-32"/>
    <use transform="translate(1536.230469 0.90625)" xlink:href="#DejaVuSans-Oblique-112"/>
    <use transform="translate(1599.707031 0.90625)" xlink:href="#DejaVuSans-40"/>
    <use transform="translate(1638.720703 0.90625)" xlink:href="#DejaVuSans-Oblique-122"/>
    <use transform="translate(1710.693359 0.90625)" xlink:href="#DejaVuSans-8739"/>
    <use transform="translate(1780.175781 0.90625)" xlink:href="#DejaVuSans-Oblique-78"/>
    <use transform="translate(1854.980469 0.90625)" xlink:href="#DejaVuSans-44"/>
    <use transform="translate(1906.25 0.90625)" xlink:href="#DejaVuSans-Oblique-952"/>
    <use transform="translate(1967.431641 0.90625)" xlink:href="#DejaVuSans-41"/>
   </g>
  </g>
 </g>
 <defs>
  <clipPath id="p8d1d329e78">
   <rect height="163.08" width="152.181818" x="56.805937" y="39.6"/>
  </clipPath>
  <clipPath id="p6f4907b408">
   <rect height="163.08" width="152.181818" x="239.424119" y="39.6"/>
  </clipPath>
 </defs>
</svg>
