<?xml version="1.0" encoding="UTF-8" standalone="no"?>
<!DOCTYPE svg PUBLIC "-//W3C//DTD SVG 1.1//EN"
 "http://www.w3.org/Graphics/SVG/1.1/DTD/svg11.dtd">
<!-- Generated by graphviz version 2.44.1 (20200629.0846)
 -->
<!-- Pages: 1 -->
<svg width="301pt" height="233pt"
 viewBox="0.00 0.00 300.97 232.91" xmlns="http://www.w3.org/2000/svg" xmlns:xlink="http://www.w3.org/1999/xlink">
<g id="graph0" class="graph" transform="scale(1 1) rotate(0) translate(4 228.91)">
<polygon fill="white" stroke="transparent" points="-4,4 -4,-228.91 296.97,-228.91 296.97,4 -4,4"/>
<g id="clust1" class="cluster">
<title>cluster109</title>
<path fill="none" stroke="black" d="M104.72,-8C104.72,-8 180.72,-8 180.72,-8 186.72,-8 192.72,-14 192.72,-20 192.72,-20 192.72,-109.95 192.72,-109.95 192.72,-115.95 186.72,-121.95 180.72,-121.95 180.72,-121.95 104.72,-121.95 104.72,-121.95 98.72,-121.95 92.72,-115.95 92.72,-109.95 92.72,-109.95 92.72,-20 92.72,-20 92.72,-14 98.72,-8 104.72,-8"/>
<text text-anchor="middle" x="174.22" y="-15.8" font-family="Times,serif" font-size="14.00">109</text>
</g>
<!-- a -->
<g id="node1" class="node">
<title>a</title>
<ellipse fill="none" stroke="black" cx="41.72" cy="-187.43" rx="41.94" ry="37.45"/>
<text text-anchor="middle" x="41.72" y="-198.73" font-family="Times,serif" font-size="14.00">a</text>
<text text-anchor="middle" x="41.72" y="-183.73" font-family="Times,serif" font-size="14.00">~</text>
<text text-anchor="middle" x="41.72" y="-168.73" font-family="Times,serif" font-size="14.00">Normal</text>
</g>
<!-- y_like -->
<g id="node4" class="node">
<title>y_like</title>
<ellipse fill="lightgrey" stroke="black" cx="142.72" cy="-76.48" rx="41.94" ry="37.45"/>
<text text-anchor="middle" x="142.72" y="-87.78" font-family="Times,serif" font-size="14.00">y_like</text>
<text text-anchor="middle" x="142.72" y="-72.78" font-family="Times,serif" font-size="14.00">~</text>
<text text-anchor="middle" x="142.72" y="-57.78" font-family="Times,serif" font-size="14.00">Normal</text>
</g>
<!-- a&#45;&gt;y_like -->
<g id="edge1" class="edge">
<title>a&#45;&gt;y_like</title>
<path fill="none" stroke="black" d="M67.99,-158.09C80.63,-144.45 95.93,-127.95 109.38,-113.44"/>
<polygon fill="black" stroke="black" points="112,-115.77 116.23,-106.06 106.86,-111.01 112,-115.77"/>
</g>
<!-- b -->
<g id="node2" class="node">
<title>b</title>
<ellipse fill="none" stroke="black" cx="142.72" cy="-187.43" rx="41.94" ry="37.45"/>
<text text-anchor="middle" x="142.72" y="-198.73" font-family="Times,serif" font-size="14.00">b</text>
<text text-anchor="middle" x="142.72" y="-183.73" font-family="Times,serif" font-size="14.00">~</text>
<text text-anchor="middle" x="142.72" y="-168.73" font-family="Times,serif" font-size="14.00">Normal</text>
</g>
<!-- b&#45;&gt;y_like -->
<g id="edge3" class="edge">
<title>b&#45;&gt;y_like</title>
<path fill="none" stroke="black" d="M142.72,-149.85C142.72,-141.67 142.72,-132.89 142.72,-124.37"/>
<polygon fill="black" stroke="black" points="146.22,-124.15 142.72,-114.15 139.22,-124.15 146.22,-124.15"/>
</g>
<!-- sigma -->
<g id="node3" class="node">
<title>sigma</title>
<ellipse fill="none" stroke="black" cx="247.72" cy="-187.43" rx="45.01" ry="37.45"/>
<text text-anchor="middle" x="247.72" y="-198.73" font-family="Times,serif" font-size="14.00">sigma</text>
<text text-anchor="middle" x="247.72" y="-183.73" font-family="Times,serif" font-size="14.00">~</text>
<text text-anchor="middle" x="247.72" y="-168.73" font-family="Times,serif" font-size="14.00">Uniform</text>
</g>
<!-- sigma&#45;&gt;y_like -->
<g id="edge2" class="edge">
<title>sigma&#45;&gt;y_like</title>
<path fill="none" stroke="black" d="M219.86,-157.52C206.61,-143.78 190.66,-127.22 176.71,-112.75"/>
<polygon fill="black" stroke="black" points="179.08,-110.17 169.62,-105.39 174.04,-115.02 179.08,-110.17"/>
</g>
</g>
</svg>
