<?xml version="1.0" encoding="utf-8" standalone="no"?>
<!DOCTYPE svg PUBLIC "-//W3C//DTD SVG 1.1//EN"
  "http://www.w3.org/Graphics/SVG/1.1/DTD/svg11.dtd">
<!-- Created with matplotlib (https://matplotlib.org/) -->
<svg height="504pt" version="1.1" viewBox="0 0 1512 504" width="1512pt" xmlns="http://www.w3.org/2000/svg" xmlns:xlink="http://www.w3.org/1999/xlink">
 <defs>
  <style type="text/css">
*{stroke-linecap:butt;stroke-linejoin:round;}
  </style>
 </defs>
 <g id="figure_1">
  <g id="patch_1">
   <path d="M 0 504 
L 1512 504 
L 1512 0 
L 0 0 
z
" style="fill:#ffffff;"/>
  </g>
  <g id="axes_1">
   <g id="patch_2">
    <path d="M 189 441 
L 533.647059 441 
L 533.647059 60.48 
L 189 60.48 
z
" style="fill:#eaeaf2;"/>
   </g>
   <g id="matplotlib.axis_1">
    <g id="xtick_1">
     <g id="line2d_1">
      <path clip-path="url(#p119ff79774)" d="M 201.500972 441 
L 201.500972 60.48 
" style="fill:none;stroke:#ffffff;stroke-linecap:round;"/>
     </g>
     <g id="text_1">
      <!-- 0.0 -->
      <defs>
       <path d="M 31.78125 66.40625 
Q 24.171875 66.40625 20.328125 58.90625 
Q 16.5 51.421875 16.5 36.375 
Q 16.5 21.390625 20.328125 13.890625 
Q 24.171875 6.390625 31.78125 6.390625 
Q 39.453125 6.390625 43.28125 13.890625 
Q 47.125 21.390625 47.125 36.375 
Q 47.125 51.421875 43.28125 58.90625 
Q 39.453125 66.40625 31.78125 66.40625 
z
M 31.78125 74.21875 
Q 44.046875 74.21875 50.515625 64.515625 
Q 56.984375 54.828125 56.984375 36.375 
Q 56.984375 17.96875 50.515625 8.265625 
Q 44.046875 -1.421875 31.78125 -1.421875 
Q 19.53125 -1.421875 13.0625 8.265625 
Q 6.59375 17.96875 6.59375 36.375 
Q 6.59375 54.828125 13.0625 64.515625 
Q 19.53125 74.21875 31.78125 74.21875 
z
" id="DejaVuSans-48"/>
       <path d="M 10.6875 12.40625 
L 21 12.40625 
L 21 0 
L 10.6875 0 
z
" id="DejaVuSans-46"/>
      </defs>
      <g style="fill:#262626;" transform="translate(192.754254 458.858281)scale(0.11 -0.11)">
       <use xlink:href="#DejaVuSans-48"/>
       <use x="63.623047" xlink:href="#DejaVuSans-46"/>
       <use x="95.410156" xlink:href="#DejaVuSans-48"/>
      </g>
     </g>
    </g>
    <g id="xtick_2">
     <g id="line2d_2">
      <path clip-path="url(#p119ff79774)" d="M 264.797035 441 
L 264.797035 60.48 
" style="fill:none;stroke:#ffffff;stroke-linecap:round;"/>
     </g>
     <g id="text_2">
      <!-- 0.2 -->
      <defs>
       <path d="M 19.1875 8.296875 
L 53.609375 8.296875 
L 53.609375 0 
L 7.328125 0 
L 7.328125 8.296875 
Q 12.9375 14.109375 22.625 23.890625 
Q 32.328125 33.6875 34.8125 36.53125 
Q 39.546875 41.84375 41.421875 45.53125 
Q 43.3125 49.21875 43.3125 52.78125 
Q 43.3125 58.59375 39.234375 62.25 
Q 35.15625 65.921875 28.609375 65.921875 
Q 23.96875 65.921875 18.8125 64.3125 
Q 13.671875 62.703125 7.8125 59.421875 
L 7.8125 69.390625 
Q 13.765625 71.78125 18.9375 73 
Q 24.125 74.21875 28.421875 74.21875 
Q 39.75 74.21875 46.484375 68.546875 
Q 53.21875 62.890625 53.21875 53.421875 
Q 53.21875 48.921875 51.53125 44.890625 
Q 49.859375 40.875 45.40625 35.40625 
Q 44.1875 33.984375 37.640625 27.21875 
Q 31.109375 20.453125 19.1875 8.296875 
z
" id="DejaVuSans-50"/>
      </defs>
      <g style="fill:#262626;" transform="translate(256.050316 458.858281)scale(0.11 -0.11)">
       <use xlink:href="#DejaVuSans-48"/>
       <use x="63.623047" xlink:href="#DejaVuSans-46"/>
       <use x="95.410156" xlink:href="#DejaVuSans-50"/>
      </g>
     </g>
    </g>
    <g id="xtick_3">
     <g id="line2d_3">
      <path clip-path="url(#p119ff79774)" d="M 328.093097 441 
L 328.093097 60.48 
" style="fill:none;stroke:#ffffff;stroke-linecap:round;"/>
     </g>
     <g id="text_3">
      <!-- 0.4 -->
      <defs>
       <path d="M 37.796875 64.3125 
L 12.890625 25.390625 
L 37.796875 25.390625 
z
M 35.203125 72.90625 
L 47.609375 72.90625 
L 47.609375 25.390625 
L 58.015625 25.390625 
L 58.015625 17.1875 
L 47.609375 17.1875 
L 47.609375 0 
L 37.796875 0 
L 37.796875 17.1875 
L 4.890625 17.1875 
L 4.890625 26.703125 
z
" id="DejaVuSans-52"/>
      </defs>
      <g style="fill:#262626;" transform="translate(319.346378 458.858281)scale(0.11 -0.11)">
       <use xlink:href="#DejaVuSans-48"/>
       <use x="63.623047" xlink:href="#DejaVuSans-46"/>
       <use x="95.410156" xlink:href="#DejaVuSans-52"/>
      </g>
     </g>
    </g>
    <g id="xtick_4">
     <g id="line2d_4">
      <path clip-path="url(#p119ff79774)" d="M 391.389159 441 
L 391.389159 60.48 
" style="fill:none;stroke:#ffffff;stroke-linecap:round;"/>
     </g>
     <g id="text_4">
      <!-- 0.6 -->
      <defs>
       <path d="M 33.015625 40.375 
Q 26.375 40.375 22.484375 35.828125 
Q 18.609375 31.296875 18.609375 23.390625 
Q 18.609375 15.53125 22.484375 10.953125 
Q 26.375 6.390625 33.015625 6.390625 
Q 39.65625 6.390625 43.53125 10.953125 
Q 47.40625 15.53125 47.40625 23.390625 
Q 47.40625 31.296875 43.53125 35.828125 
Q 39.65625 40.375 33.015625 40.375 
z
M 52.59375 71.296875 
L 52.59375 62.3125 
Q 48.875 64.0625 45.09375 64.984375 
Q 41.3125 65.921875 37.59375 65.921875 
Q 27.828125 65.921875 22.671875 59.328125 
Q 17.53125 52.734375 16.796875 39.40625 
Q 19.671875 43.65625 24.015625 45.921875 
Q 28.375 48.1875 33.59375 48.1875 
Q 44.578125 48.1875 50.953125 41.515625 
Q 57.328125 34.859375 57.328125 23.390625 
Q 57.328125 12.15625 50.6875 5.359375 
Q 44.046875 -1.421875 33.015625 -1.421875 
Q 20.359375 -1.421875 13.671875 8.265625 
Q 6.984375 17.96875 6.984375 36.375 
Q 6.984375 53.65625 15.1875 63.9375 
Q 23.390625 74.21875 37.203125 74.21875 
Q 40.921875 74.21875 44.703125 73.484375 
Q 48.484375 72.75 52.59375 71.296875 
z
" id="DejaVuSans-54"/>
      </defs>
      <g style="fill:#262626;" transform="translate(382.64244 458.858281)scale(0.11 -0.11)">
       <use xlink:href="#DejaVuSans-48"/>
       <use x="63.623047" xlink:href="#DejaVuSans-46"/>
       <use x="95.410156" xlink:href="#DejaVuSans-54"/>
      </g>
     </g>
    </g>
    <g id="xtick_5">
     <g id="line2d_5">
      <path clip-path="url(#p119ff79774)" d="M 454.685221 441 
L 454.685221 60.48 
" style="fill:none;stroke:#ffffff;stroke-linecap:round;"/>
     </g>
     <g id="text_5">
      <!-- 0.8 -->
      <defs>
       <path d="M 31.78125 34.625 
Q 24.75 34.625 20.71875 30.859375 
Q 16.703125 27.09375 16.703125 20.515625 
Q 16.703125 13.921875 20.71875 10.15625 
Q 24.75 6.390625 31.78125 6.390625 
Q 38.8125 6.390625 42.859375 10.171875 
Q 46.921875 13.96875 46.921875 20.515625 
Q 46.921875 27.09375 42.890625 30.859375 
Q 38.875 34.625 31.78125 34.625 
z
M 21.921875 38.8125 
Q 15.578125 40.375 12.03125 44.71875 
Q 8.5 49.078125 8.5 55.328125 
Q 8.5 64.0625 14.71875 69.140625 
Q 20.953125 74.21875 31.78125 74.21875 
Q 42.671875 74.21875 48.875 69.140625 
Q 55.078125 64.0625 55.078125 55.328125 
Q 55.078125 49.078125 51.53125 44.71875 
Q 48 40.375 41.703125 38.8125 
Q 48.828125 37.15625 52.796875 32.3125 
Q 56.78125 27.484375 56.78125 20.515625 
Q 56.78125 9.90625 50.3125 4.234375 
Q 43.84375 -1.421875 31.78125 -1.421875 
Q 19.734375 -1.421875 13.25 4.234375 
Q 6.78125 9.90625 6.78125 20.515625 
Q 6.78125 27.484375 10.78125 32.3125 
Q 14.796875 37.15625 21.921875 38.8125 
z
M 18.3125 54.390625 
Q 18.3125 48.734375 21.84375 45.5625 
Q 25.390625 42.390625 31.78125 42.390625 
Q 38.140625 42.390625 41.71875 45.5625 
Q 45.3125 48.734375 45.3125 54.390625 
Q 45.3125 60.0625 41.71875 63.234375 
Q 38.140625 66.40625 31.78125 66.40625 
Q 25.390625 66.40625 21.84375 63.234375 
Q 18.3125 60.0625 18.3125 54.390625 
z
" id="DejaVuSans-56"/>
      </defs>
      <g style="fill:#262626;" transform="translate(445.938502 458.858281)scale(0.11 -0.11)">
       <use xlink:href="#DejaVuSans-48"/>
       <use x="63.623047" xlink:href="#DejaVuSans-46"/>
       <use x="95.410156" xlink:href="#DejaVuSans-56"/>
      </g>
     </g>
    </g>
    <g id="xtick_6">
     <g id="line2d_6">
      <path clip-path="url(#p119ff79774)" d="M 517.981283 441 
L 517.981283 60.48 
" style="fill:none;stroke:#ffffff;stroke-linecap:round;"/>
     </g>
     <g id="text_6">
      <!-- 1.0 -->
      <defs>
       <path d="M 12.40625 8.296875 
L 28.515625 8.296875 
L 28.515625 63.921875 
L 10.984375 60.40625 
L 10.984375 69.390625 
L 28.421875 72.90625 
L 38.28125 72.90625 
L 38.28125 8.296875 
L 54.390625 8.296875 
L 54.390625 0 
L 12.40625 0 
z
" id="DejaVuSans-49"/>
      </defs>
      <g style="fill:#262626;" transform="translate(509.234565 458.858281)scale(0.11 -0.11)">
       <use xlink:href="#DejaVuSans-49"/>
       <use x="63.623047" xlink:href="#DejaVuSans-46"/>
       <use x="95.410156" xlink:href="#DejaVuSans-48"/>
      </g>
     </g>
    </g>
    <g id="text_7">
     <!-- $\theta$ -->
     <defs>
      <path d="M 45.515625 34.671875 
L 14.453125 34.671875 
Q 12.359375 20.0625 14.5 13.875 
Q 17.1875 6.25 24.46875 6.25 
Q 31.78125 6.25 37.359375 13.921875 
Q 42.234375 20.65625 45.515625 34.671875 
z
M 47.015625 42.96875 
Q 48.34375 56.84375 46.625 61.71875 
Q 43.953125 69.4375 36.765625 69.4375 
Q 29.296875 69.4375 23.828125 61.8125 
Q 19.53125 55.671875 16.15625 42.96875 
z
M 38.1875 76.765625 
Q 49.90625 76.765625 54.59375 66.40625 
Q 59.28125 56.109375 55.71875 37.84375 
Q 52.203125 19.625 43.453125 9.28125 
Q 34.765625 -1.125 23.046875 -1.125 
Q 11.28125 -1.125 6.640625 9.28125 
Q 2 19.625 5.515625 37.84375 
Q 9.078125 56.109375 17.71875 66.40625 
Q 26.421875 76.765625 38.1875 76.765625 
z
" id="DejaVuSans-Oblique-952"/>
     </defs>
     <g style="fill:#262626;" transform="translate(357.603529 474.264063)scale(0.12 -0.12)">
      <use transform="translate(0 0.234375)" xlink:href="#DejaVuSans-Oblique-952"/>
     </g>
    </g>
   </g>
   <g id="matplotlib.axis_2">
    <g id="ytick_1">
     <g id="line2d_7">
      <path clip-path="url(#p119ff79774)" d="M 189 423.703636 
L 533.647059 423.703636 
" style="fill:none;stroke:#ffffff;stroke-linecap:round;"/>
     </g>
     <g id="text_8">
      <!-- 0.0 -->
      <g style="fill:#262626;" transform="translate(162.006563 427.882777)scale(0.11 -0.11)">
       <use xlink:href="#DejaVuSans-48"/>
       <use x="63.623047" xlink:href="#DejaVuSans-46"/>
       <use x="95.410156" xlink:href="#DejaVuSans-48"/>
      </g>
     </g>
    </g>
    <g id="ytick_2">
     <g id="line2d_8">
      <path clip-path="url(#p119ff79774)" d="M 189 361.617092 
L 533.647059 361.617092 
" style="fill:none;stroke:#ffffff;stroke-linecap:round;"/>
     </g>
     <g id="text_9">
      <!-- 0.5 -->
      <defs>
       <path d="M 10.796875 72.90625 
L 49.515625 72.90625 
L 49.515625 64.59375 
L 19.828125 64.59375 
L 19.828125 46.734375 
Q 21.96875 47.46875 24.109375 47.828125 
Q 26.265625 48.1875 28.421875 48.1875 
Q 40.625 48.1875 47.75 41.5 
Q 54.890625 34.8125 54.890625 23.390625 
Q 54.890625 11.625 47.5625 5.09375 
Q 40.234375 -1.421875 26.90625 -1.421875 
Q 22.3125 -1.421875 17.546875 -0.640625 
Q 12.796875 0.140625 7.71875 1.703125 
L 7.71875 11.625 
Q 12.109375 9.234375 16.796875 8.0625 
Q 21.484375 6.890625 26.703125 6.890625 
Q 35.15625 6.890625 40.078125 11.328125 
Q 45.015625 15.765625 45.015625 23.390625 
Q 45.015625 31 40.078125 35.4375 
Q 35.15625 39.890625 26.703125 39.890625 
Q 22.75 39.890625 18.8125 39.015625 
Q 14.890625 38.140625 10.796875 36.28125 
z
" id="DejaVuSans-53"/>
      </defs>
      <g style="fill:#262626;" transform="translate(162.006563 365.796233)scale(0.11 -0.11)">
       <use xlink:href="#DejaVuSans-48"/>
       <use x="63.623047" xlink:href="#DejaVuSans-46"/>
       <use x="95.410156" xlink:href="#DejaVuSans-53"/>
      </g>
     </g>
    </g>
    <g id="ytick_3">
     <g id="line2d_9">
      <path clip-path="url(#p119ff79774)" d="M 189 299.530547 
L 533.647059 299.530547 
" style="fill:none;stroke:#ffffff;stroke-linecap:round;"/>
     </g>
     <g id="text_10">
      <!-- 1.0 -->
      <g style="fill:#262626;" transform="translate(162.006563 303.709688)scale(0.11 -0.11)">
       <use xlink:href="#DejaVuSans-49"/>
       <use x="63.623047" xlink:href="#DejaVuSans-46"/>
       <use x="95.410156" xlink:href="#DejaVuSans-48"/>
      </g>
     </g>
    </g>
    <g id="ytick_4">
     <g id="line2d_10">
      <path clip-path="url(#p119ff79774)" d="M 189 237.444003 
L 533.647059 237.444003 
" style="fill:none;stroke:#ffffff;stroke-linecap:round;"/>
     </g>
     <g id="text_11">
      <!-- 1.5 -->
      <g style="fill:#262626;" transform="translate(162.006563 241.623144)scale(0.11 -0.11)">
       <use xlink:href="#DejaVuSans-49"/>
       <use x="63.623047" xlink:href="#DejaVuSans-46"/>
       <use x="95.410156" xlink:href="#DejaVuSans-53"/>
      </g>
     </g>
    </g>
    <g id="ytick_5">
     <g id="line2d_11">
      <path clip-path="url(#p119ff79774)" d="M 189 175.357459 
L 533.647059 175.357459 
" style="fill:none;stroke:#ffffff;stroke-linecap:round;"/>
     </g>
     <g id="text_12">
      <!-- 2.0 -->
      <g style="fill:#262626;" transform="translate(162.006563 179.536599)scale(0.11 -0.11)">
       <use xlink:href="#DejaVuSans-50"/>
       <use x="63.623047" xlink:href="#DejaVuSans-46"/>
       <use x="95.410156" xlink:href="#DejaVuSans-48"/>
      </g>
     </g>
    </g>
    <g id="ytick_6">
     <g id="line2d_12">
      <path clip-path="url(#p119ff79774)" d="M 189 113.270914 
L 533.647059 113.270914 
" style="fill:none;stroke:#ffffff;stroke-linecap:round;"/>
     </g>
     <g id="text_13">
      <!-- 2.5 -->
      <g style="fill:#262626;" transform="translate(162.006563 117.450055)scale(0.11 -0.11)">
       <use xlink:href="#DejaVuSans-50"/>
       <use x="63.623047" xlink:href="#DejaVuSans-46"/>
       <use x="95.410156" xlink:href="#DejaVuSans-53"/>
      </g>
     </g>
    </g>
    <g id="text_14">
     <!-- density -->
     <defs>
      <path d="M 45.40625 46.390625 
L 45.40625 75.984375 
L 54.390625 75.984375 
L 54.390625 0 
L 45.40625 0 
L 45.40625 8.203125 
Q 42.578125 3.328125 38.25 0.953125 
Q 33.9375 -1.421875 27.875 -1.421875 
Q 17.96875 -1.421875 11.734375 6.484375 
Q 5.515625 14.40625 5.515625 27.296875 
Q 5.515625 40.1875 11.734375 48.09375 
Q 17.96875 56 27.875 56 
Q 33.9375 56 38.25 53.625 
Q 42.578125 51.265625 45.40625 46.390625 
z
M 14.796875 27.296875 
Q 14.796875 17.390625 18.875 11.75 
Q 22.953125 6.109375 30.078125 6.109375 
Q 37.203125 6.109375 41.296875 11.75 
Q 45.40625 17.390625 45.40625 27.296875 
Q 45.40625 37.203125 41.296875 42.84375 
Q 37.203125 48.484375 30.078125 48.484375 
Q 22.953125 48.484375 18.875 42.84375 
Q 14.796875 37.203125 14.796875 27.296875 
z
" id="DejaVuSans-100"/>
      <path d="M 56.203125 29.59375 
L 56.203125 25.203125 
L 14.890625 25.203125 
Q 15.484375 15.921875 20.484375 11.0625 
Q 25.484375 6.203125 34.421875 6.203125 
Q 39.59375 6.203125 44.453125 7.46875 
Q 49.3125 8.734375 54.109375 11.28125 
L 54.109375 2.78125 
Q 49.265625 0.734375 44.1875 -0.34375 
Q 39.109375 -1.421875 33.890625 -1.421875 
Q 20.796875 -1.421875 13.15625 6.1875 
Q 5.515625 13.8125 5.515625 26.8125 
Q 5.515625 40.234375 12.765625 48.109375 
Q 20.015625 56 32.328125 56 
Q 43.359375 56 49.78125 48.890625 
Q 56.203125 41.796875 56.203125 29.59375 
z
M 47.21875 32.234375 
Q 47.125 39.59375 43.09375 43.984375 
Q 39.0625 48.390625 32.421875 48.390625 
Q 24.90625 48.390625 20.390625 44.140625 
Q 15.875 39.890625 15.1875 32.171875 
z
" id="DejaVuSans-101"/>
      <path d="M 54.890625 33.015625 
L 54.890625 0 
L 45.90625 0 
L 45.90625 32.71875 
Q 45.90625 40.484375 42.875 44.328125 
Q 39.84375 48.1875 33.796875 48.1875 
Q 26.515625 48.1875 22.3125 43.546875 
Q 18.109375 38.921875 18.109375 30.90625 
L 18.109375 0 
L 9.078125 0 
L 9.078125 54.6875 
L 18.109375 54.6875 
L 18.109375 46.1875 
Q 21.34375 51.125 25.703125 53.5625 
Q 30.078125 56 35.796875 56 
Q 45.21875 56 50.046875 50.171875 
Q 54.890625 44.34375 54.890625 33.015625 
z
" id="DejaVuSans-110"/>
      <path d="M 44.28125 53.078125 
L 44.28125 44.578125 
Q 40.484375 46.53125 36.375 47.5 
Q 32.28125 48.484375 27.875 48.484375 
Q 21.1875 48.484375 17.84375 46.4375 
Q 14.5 44.390625 14.5 40.28125 
Q 14.5 37.15625 16.890625 35.375 
Q 19.28125 33.59375 26.515625 31.984375 
L 29.59375 31.296875 
Q 39.15625 29.25 43.1875 25.515625 
Q 47.21875 21.78125 47.21875 15.09375 
Q 47.21875 7.46875 41.1875 3.015625 
Q 35.15625 -1.421875 24.609375 -1.421875 
Q 20.21875 -1.421875 15.453125 -0.5625 
Q 10.6875 0.296875 5.421875 2 
L 5.421875 11.28125 
Q 10.40625 8.6875 15.234375 7.390625 
Q 20.0625 6.109375 24.8125 6.109375 
Q 31.15625 6.109375 34.5625 8.28125 
Q 37.984375 10.453125 37.984375 14.40625 
Q 37.984375 18.0625 35.515625 20.015625 
Q 33.0625 21.96875 24.703125 23.78125 
L 21.578125 24.515625 
Q 13.234375 26.265625 9.515625 29.90625 
Q 5.8125 33.546875 5.8125 39.890625 
Q 5.8125 47.609375 11.28125 51.796875 
Q 16.75 56 26.8125 56 
Q 31.78125 56 36.171875 55.265625 
Q 40.578125 54.546875 44.28125 53.078125 
z
" id="DejaVuSans-115"/>
      <path d="M 9.421875 54.6875 
L 18.40625 54.6875 
L 18.40625 0 
L 9.421875 0 
z
M 9.421875 75.984375 
L 18.40625 75.984375 
L 18.40625 64.59375 
L 9.421875 64.59375 
z
" id="DejaVuSans-105"/>
      <path d="M 18.3125 70.21875 
L 18.3125 54.6875 
L 36.8125 54.6875 
L 36.8125 47.703125 
L 18.3125 47.703125 
L 18.3125 18.015625 
Q 18.3125 11.328125 20.140625 9.421875 
Q 21.96875 7.515625 27.59375 7.515625 
L 36.8125 7.515625 
L 36.8125 0 
L 27.59375 0 
Q 17.1875 0 13.234375 3.875 
Q 9.28125 7.765625 9.28125 18.015625 
L 9.28125 47.703125 
L 2.6875 47.703125 
L 2.6875 54.6875 
L 9.28125 54.6875 
L 9.28125 70.21875 
z
" id="DejaVuSans-116"/>
      <path d="M 32.171875 -5.078125 
Q 28.375 -14.84375 24.75 -17.8125 
Q 21.140625 -20.796875 15.09375 -20.796875 
L 7.90625 -20.796875 
L 7.90625 -13.28125 
L 13.1875 -13.28125 
Q 16.890625 -13.28125 18.9375 -11.515625 
Q 21 -9.765625 23.484375 -3.21875 
L 25.09375 0.875 
L 2.984375 54.6875 
L 12.5 54.6875 
L 29.59375 11.921875 
L 46.6875 54.6875 
L 56.203125 54.6875 
z
" id="DejaVuSans-121"/>
     </defs>
     <g style="fill:#262626;" transform="translate(155.510938 272.739375)rotate(-90)scale(0.12 -0.12)">
      <use xlink:href="#DejaVuSans-100"/>
      <use x="63.476562" xlink:href="#DejaVuSans-101"/>
      <use x="125" xlink:href="#DejaVuSans-110"/>
      <use x="188.378906" xlink:href="#DejaVuSans-115"/>
      <use x="240.478516" xlink:href="#DejaVuSans-105"/>
      <use x="268.261719" xlink:href="#DejaVuSans-116"/>
      <use x="307.470703" xlink:href="#DejaVuSans-121"/>
     </g>
    </g>
   </g>
   <g id="PolyCollection_1">
    <defs>
     <path d="M 204.665775 -80.296364 
L 204.665775 -426.223636 
L 207.830579 -361.296486 
L 210.995382 -329.123128 
L 214.160185 -308.555524 
L 217.324988 -293.780248 
L 220.489791 -282.420789 
L 223.654594 -273.289379 
L 226.819397 -265.713522 
L 229.9842 -259.278374 
L 233.149003 -253.711421 
L 236.313807 -248.824811 
L 239.47861 -244.484021 
L 242.643413 -240.589682 
L 245.808216 -237.066486 
L 248.973019 -233.85611 
L 252.137822 -230.912544 
L 255.302625 -228.198904 
L 258.467428 -225.68521 
L 261.632231 -223.34679 
L 264.797035 -221.163118 
L 267.961838 -219.116952 
L 271.126641 -217.193677 
L 274.291444 -215.38081 
L 277.456247 -213.667611 
L 280.62105 -212.044776 
L 283.785853 -210.504201 
L 286.950656 -209.038785 
L 290.115459 -207.642274 
L 293.280263 -206.309136 
L 296.445066 -205.034455 
L 299.609869 -203.813841 
L 302.774672 -202.643366 
L 305.939475 -201.519498 
L 309.104278 -200.43905 
L 312.269081 -199.39914 
L 315.433884 -198.397152 
L 318.598687 -197.430706 
L 321.763491 -196.49763 
L 324.928294 -195.595939 
L 328.093097 -194.723813 
L 331.2579 -193.879577 
L 334.422703 -193.061692 
L 337.587506 -192.268736 
L 340.752309 -191.499397 
L 343.917112 -190.752456 
L 347.081915 -190.026787 
L 350.246719 -189.32134 
L 353.411522 -188.635138 
L 356.576325 -187.967272 
L 359.741128 -187.316893 
L 362.905931 -186.683207 
L 366.070734 -186.065469 
L 369.235537 -185.462984 
L 372.40034 -184.875097 
L 375.565143 -184.301195 
L 378.729947 -183.740698 
L 381.89475 -183.193063 
L 385.059553 -182.657777 
L 388.224356 -182.134355 
L 391.389159 -181.62234 
L 394.553962 -181.1213 
L 397.718765 -180.630824 
L 400.883568 -180.150526 
L 404.048371 -179.680036 
L 407.213175 -179.219007 
L 410.377978 -178.767107 
L 413.542781 -178.32402 
L 416.707584 -177.889448 
L 419.872387 -177.463105 
L 423.03719 -177.044719 
L 426.201993 -176.634031 
L 429.366796 -176.230794 
L 432.531599 -175.834772 
L 435.696403 -175.445741 
L 438.861206 -175.063483 
L 442.026009 -174.687794 
L 445.190812 -174.318477 
L 448.355615 -173.955342 
L 451.520418 -173.598209 
L 454.685221 -173.246905 
L 457.850024 -172.901263 
L 461.014827 -172.561124 
L 464.179631 -172.226334 
L 467.344434 -171.896747 
L 470.509237 -171.572222 
L 473.67404 -171.252622 
L 476.838843 -170.937817 
L 480.003646 -170.62768 
L 483.168449 -170.322091 
L 486.333252 -170.020933 
L 489.498055 -169.724094 
L 492.662859 -169.431465 
L 495.827662 -169.142941 
L 498.992465 -168.858423 
L 502.157268 -168.577812 
L 505.322071 -168.301015 
L 508.486874 -168.02794 
L 511.651677 -167.758501 
L 514.81648 -167.492612 
L 517.981283 -167.230192 
L 517.981283 -80.296364 
L 517.981283 -80.296364 
L 514.81648 -80.296364 
L 511.651677 -80.296364 
L 508.486874 -80.296364 
L 505.322071 -80.296364 
L 502.157268 -80.296364 
L 498.992465 -80.296364 
L 495.827662 -80.296364 
L 492.662859 -80.296364 
L 489.498055 -80.296364 
L 486.333252 -80.296364 
L 483.168449 -80.296364 
L 480.003646 -80.296364 
L 476.838843 -80.296364 
L 473.67404 -80.296364 
L 470.509237 -80.296364 
L 467.344434 -80.296364 
L 464.179631 -80.296364 
L 461.014827 -80.296364 
L 457.850024 -80.296364 
L 454.685221 -80.296364 
L 451.520418 -80.296364 
L 448.355615 -80.296364 
L 445.190812 -80.296364 
L 442.026009 -80.296364 
L 438.861206 -80.296364 
L 435.696403 -80.296364 
L 432.531599 -80.296364 
L 429.366796 -80.296364 
L 426.201993 -80.296364 
L 423.03719 -80.296364 
L 419.872387 -80.296364 
L 416.707584 -80.296364 
L 413.542781 -80.296364 
L 410.377978 -80.296364 
L 407.213175 -80.296364 
L 404.048371 -80.296364 
L 400.883568 -80.296364 
L 397.718765 -80.296364 
L 394.553962 -80.296364 
L 391.389159 -80.296364 
L 388.224356 -80.296364 
L 385.059553 -80.296364 
L 381.89475 -80.296364 
L 378.729947 -80.296364 
L 375.565143 -80.296364 
L 372.40034 -80.296364 
L 369.235537 -80.296364 
L 366.070734 -80.296364 
L 362.905931 -80.296364 
L 359.741128 -80.296364 
L 356.576325 -80.296364 
L 353.411522 -80.296364 
L 350.246719 -80.296364 
L 347.081915 -80.296364 
L 343.917112 -80.296364 
L 340.752309 -80.296364 
L 337.587506 -80.296364 
L 334.422703 -80.296364 
L 331.2579 -80.296364 
L 328.093097 -80.296364 
L 324.928294 -80.296364 
L 321.763491 -80.296364 
L 318.598687 -80.296364 
L 315.433884 -80.296364 
L 312.269081 -80.296364 
L 309.104278 -80.296364 
L 305.939475 -80.296364 
L 302.774672 -80.296364 
L 299.609869 -80.296364 
L 296.445066 -80.296364 
L 293.280263 -80.296364 
L 290.115459 -80.296364 
L 286.950656 -80.296364 
L 283.785853 -80.296364 
L 280.62105 -80.296364 
L 277.456247 -80.296364 
L 274.291444 -80.296364 
L 271.126641 -80.296364 
L 267.961838 -80.296364 
L 264.797035 -80.296364 
L 261.632231 -80.296364 
L 258.467428 -80.296364 
L 255.302625 -80.296364 
L 252.137822 -80.296364 
L 248.973019 -80.296364 
L 245.808216 -80.296364 
L 242.643413 -80.296364 
L 239.47861 -80.296364 
L 236.313807 -80.296364 
L 233.149003 -80.296364 
L 229.9842 -80.296364 
L 226.819397 -80.296364 
L 223.654594 -80.296364 
L 220.489791 -80.296364 
L 217.324988 -80.296364 
L 214.160185 -80.296364 
L 210.995382 -80.296364 
L 207.830579 -80.296364 
L 204.665775 -80.296364 
z
" id="m94b1c66824" style="stroke:#ffffff;"/>
    </defs>
    <g clip-path="url(#p119ff79774)">
     <use style="fill:#4c72b0;stroke:#ffffff;" x="0" xlink:href="#m94b1c66824" y="504"/>
    </g>
   </g>
   <g id="patch_3">
    <path d="M 189 441 
L 189 60.48 
" style="fill:none;stroke:#ffffff;stroke-linecap:square;stroke-linejoin:miter;stroke-width:1.25;"/>
   </g>
   <g id="patch_4">
    <path d="M 533.647059 441 
L 533.647059 60.48 
" style="fill:none;stroke:#ffffff;stroke-linecap:square;stroke-linejoin:miter;stroke-width:1.25;"/>
   </g>
   <g id="patch_5">
    <path d="M 189 441 
L 533.647059 441 
" style="fill:none;stroke:#ffffff;stroke-linecap:square;stroke-linejoin:miter;stroke-width:1.25;"/>
   </g>
   <g id="patch_6">
    <path d="M 189 60.48 
L 533.647059 60.48 
" style="fill:none;stroke:#ffffff;stroke-linecap:square;stroke-linejoin:miter;stroke-width:1.25;"/>
   </g>
   <g id="text_15">
    <!-- Prior -->
    <defs>
     <path d="M 19.671875 64.796875 
L 19.671875 37.40625 
L 32.078125 37.40625 
Q 38.96875 37.40625 42.71875 40.96875 
Q 46.484375 44.53125 46.484375 51.125 
Q 46.484375 57.671875 42.71875 61.234375 
Q 38.96875 64.796875 32.078125 64.796875 
z
M 9.8125 72.90625 
L 32.078125 72.90625 
Q 44.34375 72.90625 50.609375 67.359375 
Q 56.890625 61.8125 56.890625 51.125 
Q 56.890625 40.328125 50.609375 34.8125 
Q 44.34375 29.296875 32.078125 29.296875 
L 19.671875 29.296875 
L 19.671875 0 
L 9.8125 0 
z
" id="DejaVuSans-80"/>
     <path d="M 41.109375 46.296875 
Q 39.59375 47.171875 37.8125 47.578125 
Q 36.03125 48 33.890625 48 
Q 26.265625 48 22.1875 43.046875 
Q 18.109375 38.09375 18.109375 28.8125 
L 18.109375 0 
L 9.078125 0 
L 9.078125 54.6875 
L 18.109375 54.6875 
L 18.109375 46.1875 
Q 20.953125 51.171875 25.484375 53.578125 
Q 30.03125 56 36.53125 56 
Q 37.453125 56 38.578125 55.875 
Q 39.703125 55.765625 41.0625 55.515625 
z
" id="DejaVuSans-114"/>
     <path d="M 30.609375 48.390625 
Q 23.390625 48.390625 19.1875 42.75 
Q 14.984375 37.109375 14.984375 27.296875 
Q 14.984375 17.484375 19.15625 11.84375 
Q 23.34375 6.203125 30.609375 6.203125 
Q 37.796875 6.203125 41.984375 11.859375 
Q 46.1875 17.53125 46.1875 27.296875 
Q 46.1875 37.015625 41.984375 42.703125 
Q 37.796875 48.390625 30.609375 48.390625 
z
M 30.609375 56 
Q 42.328125 56 49.015625 48.375 
Q 55.71875 40.765625 55.71875 27.296875 
Q 55.71875 13.875 49.015625 6.21875 
Q 42.328125 -1.421875 30.609375 -1.421875 
Q 18.84375 -1.421875 12.171875 6.21875 
Q 5.515625 13.875 5.515625 27.296875 
Q 5.515625 40.765625 12.171875 48.375 
Q 18.84375 56 30.609375 56 
z
" id="DejaVuSans-111"/>
    </defs>
    <g style="fill:#262626;" transform="translate(347.435404 54.48)scale(0.12 -0.12)">
     <use xlink:href="#DejaVuSans-80"/>
     <use x="60.287109" xlink:href="#DejaVuSans-114"/>
     <use x="101.400391" xlink:href="#DejaVuSans-105"/>
     <use x="129.183594" xlink:href="#DejaVuSans-111"/>
     <use x="190.365234" xlink:href="#DejaVuSans-114"/>
    </g>
   </g>
  </g>
  <g id="axes_2">
   <g id="patch_7">
    <path d="M 602.576471 441 
L 947.223529 441 
L 947.223529 60.48 
L 602.576471 60.48 
z
" style="fill:#eaeaf2;"/>
   </g>
   <g id="matplotlib.axis_3">
    <g id="xtick_7">
     <g id="line2d_13">
      <path clip-path="url(#p9804e9990d)" d="M 618.242246 441 
L 618.242246 60.48 
" style="fill:none;stroke:#ffffff;stroke-linecap:round;"/>
     </g>
     <g id="text_16">
      <!-- 0.0 -->
      <g style="fill:#262626;" transform="translate(609.495527 458.858281)scale(0.11 -0.11)">
       <use xlink:href="#DejaVuSans-48"/>
       <use x="63.623047" xlink:href="#DejaVuSans-46"/>
       <use x="95.410156" xlink:href="#DejaVuSans-48"/>
      </g>
     </g>
    </g>
    <g id="xtick_8">
     <g id="line2d_14">
      <path clip-path="url(#p9804e9990d)" d="M 680.905348 441 
L 680.905348 60.48 
" style="fill:none;stroke:#ffffff;stroke-linecap:round;"/>
     </g>
     <g id="text_17">
      <!-- 0.2 -->
      <g style="fill:#262626;" transform="translate(672.158629 458.858281)scale(0.11 -0.11)">
       <use xlink:href="#DejaVuSans-48"/>
       <use x="63.623047" xlink:href="#DejaVuSans-46"/>
       <use x="95.410156" xlink:href="#DejaVuSans-50"/>
      </g>
     </g>
    </g>
    <g id="xtick_9">
     <g id="line2d_15">
      <path clip-path="url(#p9804e9990d)" d="M 743.568449 441 
L 743.568449 60.48 
" style="fill:none;stroke:#ffffff;stroke-linecap:round;"/>
     </g>
     <g id="text_18">
      <!-- 0.4 -->
      <g style="fill:#262626;" transform="translate(734.82173 458.858281)scale(0.11 -0.11)">
       <use xlink:href="#DejaVuSans-48"/>
       <use x="63.623047" xlink:href="#DejaVuSans-46"/>
       <use x="95.410156" xlink:href="#DejaVuSans-52"/>
      </g>
     </g>
    </g>
    <g id="xtick_10">
     <g id="line2d_16">
      <path clip-path="url(#p9804e9990d)" d="M 806.231551 441 
L 806.231551 60.48 
" style="fill:none;stroke:#ffffff;stroke-linecap:round;"/>
     </g>
     <g id="text_19">
      <!-- 0.6 -->
      <g style="fill:#262626;" transform="translate(797.484832 458.858281)scale(0.11 -0.11)">
       <use xlink:href="#DejaVuSans-48"/>
       <use x="63.623047" xlink:href="#DejaVuSans-46"/>
       <use x="95.410156" xlink:href="#DejaVuSans-54"/>
      </g>
     </g>
    </g>
    <g id="xtick_11">
     <g id="line2d_17">
      <path clip-path="url(#p9804e9990d)" d="M 868.894652 441 
L 868.894652 60.48 
" style="fill:none;stroke:#ffffff;stroke-linecap:round;"/>
     </g>
     <g id="text_20">
      <!-- 0.8 -->
      <g style="fill:#262626;" transform="translate(860.147934 458.858281)scale(0.11 -0.11)">
       <use xlink:href="#DejaVuSans-48"/>
       <use x="63.623047" xlink:href="#DejaVuSans-46"/>
       <use x="95.410156" xlink:href="#DejaVuSans-56"/>
      </g>
     </g>
    </g>
    <g id="xtick_12">
     <g id="line2d_18">
      <path clip-path="url(#p9804e9990d)" d="M 931.557754 441 
L 931.557754 60.48 
" style="fill:none;stroke:#ffffff;stroke-linecap:round;"/>
     </g>
     <g id="text_21">
      <!-- 1.0 -->
      <g style="fill:#262626;" transform="translate(922.811035 458.858281)scale(0.11 -0.11)">
       <use xlink:href="#DejaVuSans-49"/>
       <use x="63.623047" xlink:href="#DejaVuSans-46"/>
       <use x="95.410156" xlink:href="#DejaVuSans-48"/>
      </g>
     </g>
    </g>
    <g id="text_22">
     <!-- $\theta$ -->
     <g style="fill:#262626;" transform="translate(771.18 474.264063)scale(0.12 -0.12)">
      <use transform="translate(0 0.234375)" xlink:href="#DejaVuSans-Oblique-952"/>
     </g>
    </g>
   </g>
   <g id="matplotlib.axis_4">
    <g id="ytick_7">
     <g id="line2d_19">
      <path clip-path="url(#p9804e9990d)" d="M 602.576471 423.703636 
L 947.223529 423.703636 
" style="fill:none;stroke:#ffffff;stroke-linecap:round;"/>
     </g>
     <g id="text_23">
      <!-- 0.0 -->
      <g style="fill:#262626;" transform="translate(575.583033 427.882777)scale(0.11 -0.11)">
       <use xlink:href="#DejaVuSans-48"/>
       <use x="63.623047" xlink:href="#DejaVuSans-46"/>
       <use x="95.410156" xlink:href="#DejaVuSans-48"/>
      </g>
     </g>
    </g>
    <g id="ytick_8">
     <g id="line2d_20">
      <path clip-path="url(#p9804e9990d)" d="M 602.576471 354.518182 
L 947.223529 354.518182 
" style="fill:none;stroke:#ffffff;stroke-linecap:round;"/>
     </g>
     <g id="text_24">
      <!-- 0.2 -->
      <g style="fill:#262626;" transform="translate(575.583033 358.697322)scale(0.11 -0.11)">
       <use xlink:href="#DejaVuSans-48"/>
       <use x="63.623047" xlink:href="#DejaVuSans-46"/>
       <use x="95.410156" xlink:href="#DejaVuSans-50"/>
      </g>
     </g>
    </g>
    <g id="ytick_9">
     <g id="line2d_21">
      <path clip-path="url(#p9804e9990d)" d="M 602.576471 285.332727 
L 947.223529 285.332727 
" style="fill:none;stroke:#ffffff;stroke-linecap:round;"/>
     </g>
     <g id="text_25">
      <!-- 0.4 -->
      <g style="fill:#262626;" transform="translate(575.583033 289.511868)scale(0.11 -0.11)">
       <use xlink:href="#DejaVuSans-48"/>
       <use x="63.623047" xlink:href="#DejaVuSans-46"/>
       <use x="95.410156" xlink:href="#DejaVuSans-52"/>
      </g>
     </g>
    </g>
    <g id="ytick_10">
     <g id="line2d_22">
      <path clip-path="url(#p9804e9990d)" d="M 602.576471 216.147273 
L 947.223529 216.147273 
" style="fill:none;stroke:#ffffff;stroke-linecap:round;"/>
     </g>
     <g id="text_26">
      <!-- 0.6 -->
      <g style="fill:#262626;" transform="translate(575.583033 220.326413)scale(0.11 -0.11)">
       <use xlink:href="#DejaVuSans-48"/>
       <use x="63.623047" xlink:href="#DejaVuSans-46"/>
       <use x="95.410156" xlink:href="#DejaVuSans-54"/>
      </g>
     </g>
    </g>
    <g id="ytick_11">
     <g id="line2d_23">
      <path clip-path="url(#p9804e9990d)" d="M 602.576471 146.961818 
L 947.223529 146.961818 
" style="fill:none;stroke:#ffffff;stroke-linecap:round;"/>
     </g>
     <g id="text_27">
      <!-- 0.8 -->
      <g style="fill:#262626;" transform="translate(575.583033 151.140959)scale(0.11 -0.11)">
       <use xlink:href="#DejaVuSans-48"/>
       <use x="63.623047" xlink:href="#DejaVuSans-46"/>
       <use x="95.410156" xlink:href="#DejaVuSans-56"/>
      </g>
     </g>
    </g>
    <g id="ytick_12">
     <g id="line2d_24">
      <path clip-path="url(#p9804e9990d)" d="M 602.576471 77.776364 
L 947.223529 77.776364 
" style="fill:none;stroke:#ffffff;stroke-linecap:round;"/>
     </g>
     <g id="text_28">
      <!-- 1.0 -->
      <g style="fill:#262626;" transform="translate(575.583033 81.955504)scale(0.11 -0.11)">
       <use xlink:href="#DejaVuSans-49"/>
       <use x="63.623047" xlink:href="#DejaVuSans-46"/>
       <use x="95.410156" xlink:href="#DejaVuSans-48"/>
      </g>
     </g>
    </g>
    <g id="text_29">
     <!-- density -->
     <g style="fill:#262626;" transform="translate(569.087408 272.739375)rotate(-90)scale(0.12 -0.12)">
      <use xlink:href="#DejaVuSans-100"/>
      <use x="63.476562" xlink:href="#DejaVuSans-101"/>
      <use x="125" xlink:href="#DejaVuSans-110"/>
      <use x="188.378906" xlink:href="#DejaVuSans-115"/>
      <use x="240.478516" xlink:href="#DejaVuSans-105"/>
      <use x="268.261719" xlink:href="#DejaVuSans-116"/>
      <use x="307.470703" xlink:href="#DejaVuSans-121"/>
     </g>
    </g>
   </g>
   <g id="PolyCollection_2">
    <defs>
     <path d="M 618.242246 -80.296364 
L 618.242246 -80.296364 
L 621.375401 -83.755636 
L 624.508556 -87.214909 
L 627.641711 -90.674182 
L 630.774866 -94.133455 
L 633.908021 -97.592727 
L 637.041176 -101.052 
L 640.174332 -104.511273 
L 643.307487 -107.970545 
L 646.440642 -111.429818 
L 649.573797 -114.889091 
L 652.706952 -118.348364 
L 655.840107 -121.807636 
L 658.973262 -125.266909 
L 662.106417 -128.726182 
L 665.239572 -132.185455 
L 668.372727 -135.644727 
L 671.505882 -139.104 
L 674.639037 -142.563273 
L 677.772193 -146.022545 
L 680.905348 -149.481818 
L 684.038503 -152.941091 
L 687.171658 -156.400364 
L 690.304813 -159.859636 
L 693.437968 -163.318909 
L 696.571123 -166.778182 
L 699.704278 -170.237455 
L 702.837433 -173.696727 
L 705.970588 -177.156 
L 709.103743 -180.615273 
L 712.236898 -184.074545 
L 715.370053 -187.533818 
L 718.503209 -190.993091 
L 721.636364 -194.452364 
L 724.769519 -197.911636 
L 727.902674 -201.370909 
L 731.035829 -204.830182 
L 734.168984 -208.289455 
L 737.302139 -211.748727 
L 740.435294 -215.208 
L 743.568449 -218.667273 
L 746.701604 -222.126545 
L 749.834759 -225.585818 
L 752.967914 -229.045091 
L 756.10107 -232.504364 
L 759.234225 -235.963636 
L 762.36738 -239.422909 
L 765.500535 -242.882182 
L 768.63369 -246.341455 
L 771.766845 -249.800727 
L 774.9 -253.26 
L 778.033155 -256.719273 
L 781.16631 -260.178545 
L 784.299465 -263.637818 
L 787.43262 -267.097091 
L 790.565775 -270.556364 
L 793.69893 -274.015636 
L 796.832086 -277.474909 
L 799.965241 -280.934182 
L 803.098396 -284.393455 
L 806.231551 -287.852727 
L 809.364706 -291.312 
L 812.497861 -294.771273 
L 815.631016 -298.230545 
L 818.764171 -301.689818 
L 821.897326 -305.149091 
L 825.030481 -308.608364 
L 828.163636 -312.067636 
L 831.296791 -315.526909 
L 834.429947 -318.986182 
L 837.563102 -322.445455 
L 840.696257 -325.904727 
L 843.829412 -329.364 
L 846.962567 -332.823273 
L 850.095722 -336.282545 
L 853.228877 -339.741818 
L 856.362032 -343.201091 
L 859.495187 -346.660364 
L 862.628342 -350.119636 
L 865.761497 -353.578909 
L 868.894652 -357.038182 
L 872.027807 -360.497455 
L 875.160963 -363.956727 
L 878.294118 -367.416 
L 881.427273 -370.875273 
L 884.560428 -374.334545 
L 887.693583 -377.793818 
L 890.826738 -381.253091 
L 893.959893 -384.712364 
L 897.093048 -388.171636 
L 900.226203 -391.630909 
L 903.359358 -395.090182 
L 906.492513 -398.549455 
L 909.625668 -402.008727 
L 912.758824 -405.468 
L 915.891979 -408.927273 
L 919.025134 -412.386545 
L 922.158289 -415.845818 
L 925.291444 -419.305091 
L 928.424599 -422.764364 
L 931.557754 -426.223636 
L 931.557754 -80.296364 
L 931.557754 -80.296364 
L 928.424599 -80.296364 
L 925.291444 -80.296364 
L 922.158289 -80.296364 
L 919.025134 -80.296364 
L 915.891979 -80.296364 
L 912.758824 -80.296364 
L 909.625668 -80.296364 
L 906.492513 -80.296364 
L 903.359358 -80.296364 
L 900.226203 -80.296364 
L 897.093048 -80.296364 
L 893.959893 -80.296364 
L 890.826738 -80.296364 
L 887.693583 -80.296364 
L 884.560428 -80.296364 
L 881.427273 -80.296364 
L 878.294118 -80.296364 
L 875.160963 -80.296364 
L 872.027807 -80.296364 
L 868.894652 -80.296364 
L 865.761497 -80.296364 
L 862.628342 -80.296364 
L 859.495187 -80.296364 
L 856.362032 -80.296364 
L 853.228877 -80.296364 
L 850.095722 -80.296364 
L 846.962567 -80.296364 
L 843.829412 -80.296364 
L 840.696257 -80.296364 
L 837.563102 -80.296364 
L 834.429947 -80.296364 
L 831.296791 -80.296364 
L 828.163636 -80.296364 
L 825.030481 -80.296364 
L 821.897326 -80.296364 
L 818.764171 -80.296364 
L 815.631016 -80.296364 
L 812.497861 -80.296364 
L 809.364706 -80.296364 
L 806.231551 -80.296364 
L 803.098396 -80.296364 
L 799.965241 -80.296364 
L 796.832086 -80.296364 
L 793.69893 -80.296364 
L 790.565775 -80.296364 
L 787.43262 -80.296364 
L 784.299465 -80.296364 
L 781.16631 -80.296364 
L 778.033155 -80.296364 
L 774.9 -80.296364 
L 771.766845 -80.296364 
L 768.63369 -80.296364 
L 765.500535 -80.296364 
L 762.36738 -80.296364 
L 759.234225 -80.296364 
L 756.10107 -80.296364 
L 752.967914 -80.296364 
L 749.834759 -80.296364 
L 746.701604 -80.296364 
L 743.568449 -80.296364 
L 740.435294 -80.296364 
L 737.302139 -80.296364 
L 734.168984 -80.296364 
L 731.035829 -80.296364 
L 727.902674 -80.296364 
L 724.769519 -80.296364 
L 721.636364 -80.296364 
L 718.503209 -80.296364 
L 715.370053 -80.296364 
L 712.236898 -80.296364 
L 709.103743 -80.296364 
L 705.970588 -80.296364 
L 702.837433 -80.296364 
L 699.704278 -80.296364 
L 696.571123 -80.296364 
L 693.437968 -80.296364 
L 690.304813 -80.296364 
L 687.171658 -80.296364 
L 684.038503 -80.296364 
L 680.905348 -80.296364 
L 677.772193 -80.296364 
L 674.639037 -80.296364 
L 671.505882 -80.296364 
L 668.372727 -80.296364 
L 665.239572 -80.296364 
L 662.106417 -80.296364 
L 658.973262 -80.296364 
L 655.840107 -80.296364 
L 652.706952 -80.296364 
L 649.573797 -80.296364 
L 646.440642 -80.296364 
L 643.307487 -80.296364 
L 640.174332 -80.296364 
L 637.041176 -80.296364 
L 633.908021 -80.296364 
L 630.774866 -80.296364 
L 627.641711 -80.296364 
L 624.508556 -80.296364 
L 621.375401 -80.296364 
L 618.242246 -80.296364 
z
" id="m4a21d12af5" style="stroke:#ffffff;"/>
    </defs>
    <g clip-path="url(#p9804e9990d)">
     <use style="fill:#4c72b0;stroke:#ffffff;" x="0" xlink:href="#m4a21d12af5" y="504"/>
    </g>
   </g>
   <g id="patch_8">
    <path d="M 602.576471 441 
L 602.576471 60.48 
" style="fill:none;stroke:#ffffff;stroke-linecap:square;stroke-linejoin:miter;stroke-width:1.25;"/>
   </g>
   <g id="patch_9">
    <path d="M 947.223529 441 
L 947.223529 60.48 
" style="fill:none;stroke:#ffffff;stroke-linecap:square;stroke-linejoin:miter;stroke-width:1.25;"/>
   </g>
   <g id="patch_10">
    <path d="M 602.576471 441 
L 947.223529 441 
" style="fill:none;stroke:#ffffff;stroke-linecap:square;stroke-linejoin:miter;stroke-width:1.25;"/>
   </g>
   <g id="patch_11">
    <path d="M 602.576471 60.48 
L 947.223529 60.48 
" style="fill:none;stroke:#ffffff;stroke-linecap:square;stroke-linejoin:miter;stroke-width:1.25;"/>
   </g>
   <g id="text_30">
    <!-- likelihood -->
    <defs>
     <path d="M 9.421875 75.984375 
L 18.40625 75.984375 
L 18.40625 0 
L 9.421875 0 
z
" id="DejaVuSans-108"/>
     <path d="M 9.078125 75.984375 
L 18.109375 75.984375 
L 18.109375 31.109375 
L 44.921875 54.6875 
L 56.390625 54.6875 
L 27.390625 29.109375 
L 57.625 0 
L 45.90625 0 
L 18.109375 26.703125 
L 18.109375 0 
L 9.078125 0 
z
" id="DejaVuSans-107"/>
     <path d="M 54.890625 33.015625 
L 54.890625 0 
L 45.90625 0 
L 45.90625 32.71875 
Q 45.90625 40.484375 42.875 44.328125 
Q 39.84375 48.1875 33.796875 48.1875 
Q 26.515625 48.1875 22.3125 43.546875 
Q 18.109375 38.921875 18.109375 30.90625 
L 18.109375 0 
L 9.078125 0 
L 9.078125 75.984375 
L 18.109375 75.984375 
L 18.109375 46.1875 
Q 21.34375 51.125 25.703125 53.5625 
Q 30.078125 56 35.796875 56 
Q 45.21875 56 50.046875 50.171875 
Q 54.890625 44.34375 54.890625 33.015625 
z
" id="DejaVuSans-104"/>
    </defs>
    <g style="fill:#262626;" transform="translate(746.115 54.48)scale(0.12 -0.12)">
     <use xlink:href="#DejaVuSans-108"/>
     <use x="27.783203" xlink:href="#DejaVuSans-105"/>
     <use x="55.566406" xlink:href="#DejaVuSans-107"/>
     <use x="113.429688" xlink:href="#DejaVuSans-101"/>
     <use x="174.953125" xlink:href="#DejaVuSans-108"/>
     <use x="202.736328" xlink:href="#DejaVuSans-105"/>
     <use x="230.519531" xlink:href="#DejaVuSans-104"/>
     <use x="293.898438" xlink:href="#DejaVuSans-111"/>
     <use x="355.080078" xlink:href="#DejaVuSans-111"/>
     <use x="416.261719" xlink:href="#DejaVuSans-100"/>
    </g>
   </g>
  </g>
  <g id="axes_3">
   <g id="patch_12">
    <path d="M 1016.152941 441 
L 1360.8 441 
L 1360.8 60.48 
L 1016.152941 60.48 
z
" style="fill:#eaeaf2;"/>
   </g>
   <g id="matplotlib.axis_5">
    <g id="xtick_13">
     <g id="line2d_25">
      <path clip-path="url(#p0aa3474751)" d="M 1028.653913 441 
L 1028.653913 60.48 
" style="fill:none;stroke:#ffffff;stroke-linecap:round;"/>
     </g>
     <g id="text_31">
      <!-- 0.0 -->
      <g style="fill:#262626;" transform="translate(1019.907195 458.858281)scale(0.11 -0.11)">
       <use xlink:href="#DejaVuSans-48"/>
       <use x="63.623047" xlink:href="#DejaVuSans-46"/>
       <use x="95.410156" xlink:href="#DejaVuSans-48"/>
      </g>
     </g>
    </g>
    <g id="xtick_14">
     <g id="line2d_26">
      <path clip-path="url(#p0aa3474751)" d="M 1091.949976 441 
L 1091.949976 60.48 
" style="fill:none;stroke:#ffffff;stroke-linecap:round;"/>
     </g>
     <g id="text_32">
      <!-- 0.2 -->
      <g style="fill:#262626;" transform="translate(1083.203257 458.858281)scale(0.11 -0.11)">
       <use xlink:href="#DejaVuSans-48"/>
       <use x="63.623047" xlink:href="#DejaVuSans-46"/>
       <use x="95.410156" xlink:href="#DejaVuSans-50"/>
      </g>
     </g>
    </g>
    <g id="xtick_15">
     <g id="line2d_27">
      <path clip-path="url(#p0aa3474751)" d="M 1155.246038 441 
L 1155.246038 60.48 
" style="fill:none;stroke:#ffffff;stroke-linecap:round;"/>
     </g>
     <g id="text_33">
      <!-- 0.4 -->
      <g style="fill:#262626;" transform="translate(1146.499319 458.858281)scale(0.11 -0.11)">
       <use xlink:href="#DejaVuSans-48"/>
       <use x="63.623047" xlink:href="#DejaVuSans-46"/>
       <use x="95.410156" xlink:href="#DejaVuSans-52"/>
      </g>
     </g>
    </g>
    <g id="xtick_16">
     <g id="line2d_28">
      <path clip-path="url(#p0aa3474751)" d="M 1218.5421 441 
L 1218.5421 60.48 
" style="fill:none;stroke:#ffffff;stroke-linecap:round;"/>
     </g>
     <g id="text_34">
      <!-- 0.6 -->
      <g style="fill:#262626;" transform="translate(1209.795381 458.858281)scale(0.11 -0.11)">
       <use xlink:href="#DejaVuSans-48"/>
       <use x="63.623047" xlink:href="#DejaVuSans-46"/>
       <use x="95.410156" xlink:href="#DejaVuSans-54"/>
      </g>
     </g>
    </g>
    <g id="xtick_17">
     <g id="line2d_29">
      <path clip-path="url(#p0aa3474751)" d="M 1281.838162 441 
L 1281.838162 60.48 
" style="fill:none;stroke:#ffffff;stroke-linecap:round;"/>
     </g>
     <g id="text_35">
      <!-- 0.8 -->
      <g style="fill:#262626;" transform="translate(1273.091444 458.858281)scale(0.11 -0.11)">
       <use xlink:href="#DejaVuSans-48"/>
       <use x="63.623047" xlink:href="#DejaVuSans-46"/>
       <use x="95.410156" xlink:href="#DejaVuSans-56"/>
      </g>
     </g>
    </g>
    <g id="xtick_18">
     <g id="line2d_30">
      <path clip-path="url(#p0aa3474751)" d="M 1345.134225 441 
L 1345.134225 60.48 
" style="fill:none;stroke:#ffffff;stroke-linecap:round;"/>
     </g>
     <g id="text_36">
      <!-- 1.0 -->
      <g style="fill:#262626;" transform="translate(1336.387506 458.858281)scale(0.11 -0.11)">
       <use xlink:href="#DejaVuSans-49"/>
       <use x="63.623047" xlink:href="#DejaVuSans-46"/>
       <use x="95.410156" xlink:href="#DejaVuSans-48"/>
      </g>
     </g>
    </g>
    <g id="text_37">
     <!-- $\theta$ -->
     <g style="fill:#262626;" transform="translate(1184.756471 474.264063)scale(0.12 -0.12)">
      <use transform="translate(0 0.234375)" xlink:href="#DejaVuSans-Oblique-952"/>
     </g>
    </g>
   </g>
   <g id="matplotlib.axis_6">
    <g id="ytick_13">
     <g id="line2d_31">
      <path clip-path="url(#p0aa3474751)" d="M 1016.152941 423.703636 
L 1360.8 423.703636 
" style="fill:none;stroke:#ffffff;stroke-linecap:round;"/>
     </g>
     <g id="text_38">
      <!-- 0.0 -->
      <g style="fill:#262626;" transform="translate(989.159504 427.882777)scale(0.11 -0.11)">
       <use xlink:href="#DejaVuSans-48"/>
       <use x="63.623047" xlink:href="#DejaVuSans-46"/>
       <use x="95.410156" xlink:href="#DejaVuSans-48"/>
      </g>
     </g>
    </g>
    <g id="ytick_14">
     <g id="line2d_32">
      <path clip-path="url(#p0aa3474751)" d="M 1016.152941 374.292654 
L 1360.8 374.292654 
" style="fill:none;stroke:#ffffff;stroke-linecap:round;"/>
     </g>
     <g id="text_39">
      <!-- 0.1 -->
      <g style="fill:#262626;" transform="translate(989.159504 378.471795)scale(0.11 -0.11)">
       <use xlink:href="#DejaVuSans-48"/>
       <use x="63.623047" xlink:href="#DejaVuSans-46"/>
       <use x="95.410156" xlink:href="#DejaVuSans-49"/>
      </g>
     </g>
    </g>
    <g id="ytick_15">
     <g id="line2d_33">
      <path clip-path="url(#p0aa3474751)" d="M 1016.152941 324.881672 
L 1360.8 324.881672 
" style="fill:none;stroke:#ffffff;stroke-linecap:round;"/>
     </g>
     <g id="text_40">
      <!-- 0.2 -->
      <g style="fill:#262626;" transform="translate(989.159504 329.060813)scale(0.11 -0.11)">
       <use xlink:href="#DejaVuSans-48"/>
       <use x="63.623047" xlink:href="#DejaVuSans-46"/>
       <use x="95.410156" xlink:href="#DejaVuSans-50"/>
      </g>
     </g>
    </g>
    <g id="ytick_16">
     <g id="line2d_34">
      <path clip-path="url(#p0aa3474751)" d="M 1016.152941 275.470691 
L 1360.8 275.470691 
" style="fill:none;stroke:#ffffff;stroke-linecap:round;"/>
     </g>
     <g id="text_41">
      <!-- 0.3 -->
      <defs>
       <path d="M 40.578125 39.3125 
Q 47.65625 37.796875 51.625 33 
Q 55.609375 28.21875 55.609375 21.1875 
Q 55.609375 10.40625 48.1875 4.484375 
Q 40.765625 -1.421875 27.09375 -1.421875 
Q 22.515625 -1.421875 17.65625 -0.515625 
Q 12.796875 0.390625 7.625 2.203125 
L 7.625 11.71875 
Q 11.71875 9.328125 16.59375 8.109375 
Q 21.484375 6.890625 26.8125 6.890625 
Q 36.078125 6.890625 40.9375 10.546875 
Q 45.796875 14.203125 45.796875 21.1875 
Q 45.796875 27.640625 41.28125 31.265625 
Q 36.765625 34.90625 28.71875 34.90625 
L 20.21875 34.90625 
L 20.21875 43.015625 
L 29.109375 43.015625 
Q 36.375 43.015625 40.234375 45.921875 
Q 44.09375 48.828125 44.09375 54.296875 
Q 44.09375 59.90625 40.109375 62.90625 
Q 36.140625 65.921875 28.71875 65.921875 
Q 24.65625 65.921875 20.015625 65.03125 
Q 15.375 64.15625 9.8125 62.3125 
L 9.8125 71.09375 
Q 15.4375 72.65625 20.34375 73.4375 
Q 25.25 74.21875 29.59375 74.21875 
Q 40.828125 74.21875 47.359375 69.109375 
Q 53.90625 64.015625 53.90625 55.328125 
Q 53.90625 49.265625 50.4375 45.09375 
Q 46.96875 40.921875 40.578125 39.3125 
z
" id="DejaVuSans-51"/>
      </defs>
      <g style="fill:#262626;" transform="translate(989.159504 279.649831)scale(0.11 -0.11)">
       <use xlink:href="#DejaVuSans-48"/>
       <use x="63.623047" xlink:href="#DejaVuSans-46"/>
       <use x="95.410156" xlink:href="#DejaVuSans-51"/>
      </g>
     </g>
    </g>
    <g id="ytick_17">
     <g id="line2d_35">
      <path clip-path="url(#p0aa3474751)" d="M 1016.152941 226.059709 
L 1360.8 226.059709 
" style="fill:none;stroke:#ffffff;stroke-linecap:round;"/>
     </g>
     <g id="text_42">
      <!-- 0.4 -->
      <g style="fill:#262626;" transform="translate(989.159504 230.238849)scale(0.11 -0.11)">
       <use xlink:href="#DejaVuSans-48"/>
       <use x="63.623047" xlink:href="#DejaVuSans-46"/>
       <use x="95.410156" xlink:href="#DejaVuSans-52"/>
      </g>
     </g>
    </g>
    <g id="ytick_18">
     <g id="line2d_36">
      <path clip-path="url(#p0aa3474751)" d="M 1016.152941 176.648727 
L 1360.8 176.648727 
" style="fill:none;stroke:#ffffff;stroke-linecap:round;"/>
     </g>
     <g id="text_43">
      <!-- 0.5 -->
      <g style="fill:#262626;" transform="translate(989.159504 180.827867)scale(0.11 -0.11)">
       <use xlink:href="#DejaVuSans-48"/>
       <use x="63.623047" xlink:href="#DejaVuSans-46"/>
       <use x="95.410156" xlink:href="#DejaVuSans-53"/>
      </g>
     </g>
    </g>
    <g id="ytick_19">
     <g id="line2d_37">
      <path clip-path="url(#p0aa3474751)" d="M 1016.152941 127.237745 
L 1360.8 127.237745 
" style="fill:none;stroke:#ffffff;stroke-linecap:round;"/>
     </g>
     <g id="text_44">
      <!-- 0.6 -->
      <g style="fill:#262626;" transform="translate(989.159504 131.416885)scale(0.11 -0.11)">
       <use xlink:href="#DejaVuSans-48"/>
       <use x="63.623047" xlink:href="#DejaVuSans-46"/>
       <use x="95.410156" xlink:href="#DejaVuSans-54"/>
      </g>
     </g>
    </g>
    <g id="ytick_20">
     <g id="line2d_38">
      <path clip-path="url(#p0aa3474751)" d="M 1016.152941 77.826763 
L 1360.8 77.826763 
" style="fill:none;stroke:#ffffff;stroke-linecap:round;"/>
     </g>
     <g id="text_45">
      <!-- 0.7 -->
      <defs>
       <path d="M 8.203125 72.90625 
L 55.078125 72.90625 
L 55.078125 68.703125 
L 28.609375 0 
L 18.3125 0 
L 43.21875 64.59375 
L 8.203125 64.59375 
z
" id="DejaVuSans-55"/>
      </defs>
      <g style="fill:#262626;" transform="translate(989.159504 82.005903)scale(0.11 -0.11)">
       <use xlink:href="#DejaVuSans-48"/>
       <use x="63.623047" xlink:href="#DejaVuSans-46"/>
       <use x="95.410156" xlink:href="#DejaVuSans-55"/>
      </g>
     </g>
    </g>
    <g id="text_46">
     <!-- density -->
     <g style="fill:#262626;" transform="translate(982.663879 272.739375)rotate(-90)scale(0.12 -0.12)">
      <use xlink:href="#DejaVuSans-100"/>
      <use x="63.476562" xlink:href="#DejaVuSans-101"/>
      <use x="125" xlink:href="#DejaVuSans-110"/>
      <use x="188.378906" xlink:href="#DejaVuSans-115"/>
      <use x="240.478516" xlink:href="#DejaVuSans-105"/>
      <use x="268.261719" xlink:href="#DejaVuSans-116"/>
      <use x="307.470703" xlink:href="#DejaVuSans-121"/>
     </g>
    </g>
   </g>
   <g id="PolyCollection_3">
    <defs>
     <path d="M 1031.818717 -80.296364 
L 1031.818717 -94.061509 
L 1034.98352 -102.659489 
L 1038.148323 -110.000323 
L 1041.313126 -116.627937 
L 1044.477929 -122.77114 
L 1047.642732 -128.554 
L 1050.807535 -134.053439 
L 1053.972338 -139.321352 
L 1057.137141 -144.394867 
L 1060.301945 -149.30172 
L 1063.466748 -154.063327 
L 1066.631551 -158.696669 
L 1069.796354 -163.2155 
L 1072.961157 -167.631164 
L 1076.12596 -171.953154 
L 1079.290763 -176.189519 
L 1082.455566 -180.347161 
L 1085.620369 -184.432053 
L 1088.785173 -188.44941 
L 1091.949976 -192.403822 
L 1095.114779 -196.299352 
L 1098.279582 -200.139622 
L 1101.444385 -203.927877 
L 1104.609188 -207.66704 
L 1107.773991 -211.359754 
L 1110.938794 -215.008423 
L 1114.103597 -218.615235 
L 1117.268401 -222.182197 
L 1120.433204 -225.711149 
L 1123.598007 -229.203787 
L 1126.76281 -232.661676 
L 1129.927613 -236.086269 
L 1133.092416 -239.478911 
L 1136.257219 -242.840855 
L 1139.422022 -246.173271 
L 1142.586825 -249.47725 
L 1145.751629 -252.753816 
L 1148.916432 -256.003928 
L 1152.081235 -259.228487 
L 1155.246038 -262.428343 
L 1158.410841 -265.604294 
L 1161.575644 -268.757097 
L 1164.740447 -271.887466 
L 1167.90525 -274.996075 
L 1171.070053 -278.083567 
L 1174.234857 -281.150549 
L 1177.39966 -284.197599 
L 1180.564463 -287.225267 
L 1183.729266 -290.234075 
L 1186.894069 -293.224523 
L 1190.058872 -296.197087 
L 1193.223675 -299.152222 
L 1196.388478 -302.090361 
L 1199.553281 -305.01192 
L 1202.718085 -307.917298 
L 1205.882888 -310.806877 
L 1209.047691 -313.68102 
L 1212.212494 -316.540081 
L 1215.377297 -319.384396 
L 1218.5421 -322.214289 
L 1221.706903 -325.030072 
L 1224.871706 -327.832045 
L 1228.036509 -330.620496 
L 1231.201313 -333.395705 
L 1234.366116 -336.157939 
L 1237.530919 -338.907458 
L 1240.695722 -341.64451 
L 1243.860525 -344.369338 
L 1247.025328 -347.082175 
L 1250.190131 -349.783246 
L 1253.354934 -352.47277 
L 1256.519737 -355.150956 
L 1259.684541 -357.81801 
L 1262.849344 -360.47413 
L 1266.014147 -363.119506 
L 1269.17895 -365.754325 
L 1272.343753 -368.378768 
L 1275.508556 -370.993008 
L 1278.673359 -373.597216 
L 1281.838162 -376.191556 
L 1285.002965 -378.776189 
L 1288.167769 -381.351269 
L 1291.332572 -383.916949 
L 1294.497375 -386.473375 
L 1297.662178 -389.02069 
L 1300.826981 -391.559033 
L 1303.991784 -394.08854 
L 1307.156587 -396.609341 
L 1310.32139 -399.121567 
L 1313.486193 -401.625341 
L 1316.650997 -404.120786 
L 1319.8158 -406.608021 
L 1322.980603 -409.08716 
L 1326.145406 -411.558318 
L 1329.310209 -414.021604 
L 1332.475012 -416.477126 
L 1335.639815 -418.924989 
L 1338.804618 -421.365295 
L 1341.969421 -423.798145 
L 1345.134225 -426.223636 
L 1345.134225 -80.296364 
L 1345.134225 -80.296364 
L 1341.969421 -80.296364 
L 1338.804618 -80.296364 
L 1335.639815 -80.296364 
L 1332.475012 -80.296364 
L 1329.310209 -80.296364 
L 1326.145406 -80.296364 
L 1322.980603 -80.296364 
L 1319.8158 -80.296364 
L 1316.650997 -80.296364 
L 1313.486193 -80.296364 
L 1310.32139 -80.296364 
L 1307.156587 -80.296364 
L 1303.991784 -80.296364 
L 1300.826981 -80.296364 
L 1297.662178 -80.296364 
L 1294.497375 -80.296364 
L 1291.332572 -80.296364 
L 1288.167769 -80.296364 
L 1285.002965 -80.296364 
L 1281.838162 -80.296364 
L 1278.673359 -80.296364 
L 1275.508556 -80.296364 
L 1272.343753 -80.296364 
L 1269.17895 -80.296364 
L 1266.014147 -80.296364 
L 1262.849344 -80.296364 
L 1259.684541 -80.296364 
L 1256.519737 -80.296364 
L 1253.354934 -80.296364 
L 1250.190131 -80.296364 
L 1247.025328 -80.296364 
L 1243.860525 -80.296364 
L 1240.695722 -80.296364 
L 1237.530919 -80.296364 
L 1234.366116 -80.296364 
L 1231.201313 -80.296364 
L 1228.036509 -80.296364 
L 1224.871706 -80.296364 
L 1221.706903 -80.296364 
L 1218.5421 -80.296364 
L 1215.377297 -80.296364 
L 1212.212494 -80.296364 
L 1209.047691 -80.296364 
L 1205.882888 -80.296364 
L 1202.718085 -80.296364 
L 1199.553281 -80.296364 
L 1196.388478 -80.296364 
L 1193.223675 -80.296364 
L 1190.058872 -80.296364 
L 1186.894069 -80.296364 
L 1183.729266 -80.296364 
L 1180.564463 -80.296364 
L 1177.39966 -80.296364 
L 1174.234857 -80.296364 
L 1171.070053 -80.296364 
L 1167.90525 -80.296364 
L 1164.740447 -80.296364 
L 1161.575644 -80.296364 
L 1158.410841 -80.296364 
L 1155.246038 -80.296364 
L 1152.081235 -80.296364 
L 1148.916432 -80.296364 
L 1145.751629 -80.296364 
L 1142.586825 -80.296364 
L 1139.422022 -80.296364 
L 1136.257219 -80.296364 
L 1133.092416 -80.296364 
L 1129.927613 -80.296364 
L 1126.76281 -80.296364 
L 1123.598007 -80.296364 
L 1120.433204 -80.296364 
L 1117.268401 -80.296364 
L 1114.103597 -80.296364 
L 1110.938794 -80.296364 
L 1107.773991 -80.296364 
L 1104.609188 -80.296364 
L 1101.444385 -80.296364 
L 1098.279582 -80.296364 
L 1095.114779 -80.296364 
L 1091.949976 -80.296364 
L 1088.785173 -80.296364 
L 1085.620369 -80.296364 
L 1082.455566 -80.296364 
L 1079.290763 -80.296364 
L 1076.12596 -80.296364 
L 1072.961157 -80.296364 
L 1069.796354 -80.296364 
L 1066.631551 -80.296364 
L 1063.466748 -80.296364 
L 1060.301945 -80.296364 
L 1057.137141 -80.296364 
L 1053.972338 -80.296364 
L 1050.807535 -80.296364 
L 1047.642732 -80.296364 
L 1044.477929 -80.296364 
L 1041.313126 -80.296364 
L 1038.148323 -80.296364 
L 1034.98352 -80.296364 
L 1031.818717 -80.296364 
z
" id="mb7cae45fe0" style="stroke:#ffffff;"/>
    </defs>
    <g clip-path="url(#p0aa3474751)">
     <use style="fill:#4c72b0;stroke:#ffffff;" x="0" xlink:href="#mb7cae45fe0" y="504"/>
    </g>
   </g>
   <g id="patch_13">
    <path d="M 1016.152941 441 
L 1016.152941 60.48 
" style="fill:none;stroke:#ffffff;stroke-linecap:square;stroke-linejoin:miter;stroke-width:1.25;"/>
   </g>
   <g id="patch_14">
    <path d="M 1360.8 441 
L 1360.8 60.48 
" style="fill:none;stroke:#ffffff;stroke-linecap:square;stroke-linejoin:miter;stroke-width:1.25;"/>
   </g>
   <g id="patch_15">
    <path d="M 1016.152941 441 
L 1360.8 441 
" style="fill:none;stroke:#ffffff;stroke-linecap:square;stroke-linejoin:miter;stroke-width:1.25;"/>
   </g>
   <g id="patch_16">
    <path d="M 1016.152941 60.48 
L 1360.8 60.48 
" style="fill:none;stroke:#ffffff;stroke-linecap:square;stroke-linejoin:miter;stroke-width:1.25;"/>
   </g>
   <g id="text_47">
    <!-- Posterior -->
    <g style="fill:#262626;" transform="translate(1161.749283 54.48)scale(0.12 -0.12)">
     <use xlink:href="#DejaVuSans-80"/>
     <use x="60.255859" xlink:href="#DejaVuSans-111"/>
     <use x="121.4375" xlink:href="#DejaVuSans-115"/>
     <use x="173.537109" xlink:href="#DejaVuSans-116"/>
     <use x="212.746094" xlink:href="#DejaVuSans-101"/>
     <use x="274.269531" xlink:href="#DejaVuSans-114"/>
     <use x="315.382812" xlink:href="#DejaVuSans-105"/>
     <use x="343.166016" xlink:href="#DejaVuSans-111"/>
     <use x="404.347656" xlink:href="#DejaVuSans-114"/>
    </g>
   </g>
  </g>
 </g>
 <defs>
  <clipPath id="p119ff79774">
   <rect height="380.52" width="344.647059" x="189" y="60.48"/>
  </clipPath>
  <clipPath id="p9804e9990d">
   <rect height="380.52" width="344.647059" x="602.576471" y="60.48"/>
  </clipPath>
  <clipPath id="p0aa3474751">
   <rect height="380.52" width="344.647059" x="1016.152941" y="60.48"/>
  </clipPath>
 </defs>
</svg>
