<?xml version="1.0" encoding="utf-8" standalone="no"?>
<!DOCTYPE svg PUBLIC "-//W3C//DTD SVG 1.1//EN"
  "http://www.w3.org/Graphics/SVG/1.1/DTD/svg11.dtd">
<!-- Created with matplotlib (https://matplotlib.org/) -->
<svg height="222.957813pt" version="1.1" viewBox="0 0 561.240003 222.957813" width="561.240003pt" xmlns="http://www.w3.org/2000/svg" xmlns:xlink="http://www.w3.org/1999/xlink">
 <defs>
  <style type="text/css">
*{stroke-linecap:butt;stroke-linejoin:round;}
  </style>
 </defs>
 <g id="figure_1">
  <g id="patch_1">
   <path d="M 0 222.957813 
L 561.240003 222.957813 
L 561.240003 0 
L 0 0 
z
" style="fill:#ffffff;"/>
  </g>
  <g id="axes_1">
   <g id="patch_2">
    <path d="M 49.807188 179.998125 
L 197.51307 179.998125 
L 197.51307 22.318125 
L 49.807188 22.318125 
z
" style="fill:#eaeaf2;"/>
   </g>
   <g id="matplotlib.axis_1">
    <g id="xtick_1">
     <g id="line2d_1">
      <path clip-path="url(#pff11e2ace1)" d="M 55.164747 179.998125 
L 55.164747 22.318125 
" style="fill:none;stroke:#ffffff;stroke-linecap:round;"/>
     </g>
     <g id="text_1">
      <!-- 0.0 -->
      <defs>
       <path d="M 31.78125 66.40625 
Q 24.171875 66.40625 20.328125 58.90625 
Q 16.5 51.421875 16.5 36.375 
Q 16.5 21.390625 20.328125 13.890625 
Q 24.171875 6.390625 31.78125 6.390625 
Q 39.453125 6.390625 43.28125 13.890625 
Q 47.125 21.390625 47.125 36.375 
Q 47.125 51.421875 43.28125 58.90625 
Q 39.453125 66.40625 31.78125 66.40625 
z
M 31.78125 74.21875 
Q 44.046875 74.21875 50.515625 64.515625 
Q 56.984375 54.828125 56.984375 36.375 
Q 56.984375 17.96875 50.515625 8.265625 
Q 44.046875 -1.421875 31.78125 -1.421875 
Q 19.53125 -1.421875 13.0625 8.265625 
Q 6.59375 17.96875 6.59375 36.375 
Q 6.59375 54.828125 13.0625 64.515625 
Q 19.53125 74.21875 31.78125 74.21875 
z
" id="DejaVuSans-48"/>
       <path d="M 10.6875 12.40625 
L 21 12.40625 
L 21 0 
L 10.6875 0 
z
" id="DejaVuSans-46"/>
      </defs>
      <g style="fill:#262626;" transform="translate(46.418028 197.856406)scale(0.11 -0.11)">
       <use xlink:href="#DejaVuSans-48"/>
       <use x="63.623047" xlink:href="#DejaVuSans-46"/>
       <use x="95.410156" xlink:href="#DejaVuSans-48"/>
      </g>
     </g>
    </g>
    <g id="xtick_2">
     <g id="line2d_2">
      <path clip-path="url(#pff11e2ace1)" d="M 122.981957 179.998125 
L 122.981957 22.318125 
" style="fill:none;stroke:#ffffff;stroke-linecap:round;"/>
     </g>
     <g id="text_2">
      <!-- 0.5 -->
      <defs>
       <path d="M 10.796875 72.90625 
L 49.515625 72.90625 
L 49.515625 64.59375 
L 19.828125 64.59375 
L 19.828125 46.734375 
Q 21.96875 47.46875 24.109375 47.828125 
Q 26.265625 48.1875 28.421875 48.1875 
Q 40.625 48.1875 47.75 41.5 
Q 54.890625 34.8125 54.890625 23.390625 
Q 54.890625 11.625 47.5625 5.09375 
Q 40.234375 -1.421875 26.90625 -1.421875 
Q 22.3125 -1.421875 17.546875 -0.640625 
Q 12.796875 0.140625 7.71875 1.703125 
L 7.71875 11.625 
Q 12.109375 9.234375 16.796875 8.0625 
Q 21.484375 6.890625 26.703125 6.890625 
Q 35.15625 6.890625 40.078125 11.328125 
Q 45.015625 15.765625 45.015625 23.390625 
Q 45.015625 31 40.078125 35.4375 
Q 35.15625 39.890625 26.703125 39.890625 
Q 22.75 39.890625 18.8125 39.015625 
Q 14.890625 38.140625 10.796875 36.28125 
z
" id="DejaVuSans-53"/>
      </defs>
      <g style="fill:#262626;" transform="translate(114.235238 197.856406)scale(0.11 -0.11)">
       <use xlink:href="#DejaVuSans-48"/>
       <use x="63.623047" xlink:href="#DejaVuSans-46"/>
       <use x="95.410156" xlink:href="#DejaVuSans-53"/>
      </g>
     </g>
    </g>
    <g id="xtick_3">
     <g id="line2d_3">
      <path clip-path="url(#pff11e2ace1)" d="M 190.799166 179.998125 
L 190.799166 22.318125 
" style="fill:none;stroke:#ffffff;stroke-linecap:round;"/>
     </g>
     <g id="text_3">
      <!-- 1.0 -->
      <defs>
       <path d="M 12.40625 8.296875 
L 28.515625 8.296875 
L 28.515625 63.921875 
L 10.984375 60.40625 
L 10.984375 69.390625 
L 28.421875 72.90625 
L 38.28125 72.90625 
L 38.28125 8.296875 
L 54.390625 8.296875 
L 54.390625 0 
L 12.40625 0 
z
" id="DejaVuSans-49"/>
      </defs>
      <g style="fill:#262626;" transform="translate(182.052447 197.856406)scale(0.11 -0.11)">
       <use xlink:href="#DejaVuSans-49"/>
       <use x="63.623047" xlink:href="#DejaVuSans-46"/>
       <use x="95.410156" xlink:href="#DejaVuSans-48"/>
      </g>
     </g>
    </g>
    <g id="text_4">
     <!-- $\theta$ -->
     <defs>
      <path d="M 45.515625 34.671875 
L 14.453125 34.671875 
Q 12.359375 20.0625 14.5 13.875 
Q 17.1875 6.25 24.46875 6.25 
Q 31.78125 6.25 37.359375 13.921875 
Q 42.234375 20.65625 45.515625 34.671875 
z
M 47.015625 42.96875 
Q 48.34375 56.84375 46.625 61.71875 
Q 43.953125 69.4375 36.765625 69.4375 
Q 29.296875 69.4375 23.828125 61.8125 
Q 19.53125 55.671875 16.15625 42.96875 
z
M 38.1875 76.765625 
Q 49.90625 76.765625 54.59375 66.40625 
Q 59.28125 56.109375 55.71875 37.84375 
Q 52.203125 19.625 43.453125 9.28125 
Q 34.765625 -1.125 23.046875 -1.125 
Q 11.28125 -1.125 6.640625 9.28125 
Q 2 19.625 5.515625 37.84375 
Q 9.078125 56.109375 17.71875 66.40625 
Q 26.421875 76.765625 38.1875 76.765625 
z
" id="DejaVuSans-Oblique-952"/>
     </defs>
     <g style="fill:#262626;" transform="translate(119.940129 213.262188)scale(0.12 -0.12)">
      <use transform="translate(0 0.234375)" xlink:href="#DejaVuSans-Oblique-952"/>
     </g>
    </g>
   </g>
   <g id="matplotlib.axis_2">
    <g id="ytick_1">
     <g id="line2d_4">
      <path clip-path="url(#pff11e2ace1)" d="M 49.807188 172.830852 
L 197.51307 172.830852 
" style="fill:none;stroke:#ffffff;stroke-linecap:round;"/>
     </g>
     <g id="text_5">
      <!-- 0.0 -->
      <g style="fill:#262626;" transform="translate(22.81375 177.009993)scale(0.11 -0.11)">
       <use xlink:href="#DejaVuSans-48"/>
       <use x="63.623047" xlink:href="#DejaVuSans-46"/>
       <use x="95.410156" xlink:href="#DejaVuSans-48"/>
      </g>
     </g>
    </g>
    <g id="ytick_2">
     <g id="line2d_5">
      <path clip-path="url(#pff11e2ace1)" d="M 49.807188 147.10341 
L 197.51307 147.10341 
" style="fill:none;stroke:#ffffff;stroke-linecap:round;"/>
     </g>
     <g id="text_6">
      <!-- 0.5 -->
      <g style="fill:#262626;" transform="translate(22.81375 151.282551)scale(0.11 -0.11)">
       <use xlink:href="#DejaVuSans-48"/>
       <use x="63.623047" xlink:href="#DejaVuSans-46"/>
       <use x="95.410156" xlink:href="#DejaVuSans-53"/>
      </g>
     </g>
    </g>
    <g id="ytick_3">
     <g id="line2d_6">
      <path clip-path="url(#pff11e2ace1)" d="M 49.807188 121.375968 
L 197.51307 121.375968 
" style="fill:none;stroke:#ffffff;stroke-linecap:round;"/>
     </g>
     <g id="text_7">
      <!-- 1.0 -->
      <g style="fill:#262626;" transform="translate(22.81375 125.555108)scale(0.11 -0.11)">
       <use xlink:href="#DejaVuSans-49"/>
       <use x="63.623047" xlink:href="#DejaVuSans-46"/>
       <use x="95.410156" xlink:href="#DejaVuSans-48"/>
      </g>
     </g>
    </g>
    <g id="ytick_4">
     <g id="line2d_7">
      <path clip-path="url(#pff11e2ace1)" d="M 49.807188 95.648526 
L 197.51307 95.648526 
" style="fill:none;stroke:#ffffff;stroke-linecap:round;"/>
     </g>
     <g id="text_8">
      <!-- 1.5 -->
      <g style="fill:#262626;" transform="translate(22.81375 99.827666)scale(0.11 -0.11)">
       <use xlink:href="#DejaVuSans-49"/>
       <use x="63.623047" xlink:href="#DejaVuSans-46"/>
       <use x="95.410156" xlink:href="#DejaVuSans-53"/>
      </g>
     </g>
    </g>
    <g id="ytick_5">
     <g id="line2d_8">
      <path clip-path="url(#pff11e2ace1)" d="M 49.807188 69.921083 
L 197.51307 69.921083 
" style="fill:none;stroke:#ffffff;stroke-linecap:round;"/>
     </g>
     <g id="text_9">
      <!-- 2.0 -->
      <defs>
       <path d="M 19.1875 8.296875 
L 53.609375 8.296875 
L 53.609375 0 
L 7.328125 0 
L 7.328125 8.296875 
Q 12.9375 14.109375 22.625 23.890625 
Q 32.328125 33.6875 34.8125 36.53125 
Q 39.546875 41.84375 41.421875 45.53125 
Q 43.3125 49.21875 43.3125 52.78125 
Q 43.3125 58.59375 39.234375 62.25 
Q 35.15625 65.921875 28.609375 65.921875 
Q 23.96875 65.921875 18.8125 64.3125 
Q 13.671875 62.703125 7.8125 59.421875 
L 7.8125 69.390625 
Q 13.765625 71.78125 18.9375 73 
Q 24.125 74.21875 28.421875 74.21875 
Q 39.75 74.21875 46.484375 68.546875 
Q 53.21875 62.890625 53.21875 53.421875 
Q 53.21875 48.921875 51.53125 44.890625 
Q 49.859375 40.875 45.40625 35.40625 
Q 44.1875 33.984375 37.640625 27.21875 
Q 31.109375 20.453125 19.1875 8.296875 
z
" id="DejaVuSans-50"/>
      </defs>
      <g style="fill:#262626;" transform="translate(22.81375 74.100224)scale(0.11 -0.11)">
       <use xlink:href="#DejaVuSans-50"/>
       <use x="63.623047" xlink:href="#DejaVuSans-46"/>
       <use x="95.410156" xlink:href="#DejaVuSans-48"/>
      </g>
     </g>
    </g>
    <g id="ytick_6">
     <g id="line2d_9">
      <path clip-path="url(#pff11e2ace1)" d="M 49.807188 44.193641 
L 197.51307 44.193641 
" style="fill:none;stroke:#ffffff;stroke-linecap:round;"/>
     </g>
     <g id="text_10">
      <!-- 2.5 -->
      <g style="fill:#262626;" transform="translate(22.81375 48.372782)scale(0.11 -0.11)">
       <use xlink:href="#DejaVuSans-50"/>
       <use x="63.623047" xlink:href="#DejaVuSans-46"/>
       <use x="95.410156" xlink:href="#DejaVuSans-53"/>
      </g>
     </g>
    </g>
    <g id="text_11">
     <!-- density -->
     <defs>
      <path d="M 45.40625 46.390625 
L 45.40625 75.984375 
L 54.390625 75.984375 
L 54.390625 0 
L 45.40625 0 
L 45.40625 8.203125 
Q 42.578125 3.328125 38.25 0.953125 
Q 33.9375 -1.421875 27.875 -1.421875 
Q 17.96875 -1.421875 11.734375 6.484375 
Q 5.515625 14.40625 5.515625 27.296875 
Q 5.515625 40.1875 11.734375 48.09375 
Q 17.96875 56 27.875 56 
Q 33.9375 56 38.25 53.625 
Q 42.578125 51.265625 45.40625 46.390625 
z
M 14.796875 27.296875 
Q 14.796875 17.390625 18.875 11.75 
Q 22.953125 6.109375 30.078125 6.109375 
Q 37.203125 6.109375 41.296875 11.75 
Q 45.40625 17.390625 45.40625 27.296875 
Q 45.40625 37.203125 41.296875 42.84375 
Q 37.203125 48.484375 30.078125 48.484375 
Q 22.953125 48.484375 18.875 42.84375 
Q 14.796875 37.203125 14.796875 27.296875 
z
" id="DejaVuSans-100"/>
      <path d="M 56.203125 29.59375 
L 56.203125 25.203125 
L 14.890625 25.203125 
Q 15.484375 15.921875 20.484375 11.0625 
Q 25.484375 6.203125 34.421875 6.203125 
Q 39.59375 6.203125 44.453125 7.46875 
Q 49.3125 8.734375 54.109375 11.28125 
L 54.109375 2.78125 
Q 49.265625 0.734375 44.1875 -0.34375 
Q 39.109375 -1.421875 33.890625 -1.421875 
Q 20.796875 -1.421875 13.15625 6.1875 
Q 5.515625 13.8125 5.515625 26.8125 
Q 5.515625 40.234375 12.765625 48.109375 
Q 20.015625 56 32.328125 56 
Q 43.359375 56 49.78125 48.890625 
Q 56.203125 41.796875 56.203125 29.59375 
z
M 47.21875 32.234375 
Q 47.125 39.59375 43.09375 43.984375 
Q 39.0625 48.390625 32.421875 48.390625 
Q 24.90625 48.390625 20.390625 44.140625 
Q 15.875 39.890625 15.1875 32.171875 
z
" id="DejaVuSans-101"/>
      <path d="M 54.890625 33.015625 
L 54.890625 0 
L 45.90625 0 
L 45.90625 32.71875 
Q 45.90625 40.484375 42.875 44.328125 
Q 39.84375 48.1875 33.796875 48.1875 
Q 26.515625 48.1875 22.3125 43.546875 
Q 18.109375 38.921875 18.109375 30.90625 
L 18.109375 0 
L 9.078125 0 
L 9.078125 54.6875 
L 18.109375 54.6875 
L 18.109375 46.1875 
Q 21.34375 51.125 25.703125 53.5625 
Q 30.078125 56 35.796875 56 
Q 45.21875 56 50.046875 50.171875 
Q 54.890625 44.34375 54.890625 33.015625 
z
" id="DejaVuSans-110"/>
      <path d="M 44.28125 53.078125 
L 44.28125 44.578125 
Q 40.484375 46.53125 36.375 47.5 
Q 32.28125 48.484375 27.875 48.484375 
Q 21.1875 48.484375 17.84375 46.4375 
Q 14.5 44.390625 14.5 40.28125 
Q 14.5 37.15625 16.890625 35.375 
Q 19.28125 33.59375 26.515625 31.984375 
L 29.59375 31.296875 
Q 39.15625 29.25 43.1875 25.515625 
Q 47.21875 21.78125 47.21875 15.09375 
Q 47.21875 7.46875 41.1875 3.015625 
Q 35.15625 -1.421875 24.609375 -1.421875 
Q 20.21875 -1.421875 15.453125 -0.5625 
Q 10.6875 0.296875 5.421875 2 
L 5.421875 11.28125 
Q 10.40625 8.6875 15.234375 7.390625 
Q 20.0625 6.109375 24.8125 6.109375 
Q 31.15625 6.109375 34.5625 8.28125 
Q 37.984375 10.453125 37.984375 14.40625 
Q 37.984375 18.0625 35.515625 20.015625 
Q 33.0625 21.96875 24.703125 23.78125 
L 21.578125 24.515625 
Q 13.234375 26.265625 9.515625 29.90625 
Q 5.8125 33.546875 5.8125 39.890625 
Q 5.8125 47.609375 11.28125 51.796875 
Q 16.75 56 26.8125 56 
Q 31.78125 56 36.171875 55.265625 
Q 40.578125 54.546875 44.28125 53.078125 
z
" id="DejaVuSans-115"/>
      <path d="M 9.421875 54.6875 
L 18.40625 54.6875 
L 18.40625 0 
L 9.421875 0 
z
M 9.421875 75.984375 
L 18.40625 75.984375 
L 18.40625 64.59375 
L 9.421875 64.59375 
z
" id="DejaVuSans-105"/>
      <path d="M 18.3125 70.21875 
L 18.3125 54.6875 
L 36.8125 54.6875 
L 36.8125 47.703125 
L 18.3125 47.703125 
L 18.3125 18.015625 
Q 18.3125 11.328125 20.140625 9.421875 
Q 21.96875 7.515625 27.59375 7.515625 
L 36.8125 7.515625 
L 36.8125 0 
L 27.59375 0 
Q 17.1875 0 13.234375 3.875 
Q 9.28125 7.765625 9.28125 18.015625 
L 9.28125 47.703125 
L 2.6875 47.703125 
L 2.6875 54.6875 
L 9.28125 54.6875 
L 9.28125 70.21875 
z
" id="DejaVuSans-116"/>
      <path d="M 32.171875 -5.078125 
Q 28.375 -14.84375 24.75 -17.8125 
Q 21.140625 -20.796875 15.09375 -20.796875 
L 7.90625 -20.796875 
L 7.90625 -13.28125 
L 13.1875 -13.28125 
Q 16.890625 -13.28125 18.9375 -11.515625 
Q 21 -9.765625 23.484375 -3.21875 
L 25.09375 0.875 
L 2.984375 54.6875 
L 12.5 54.6875 
L 29.59375 11.921875 
L 46.6875 54.6875 
L 56.203125 54.6875 
z
" id="DejaVuSans-121"/>
     </defs>
     <g style="fill:#262626;" transform="translate(16.318125 123.1575)rotate(-90)scale(0.12 -0.12)">
      <use xlink:href="#DejaVuSans-100"/>
      <use x="63.476562" xlink:href="#DejaVuSans-101"/>
      <use x="125" xlink:href="#DejaVuSans-110"/>
      <use x="188.378906" xlink:href="#DejaVuSans-115"/>
      <use x="240.478516" xlink:href="#DejaVuSans-105"/>
      <use x="268.261719" xlink:href="#DejaVuSans-116"/>
      <use x="307.470703" xlink:href="#DejaVuSans-121"/>
     </g>
    </g>
   </g>
   <g id="PolyCollection_1">
    <defs>
     <path d="M 56.521091 -50.12696 
L 56.521091 -193.472415 
L 57.877435 -166.567881 
L 59.23378 -153.235875 
L 60.590124 -144.713065 
L 61.946468 -138.590481 
L 63.302812 -133.883345 
L 64.659156 -130.099468 
L 66.015501 -126.960182 
L 67.371845 -124.293583 
L 68.728189 -121.986747 
L 70.084533 -119.961832 
L 71.440877 -118.163094 
L 72.797222 -116.549357 
L 74.153566 -115.089414 
L 75.50991 -113.759097 
L 76.866254 -112.539341 
L 78.222598 -111.414862 
L 79.578942 -110.373237 
L 80.935287 -109.404242 
L 82.291631 -108.499371 
L 83.647975 -107.65148 
L 85.004319 -106.854513 
L 86.360663 -106.103297 
L 87.717008 -105.39338 
L 89.073352 -104.72091 
L 90.429696 -104.082526 
L 91.78604 -103.475286 
L 93.142384 -102.8966 
L 94.498729 -102.344174 
L 95.855073 -101.81597 
L 97.211417 -101.310172 
L 98.567761 -100.825151 
L 99.924105 -100.359442 
L 101.28045 -99.911725 
L 102.636794 -99.480807 
L 103.993138 -99.065603 
L 105.349482 -98.665127 
L 106.705826 -98.278478 
L 108.06217 -97.904836 
L 109.418515 -97.543443 
L 110.774859 -97.193609 
L 112.131203 -96.854693 
L 113.487547 -96.526108 
L 114.843891 -96.207309 
L 116.200236 -95.897791 
L 117.55658 -95.597088 
L 118.912924 -95.304765 
L 120.269268 -95.020416 
L 121.625612 -94.743666 
L 122.981957 -94.474162 
L 124.338301 -94.211575 
L 125.694645 -93.955596 
L 127.050989 -93.705938 
L 128.407333 -93.46233 
L 129.763678 -93.224516 
L 131.120022 -92.992257 
L 132.476366 -92.765328 
L 133.83271 -92.543516 
L 135.189054 -92.32662 
L 136.545398 -92.114451 
L 137.901743 -91.90683 
L 139.258087 -91.703586 
L 140.614431 -91.50456 
L 141.970775 -91.309598 
L 143.327119 -91.118557 
L 144.683464 -90.931298 
L 146.039808 -90.747692 
L 147.396152 -90.567614 
L 148.752496 -90.390946 
L 150.10884 -90.217575 
L 151.465185 -90.047394 
L 152.821529 -89.8803 
L 154.177873 -89.716197 
L 155.534217 -89.55499 
L 156.890561 -89.39659 
L 158.246906 -89.240912 
L 159.60325 -89.087874 
L 160.959594 -88.937398 
L 162.315938 -88.789409 
L 163.672282 -88.643835 
L 165.028626 -88.500608 
L 166.384971 -88.359661 
L 167.741315 -88.220931 
L 169.097659 -88.084357 
L 170.454003 -87.94988 
L 171.810347 -87.817444 
L 173.166692 -87.686995 
L 174.523036 -87.55848 
L 175.87938 -87.43185 
L 177.235724 -87.307056 
L 178.592068 -87.184052 
L 179.948413 -87.062792 
L 181.304757 -86.943234 
L 182.661101 -86.825335 
L 184.017445 -86.709055 
L 185.373789 -86.594356 
L 186.730134 -86.481199 
L 188.086478 -86.369549 
L 189.442822 -86.25937 
L 190.799166 -86.150628 
L 190.799166 -50.12696 
L 190.799166 -50.12696 
L 189.442822 -50.12696 
L 188.086478 -50.12696 
L 186.730134 -50.12696 
L 185.373789 -50.12696 
L 184.017445 -50.12696 
L 182.661101 -50.12696 
L 181.304757 -50.12696 
L 179.948413 -50.12696 
L 178.592068 -50.12696 
L 177.235724 -50.12696 
L 175.87938 -50.12696 
L 174.523036 -50.12696 
L 173.166692 -50.12696 
L 171.810347 -50.12696 
L 170.454003 -50.12696 
L 169.097659 -50.12696 
L 167.741315 -50.12696 
L 166.384971 -50.12696 
L 165.028626 -50.12696 
L 163.672282 -50.12696 
L 162.315938 -50.12696 
L 160.959594 -50.12696 
L 159.60325 -50.12696 
L 158.246906 -50.12696 
L 156.890561 -50.12696 
L 155.534217 -50.12696 
L 154.177873 -50.12696 
L 152.821529 -50.12696 
L 151.465185 -50.12696 
L 150.10884 -50.12696 
L 148.752496 -50.12696 
L 147.396152 -50.12696 
L 146.039808 -50.12696 
L 144.683464 -50.12696 
L 143.327119 -50.12696 
L 141.970775 -50.12696 
L 140.614431 -50.12696 
L 139.258087 -50.12696 
L 137.901743 -50.12696 
L 136.545398 -50.12696 
L 135.189054 -50.12696 
L 133.83271 -50.12696 
L 132.476366 -50.12696 
L 131.120022 -50.12696 
L 129.763678 -50.12696 
L 128.407333 -50.12696 
L 127.050989 -50.12696 
L 125.694645 -50.12696 
L 124.338301 -50.12696 
L 122.981957 -50.12696 
L 121.625612 -50.12696 
L 120.269268 -50.12696 
L 118.912924 -50.12696 
L 117.55658 -50.12696 
L 116.200236 -50.12696 
L 114.843891 -50.12696 
L 113.487547 -50.12696 
L 112.131203 -50.12696 
L 110.774859 -50.12696 
L 109.418515 -50.12696 
L 108.06217 -50.12696 
L 106.705826 -50.12696 
L 105.349482 -50.12696 
L 103.993138 -50.12696 
L 102.636794 -50.12696 
L 101.28045 -50.12696 
L 99.924105 -50.12696 
L 98.567761 -50.12696 
L 97.211417 -50.12696 
L 95.855073 -50.12696 
L 94.498729 -50.12696 
L 93.142384 -50.12696 
L 91.78604 -50.12696 
L 90.429696 -50.12696 
L 89.073352 -50.12696 
L 87.717008 -50.12696 
L 86.360663 -50.12696 
L 85.004319 -50.12696 
L 83.647975 -50.12696 
L 82.291631 -50.12696 
L 80.935287 -50.12696 
L 79.578942 -50.12696 
L 78.222598 -50.12696 
L 76.866254 -50.12696 
L 75.50991 -50.12696 
L 74.153566 -50.12696 
L 72.797222 -50.12696 
L 71.440877 -50.12696 
L 70.084533 -50.12696 
L 68.728189 -50.12696 
L 67.371845 -50.12696 
L 66.015501 -50.12696 
L 64.659156 -50.12696 
L 63.302812 -50.12696 
L 61.946468 -50.12696 
L 60.590124 -50.12696 
L 59.23378 -50.12696 
L 57.877435 -50.12696 
L 56.521091 -50.12696 
z
" id="m6d12ab04c5" style="stroke:#ffffff;"/>
    </defs>
    <g clip-path="url(#pff11e2ace1)">
     <use style="fill:#4c72b0;stroke:#ffffff;" x="0" xlink:href="#m6d12ab04c5" y="222.957813"/>
    </g>
   </g>
   <g id="patch_3">
    <path d="M 49.807188 179.998125 
L 49.807188 22.318125 
" style="fill:none;stroke:#ffffff;stroke-linecap:square;stroke-linejoin:miter;stroke-width:1.25;"/>
   </g>
   <g id="patch_4">
    <path d="M 197.51307 179.998125 
L 197.51307 22.318125 
" style="fill:none;stroke:#ffffff;stroke-linecap:square;stroke-linejoin:miter;stroke-width:1.25;"/>
   </g>
   <g id="patch_5">
    <path d="M 49.807188 179.998125 
L 197.51307 179.998125 
" style="fill:none;stroke:#ffffff;stroke-linecap:square;stroke-linejoin:miter;stroke-width:1.25;"/>
   </g>
   <g id="patch_6">
    <path d="M 49.807188 22.318125 
L 197.51307 22.318125 
" style="fill:none;stroke:#ffffff;stroke-linecap:square;stroke-linejoin:miter;stroke-width:1.25;"/>
   </g>
   <g id="text_12">
    <!-- Prior -->
    <defs>
     <path d="M 19.671875 64.796875 
L 19.671875 37.40625 
L 32.078125 37.40625 
Q 38.96875 37.40625 42.71875 40.96875 
Q 46.484375 44.53125 46.484375 51.125 
Q 46.484375 57.671875 42.71875 61.234375 
Q 38.96875 64.796875 32.078125 64.796875 
z
M 9.8125 72.90625 
L 32.078125 72.90625 
Q 44.34375 72.90625 50.609375 67.359375 
Q 56.890625 61.8125 56.890625 51.125 
Q 56.890625 40.328125 50.609375 34.8125 
Q 44.34375 29.296875 32.078125 29.296875 
L 19.671875 29.296875 
L 19.671875 0 
L 9.8125 0 
z
" id="DejaVuSans-80"/>
     <path d="M 41.109375 46.296875 
Q 39.59375 47.171875 37.8125 47.578125 
Q 36.03125 48 33.890625 48 
Q 26.265625 48 22.1875 43.046875 
Q 18.109375 38.09375 18.109375 28.8125 
L 18.109375 0 
L 9.078125 0 
L 9.078125 54.6875 
L 18.109375 54.6875 
L 18.109375 46.1875 
Q 20.953125 51.171875 25.484375 53.578125 
Q 30.03125 56 36.53125 56 
Q 37.453125 56 38.578125 55.875 
Q 39.703125 55.765625 41.0625 55.515625 
z
" id="DejaVuSans-114"/>
     <path d="M 30.609375 48.390625 
Q 23.390625 48.390625 19.1875 42.75 
Q 14.984375 37.109375 14.984375 27.296875 
Q 14.984375 17.484375 19.15625 11.84375 
Q 23.34375 6.203125 30.609375 6.203125 
Q 37.796875 6.203125 41.984375 11.859375 
Q 46.1875 17.53125 46.1875 27.296875 
Q 46.1875 37.015625 41.984375 42.703125 
Q 37.796875 48.390625 30.609375 48.390625 
z
M 30.609375 56 
Q 42.328125 56 49.015625 48.375 
Q 55.71875 40.765625 55.71875 27.296875 
Q 55.71875 13.875 49.015625 6.21875 
Q 42.328125 -1.421875 30.609375 -1.421875 
Q 18.84375 -1.421875 12.171875 6.21875 
Q 5.515625 13.875 5.515625 27.296875 
Q 5.515625 40.765625 12.171875 48.375 
Q 18.84375 56 30.609375 56 
z
" id="DejaVuSans-111"/>
    </defs>
    <g style="fill:#262626;" transform="translate(109.772004 16.318125)scale(0.12 -0.12)">
     <use xlink:href="#DejaVuSans-80"/>
     <use x="60.287109" xlink:href="#DejaVuSans-114"/>
     <use x="101.400391" xlink:href="#DejaVuSans-105"/>
     <use x="129.183594" xlink:href="#DejaVuSans-111"/>
     <use x="190.365234" xlink:href="#DejaVuSans-114"/>
    </g>
   </g>
  </g>
  <g id="axes_2">
   <g id="patch_7">
    <path d="M 227.054246 179.998125 
L 374.760129 179.998125 
L 374.760129 22.318125 
L 227.054246 22.318125 
z
" style="fill:#eaeaf2;"/>
   </g>
   <g id="matplotlib.axis_3">
    <g id="xtick_4">
     <g id="line2d_10">
      <path clip-path="url(#pce876a4ab5)" d="M 233.76815 179.998125 
L 233.76815 22.318125 
" style="fill:none;stroke:#ffffff;stroke-linecap:round;"/>
     </g>
     <g id="text_13">
      <!-- 0.0 -->
      <g style="fill:#262626;" transform="translate(225.021431 197.856406)scale(0.11 -0.11)">
       <use xlink:href="#DejaVuSans-48"/>
       <use x="63.623047" xlink:href="#DejaVuSans-46"/>
       <use x="95.410156" xlink:href="#DejaVuSans-48"/>
      </g>
     </g>
    </g>
    <g id="xtick_5">
     <g id="line2d_11">
      <path clip-path="url(#pce876a4ab5)" d="M 300.907187 179.998125 
L 300.907187 22.318125 
" style="fill:none;stroke:#ffffff;stroke-linecap:round;"/>
     </g>
     <g id="text_14">
      <!-- 0.5 -->
      <g style="fill:#262626;" transform="translate(292.160469 197.856406)scale(0.11 -0.11)">
       <use xlink:href="#DejaVuSans-48"/>
       <use x="63.623047" xlink:href="#DejaVuSans-46"/>
       <use x="95.410156" xlink:href="#DejaVuSans-53"/>
      </g>
     </g>
    </g>
    <g id="xtick_6">
     <g id="line2d_12">
      <path clip-path="url(#pce876a4ab5)" d="M 368.046225 179.998125 
L 368.046225 22.318125 
" style="fill:none;stroke:#ffffff;stroke-linecap:round;"/>
     </g>
     <g id="text_15">
      <!-- 1.0 -->
      <g style="fill:#262626;" transform="translate(359.299506 197.856406)scale(0.11 -0.11)">
       <use xlink:href="#DejaVuSans-49"/>
       <use x="63.623047" xlink:href="#DejaVuSans-46"/>
       <use x="95.410156" xlink:href="#DejaVuSans-48"/>
      </g>
     </g>
    </g>
    <g id="text_16">
     <!-- $\theta$ -->
     <g style="fill:#262626;" transform="translate(297.187187 213.262188)scale(0.12 -0.12)">
      <use transform="translate(0 0.234375)" xlink:href="#DejaVuSans-Oblique-952"/>
     </g>
    </g>
   </g>
   <g id="matplotlib.axis_4">
    <g id="ytick_7">
     <g id="line2d_13">
      <path clip-path="url(#pce876a4ab5)" d="M 227.054246 172.830852 
L 374.760129 172.830852 
" style="fill:none;stroke:#ffffff;stroke-linecap:round;"/>
     </g>
     <g id="text_17">
      <!-- 0.0 -->
      <g style="fill:#262626;" transform="translate(200.060809 177.009993)scale(0.11 -0.11)">
       <use xlink:href="#DejaVuSans-48"/>
       <use x="63.623047" xlink:href="#DejaVuSans-46"/>
       <use x="95.410156" xlink:href="#DejaVuSans-48"/>
      </g>
     </g>
    </g>
    <g id="ytick_8">
     <g id="line2d_14">
      <path clip-path="url(#pce876a4ab5)" d="M 227.054246 144.161761 
L 374.760129 144.161761 
" style="fill:none;stroke:#ffffff;stroke-linecap:round;"/>
     </g>
     <g id="text_18">
      <!-- 0.2 -->
      <g style="fill:#262626;" transform="translate(200.060809 148.340902)scale(0.11 -0.11)">
       <use xlink:href="#DejaVuSans-48"/>
       <use x="63.623047" xlink:href="#DejaVuSans-46"/>
       <use x="95.410156" xlink:href="#DejaVuSans-50"/>
      </g>
     </g>
    </g>
    <g id="ytick_9">
     <g id="line2d_15">
      <path clip-path="url(#pce876a4ab5)" d="M 227.054246 115.49267 
L 374.760129 115.49267 
" style="fill:none;stroke:#ffffff;stroke-linecap:round;"/>
     </g>
     <g id="text_19">
      <!-- 0.4 -->
      <defs>
       <path d="M 37.796875 64.3125 
L 12.890625 25.390625 
L 37.796875 25.390625 
z
M 35.203125 72.90625 
L 47.609375 72.90625 
L 47.609375 25.390625 
L 58.015625 25.390625 
L 58.015625 17.1875 
L 47.609375 17.1875 
L 47.609375 0 
L 37.796875 0 
L 37.796875 17.1875 
L 4.890625 17.1875 
L 4.890625 26.703125 
z
" id="DejaVuSans-52"/>
      </defs>
      <g style="fill:#262626;" transform="translate(200.060809 119.671811)scale(0.11 -0.11)">
       <use xlink:href="#DejaVuSans-48"/>
       <use x="63.623047" xlink:href="#DejaVuSans-46"/>
       <use x="95.410156" xlink:href="#DejaVuSans-52"/>
      </g>
     </g>
    </g>
    <g id="ytick_10">
     <g id="line2d_16">
      <path clip-path="url(#pce876a4ab5)" d="M 227.054246 86.82358 
L 374.760129 86.82358 
" style="fill:none;stroke:#ffffff;stroke-linecap:round;"/>
     </g>
     <g id="text_20">
      <!-- 0.6 -->
      <defs>
       <path d="M 33.015625 40.375 
Q 26.375 40.375 22.484375 35.828125 
Q 18.609375 31.296875 18.609375 23.390625 
Q 18.609375 15.53125 22.484375 10.953125 
Q 26.375 6.390625 33.015625 6.390625 
Q 39.65625 6.390625 43.53125 10.953125 
Q 47.40625 15.53125 47.40625 23.390625 
Q 47.40625 31.296875 43.53125 35.828125 
Q 39.65625 40.375 33.015625 40.375 
z
M 52.59375 71.296875 
L 52.59375 62.3125 
Q 48.875 64.0625 45.09375 64.984375 
Q 41.3125 65.921875 37.59375 65.921875 
Q 27.828125 65.921875 22.671875 59.328125 
Q 17.53125 52.734375 16.796875 39.40625 
Q 19.671875 43.65625 24.015625 45.921875 
Q 28.375 48.1875 33.59375 48.1875 
Q 44.578125 48.1875 50.953125 41.515625 
Q 57.328125 34.859375 57.328125 23.390625 
Q 57.328125 12.15625 50.6875 5.359375 
Q 44.046875 -1.421875 33.015625 -1.421875 
Q 20.359375 -1.421875 13.671875 8.265625 
Q 6.984375 17.96875 6.984375 36.375 
Q 6.984375 53.65625 15.1875 63.9375 
Q 23.390625 74.21875 37.203125 74.21875 
Q 40.921875 74.21875 44.703125 73.484375 
Q 48.484375 72.75 52.59375 71.296875 
z
" id="DejaVuSans-54"/>
      </defs>
      <g style="fill:#262626;" transform="translate(200.060809 91.00272)scale(0.11 -0.11)">
       <use xlink:href="#DejaVuSans-48"/>
       <use x="63.623047" xlink:href="#DejaVuSans-46"/>
       <use x="95.410156" xlink:href="#DejaVuSans-54"/>
      </g>
     </g>
    </g>
    <g id="ytick_11">
     <g id="line2d_17">
      <path clip-path="url(#pce876a4ab5)" d="M 227.054246 58.154489 
L 374.760129 58.154489 
" style="fill:none;stroke:#ffffff;stroke-linecap:round;"/>
     </g>
     <g id="text_21">
      <!-- 0.8 -->
      <defs>
       <path d="M 31.78125 34.625 
Q 24.75 34.625 20.71875 30.859375 
Q 16.703125 27.09375 16.703125 20.515625 
Q 16.703125 13.921875 20.71875 10.15625 
Q 24.75 6.390625 31.78125 6.390625 
Q 38.8125 6.390625 42.859375 10.171875 
Q 46.921875 13.96875 46.921875 20.515625 
Q 46.921875 27.09375 42.890625 30.859375 
Q 38.875 34.625 31.78125 34.625 
z
M 21.921875 38.8125 
Q 15.578125 40.375 12.03125 44.71875 
Q 8.5 49.078125 8.5 55.328125 
Q 8.5 64.0625 14.71875 69.140625 
Q 20.953125 74.21875 31.78125 74.21875 
Q 42.671875 74.21875 48.875 69.140625 
Q 55.078125 64.0625 55.078125 55.328125 
Q 55.078125 49.078125 51.53125 44.71875 
Q 48 40.375 41.703125 38.8125 
Q 48.828125 37.15625 52.796875 32.3125 
Q 56.78125 27.484375 56.78125 20.515625 
Q 56.78125 9.90625 50.3125 4.234375 
Q 43.84375 -1.421875 31.78125 -1.421875 
Q 19.734375 -1.421875 13.25 4.234375 
Q 6.78125 9.90625 6.78125 20.515625 
Q 6.78125 27.484375 10.78125 32.3125 
Q 14.796875 37.15625 21.921875 38.8125 
z
M 18.3125 54.390625 
Q 18.3125 48.734375 21.84375 45.5625 
Q 25.390625 42.390625 31.78125 42.390625 
Q 38.140625 42.390625 41.71875 45.5625 
Q 45.3125 48.734375 45.3125 54.390625 
Q 45.3125 60.0625 41.71875 63.234375 
Q 38.140625 66.40625 31.78125 66.40625 
Q 25.390625 66.40625 21.84375 63.234375 
Q 18.3125 60.0625 18.3125 54.390625 
z
" id="DejaVuSans-56"/>
      </defs>
      <g style="fill:#262626;" transform="translate(200.060809 62.333629)scale(0.11 -0.11)">
       <use xlink:href="#DejaVuSans-48"/>
       <use x="63.623047" xlink:href="#DejaVuSans-46"/>
       <use x="95.410156" xlink:href="#DejaVuSans-56"/>
      </g>
     </g>
    </g>
    <g id="ytick_12">
     <g id="line2d_18">
      <path clip-path="url(#pce876a4ab5)" d="M 227.054246 29.485398 
L 374.760129 29.485398 
" style="fill:none;stroke:#ffffff;stroke-linecap:round;"/>
     </g>
     <g id="text_22">
      <!-- 1.0 -->
      <g style="fill:#262626;" transform="translate(200.060809 33.664538)scale(0.11 -0.11)">
       <use xlink:href="#DejaVuSans-49"/>
       <use x="63.623047" xlink:href="#DejaVuSans-46"/>
       <use x="95.410156" xlink:href="#DejaVuSans-48"/>
      </g>
     </g>
    </g>
   </g>
   <g id="PolyCollection_2">
    <defs>
     <path d="M 233.76815 -50.12696 
L 233.76815 -50.12696 
L 235.110931 -51.560415 
L 236.453712 -52.993869 
L 237.796492 -54.427324 
L 239.139273 -55.860778 
L 240.482054 -57.294233 
L 241.824835 -58.727688 
L 243.167615 -60.161142 
L 244.510396 -61.594597 
L 245.853177 -63.028051 
L 247.195958 -64.461506 
L 248.538738 -65.89496 
L 249.881519 -67.328415 
L 251.2243 -68.761869 
L 252.567081 -70.195324 
L 253.909861 -71.628778 
L 255.252642 -73.062233 
L 256.595423 -74.495688 
L 257.938204 -75.929142 
L 259.280984 -77.362597 
L 260.623765 -78.796051 
L 261.966546 -80.229506 
L 263.309327 -81.66296 
L 264.652107 -83.096415 
L 265.994888 -84.529869 
L 267.337669 -85.963324 
L 268.68045 -87.396778 
L 270.02323 -88.830233 
L 271.366011 -90.263688 
L 272.708792 -91.697142 
L 274.051573 -93.130597 
L 275.394353 -94.564051 
L 276.737134 -95.997506 
L 278.079915 -97.43096 
L 279.422696 -98.864415 
L 280.765476 -100.297869 
L 282.108257 -101.731324 
L 283.451038 -103.164778 
L 284.793819 -104.598233 
L 286.136599 -106.031688 
L 287.47938 -107.465142 
L 288.822161 -108.898597 
L 290.164942 -110.332051 
L 291.507722 -111.765506 
L 292.850503 -113.19896 
L 294.193284 -114.632415 
L 295.536065 -116.065869 
L 296.878845 -117.499324 
L 298.221626 -118.932778 
L 299.564407 -120.366233 
L 300.907187 -121.799688 
L 302.249968 -123.233142 
L 303.592749 -124.666597 
L 304.93553 -126.100051 
L 306.27831 -127.533506 
L 307.621091 -128.96696 
L 308.963872 -130.400415 
L 310.306653 -131.833869 
L 311.649433 -133.267324 
L 312.992214 -134.700778 
L 314.334995 -136.134233 
L 315.677776 -137.567688 
L 317.020556 -139.001142 
L 318.363337 -140.434597 
L 319.706118 -141.868051 
L 321.048899 -143.301506 
L 322.391679 -144.73496 
L 323.73446 -146.168415 
L 325.077241 -147.601869 
L 326.420022 -149.035324 
L 327.762802 -150.468778 
L 329.105583 -151.902233 
L 330.448364 -153.335688 
L 331.791145 -154.769142 
L 333.133925 -156.202597 
L 334.476706 -157.636051 
L 335.819487 -159.069506 
L 337.162268 -160.50296 
L 338.505048 -161.936415 
L 339.847829 -163.369869 
L 341.19061 -164.803324 
L 342.533391 -166.236778 
L 343.876171 -167.670233 
L 345.218952 -169.103688 
L 346.561733 -170.537142 
L 347.904514 -171.970597 
L 349.247294 -173.404051 
L 350.590075 -174.837506 
L 351.932856 -176.27096 
L 353.275637 -177.704415 
L 354.618417 -179.137869 
L 355.961198 -180.571324 
L 357.303979 -182.004778 
L 358.64676 -183.438233 
L 359.98954 -184.871688 
L 361.332321 -186.305142 
L 362.675102 -187.738597 
L 364.017883 -189.172051 
L 365.360663 -190.605506 
L 366.703444 -192.03896 
L 368.046225 -193.472415 
L 368.046225 -50.12696 
L 368.046225 -50.12696 
L 366.703444 -50.12696 
L 365.360663 -50.12696 
L 364.017883 -50.12696 
L 362.675102 -50.12696 
L 361.332321 -50.12696 
L 359.98954 -50.12696 
L 358.64676 -50.12696 
L 357.303979 -50.12696 
L 355.961198 -50.12696 
L 354.618417 -50.12696 
L 353.275637 -50.12696 
L 351.932856 -50.12696 
L 350.590075 -50.12696 
L 349.247294 -50.12696 
L 347.904514 -50.12696 
L 346.561733 -50.12696 
L 345.218952 -50.12696 
L 343.876171 -50.12696 
L 342.533391 -50.12696 
L 341.19061 -50.12696 
L 339.847829 -50.12696 
L 338.505048 -50.12696 
L 337.162268 -50.12696 
L 335.819487 -50.12696 
L 334.476706 -50.12696 
L 333.133925 -50.12696 
L 331.791145 -50.12696 
L 330.448364 -50.12696 
L 329.105583 -50.12696 
L 327.762802 -50.12696 
L 326.420022 -50.12696 
L 325.077241 -50.12696 
L 323.73446 -50.12696 
L 322.391679 -50.12696 
L 321.048899 -50.12696 
L 319.706118 -50.12696 
L 318.363337 -50.12696 
L 317.020556 -50.12696 
L 315.677776 -50.12696 
L 314.334995 -50.12696 
L 312.992214 -50.12696 
L 311.649433 -50.12696 
L 310.306653 -50.12696 
L 308.963872 -50.12696 
L 307.621091 -50.12696 
L 306.27831 -50.12696 
L 304.93553 -50.12696 
L 303.592749 -50.12696 
L 302.249968 -50.12696 
L 300.907187 -50.12696 
L 299.564407 -50.12696 
L 298.221626 -50.12696 
L 296.878845 -50.12696 
L 295.536065 -50.12696 
L 294.193284 -50.12696 
L 292.850503 -50.12696 
L 291.507722 -50.12696 
L 290.164942 -50.12696 
L 288.822161 -50.12696 
L 287.47938 -50.12696 
L 286.136599 -50.12696 
L 284.793819 -50.12696 
L 283.451038 -50.12696 
L 282.108257 -50.12696 
L 280.765476 -50.12696 
L 279.422696 -50.12696 
L 278.079915 -50.12696 
L 276.737134 -50.12696 
L 275.394353 -50.12696 
L 274.051573 -50.12696 
L 272.708792 -50.12696 
L 271.366011 -50.12696 
L 270.02323 -50.12696 
L 268.68045 -50.12696 
L 267.337669 -50.12696 
L 265.994888 -50.12696 
L 264.652107 -50.12696 
L 263.309327 -50.12696 
L 261.966546 -50.12696 
L 260.623765 -50.12696 
L 259.280984 -50.12696 
L 257.938204 -50.12696 
L 256.595423 -50.12696 
L 255.252642 -50.12696 
L 253.909861 -50.12696 
L 252.567081 -50.12696 
L 251.2243 -50.12696 
L 249.881519 -50.12696 
L 248.538738 -50.12696 
L 247.195958 -50.12696 
L 245.853177 -50.12696 
L 244.510396 -50.12696 
L 243.167615 -50.12696 
L 241.824835 -50.12696 
L 240.482054 -50.12696 
L 239.139273 -50.12696 
L 237.796492 -50.12696 
L 236.453712 -50.12696 
L 235.110931 -50.12696 
L 233.76815 -50.12696 
z
" id="m1f77acf57f" style="stroke:#ffffff;"/>
    </defs>
    <g clip-path="url(#pce876a4ab5)">
     <use style="fill:#4c72b0;stroke:#ffffff;" x="0" xlink:href="#m1f77acf57f" y="222.957813"/>
    </g>
   </g>
   <g id="patch_8">
    <path d="M 227.054246 179.998125 
L 227.054246 22.318125 
" style="fill:none;stroke:#ffffff;stroke-linecap:square;stroke-linejoin:miter;stroke-width:1.25;"/>
   </g>
   <g id="patch_9">
    <path d="M 374.760129 179.998125 
L 374.760129 22.318125 
" style="fill:none;stroke:#ffffff;stroke-linecap:square;stroke-linejoin:miter;stroke-width:1.25;"/>
   </g>
   <g id="patch_10">
    <path d="M 227.054246 179.998125 
L 374.760129 179.998125 
" style="fill:none;stroke:#ffffff;stroke-linecap:square;stroke-linejoin:miter;stroke-width:1.25;"/>
   </g>
   <g id="patch_11">
    <path d="M 227.054246 22.318125 
L 374.760129 22.318125 
" style="fill:none;stroke:#ffffff;stroke-linecap:square;stroke-linejoin:miter;stroke-width:1.25;"/>
   </g>
   <g id="text_23">
    <!-- likelihood -->
    <defs>
     <path d="M 9.421875 75.984375 
L 18.40625 75.984375 
L 18.40625 0 
L 9.421875 0 
z
" id="DejaVuSans-108"/>
     <path d="M 9.078125 75.984375 
L 18.109375 75.984375 
L 18.109375 31.109375 
L 44.921875 54.6875 
L 56.390625 54.6875 
L 27.390625 29.109375 
L 57.625 0 
L 45.90625 0 
L 18.109375 26.703125 
L 18.109375 0 
L 9.078125 0 
z
" id="DejaVuSans-107"/>
     <path d="M 54.890625 33.015625 
L 54.890625 0 
L 45.90625 0 
L 45.90625 32.71875 
Q 45.90625 40.484375 42.875 44.328125 
Q 39.84375 48.1875 33.796875 48.1875 
Q 26.515625 48.1875 22.3125 43.546875 
Q 18.109375 38.921875 18.109375 30.90625 
L 18.109375 0 
L 9.078125 0 
L 9.078125 75.984375 
L 18.109375 75.984375 
L 18.109375 46.1875 
Q 21.34375 51.125 25.703125 53.5625 
Q 30.078125 56 35.796875 56 
Q 45.21875 56 50.046875 50.171875 
Q 54.890625 44.34375 54.890625 33.015625 
z
" id="DejaVuSans-104"/>
    </defs>
    <g style="fill:#262626;" transform="translate(272.122187 16.318125)scale(0.12 -0.12)">
     <use xlink:href="#DejaVuSans-108"/>
     <use x="27.783203" xlink:href="#DejaVuSans-105"/>
     <use x="55.566406" xlink:href="#DejaVuSans-107"/>
     <use x="113.429688" xlink:href="#DejaVuSans-101"/>
     <use x="174.953125" xlink:href="#DejaVuSans-108"/>
     <use x="202.736328" xlink:href="#DejaVuSans-105"/>
     <use x="230.519531" xlink:href="#DejaVuSans-104"/>
     <use x="293.898438" xlink:href="#DejaVuSans-111"/>
     <use x="355.080078" xlink:href="#DejaVuSans-111"/>
     <use x="416.261719" xlink:href="#DejaVuSans-100"/>
    </g>
   </g>
  </g>
  <g id="axes_3">
   <g id="patch_12">
    <path d="M 404.301305 179.998125 
L 552.007188 179.998125 
L 552.007188 22.318125 
L 404.301305 22.318125 
z
" style="fill:#eaeaf2;"/>
   </g>
   <g id="matplotlib.axis_5">
    <g id="xtick_7">
     <g id="line2d_19">
      <path clip-path="url(#p7c27171ea5)" d="M 409.658865 179.998125 
L 409.658865 22.318125 
" style="fill:none;stroke:#ffffff;stroke-linecap:round;"/>
     </g>
     <g id="text_24">
      <!-- 0.0 -->
      <g style="fill:#262626;" transform="translate(400.912146 197.856406)scale(0.11 -0.11)">
       <use xlink:href="#DejaVuSans-48"/>
       <use x="63.623047" xlink:href="#DejaVuSans-46"/>
       <use x="95.410156" xlink:href="#DejaVuSans-48"/>
      </g>
     </g>
    </g>
    <g id="xtick_8">
     <g id="line2d_20">
      <path clip-path="url(#p7c27171ea5)" d="M 477.476074 179.998125 
L 477.476074 22.318125 
" style="fill:none;stroke:#ffffff;stroke-linecap:round;"/>
     </g>
     <g id="text_25">
      <!-- 0.5 -->
      <g style="fill:#262626;" transform="translate(468.729355 197.856406)scale(0.11 -0.11)">
       <use xlink:href="#DejaVuSans-48"/>
       <use x="63.623047" xlink:href="#DejaVuSans-46"/>
       <use x="95.410156" xlink:href="#DejaVuSans-53"/>
      </g>
     </g>
    </g>
    <g id="xtick_9">
     <g id="line2d_21">
      <path clip-path="url(#p7c27171ea5)" d="M 545.293284 179.998125 
L 545.293284 22.318125 
" style="fill:none;stroke:#ffffff;stroke-linecap:round;"/>
     </g>
     <g id="text_26">
      <!-- 1.0 -->
      <g style="fill:#262626;" transform="translate(536.546565 197.856406)scale(0.11 -0.11)">
       <use xlink:href="#DejaVuSans-49"/>
       <use x="63.623047" xlink:href="#DejaVuSans-46"/>
       <use x="95.410156" xlink:href="#DejaVuSans-48"/>
      </g>
     </g>
    </g>
    <g id="text_27">
     <!-- $\theta$ -->
     <g style="fill:#262626;" transform="translate(474.434246 213.262188)scale(0.12 -0.12)">
      <use transform="translate(0 0.234375)" xlink:href="#DejaVuSans-Oblique-952"/>
     </g>
    </g>
   </g>
   <g id="matplotlib.axis_6">
    <g id="ytick_13">
     <g id="line2d_22">
      <path clip-path="url(#p7c27171ea5)" d="M 404.301305 172.830852 
L 552.007188 172.830852 
" style="fill:none;stroke:#ffffff;stroke-linecap:round;"/>
     </g>
     <g id="text_28">
      <!-- 0.0 -->
      <g style="fill:#262626;" transform="translate(377.307868 177.009993)scale(0.11 -0.11)">
       <use xlink:href="#DejaVuSans-48"/>
       <use x="63.623047" xlink:href="#DejaVuSans-46"/>
       <use x="95.410156" xlink:href="#DejaVuSans-48"/>
      </g>
     </g>
    </g>
    <g id="ytick_14">
     <g id="line2d_23">
      <path clip-path="url(#p7c27171ea5)" d="M 404.301305 131.880975 
L 552.007188 131.880975 
" style="fill:none;stroke:#ffffff;stroke-linecap:round;"/>
     </g>
     <g id="text_29">
      <!-- 0.2 -->
      <g style="fill:#262626;" transform="translate(377.307868 136.060116)scale(0.11 -0.11)">
       <use xlink:href="#DejaVuSans-48"/>
       <use x="63.623047" xlink:href="#DejaVuSans-46"/>
       <use x="95.410156" xlink:href="#DejaVuSans-50"/>
      </g>
     </g>
    </g>
    <g id="ytick_15">
     <g id="line2d_24">
      <path clip-path="url(#p7c27171ea5)" d="M 404.301305 90.931098 
L 552.007188 90.931098 
" style="fill:none;stroke:#ffffff;stroke-linecap:round;"/>
     </g>
     <g id="text_30">
      <!-- 0.4 -->
      <g style="fill:#262626;" transform="translate(377.307868 95.110239)scale(0.11 -0.11)">
       <use xlink:href="#DejaVuSans-48"/>
       <use x="63.623047" xlink:href="#DejaVuSans-46"/>
       <use x="95.410156" xlink:href="#DejaVuSans-52"/>
      </g>
     </g>
    </g>
    <g id="ytick_16">
     <g id="line2d_25">
      <path clip-path="url(#p7c27171ea5)" d="M 404.301305 49.981221 
L 552.007188 49.981221 
" style="fill:none;stroke:#ffffff;stroke-linecap:round;"/>
     </g>
     <g id="text_31">
      <!-- 0.6 -->
      <g style="fill:#262626;" transform="translate(377.307868 54.160361)scale(0.11 -0.11)">
       <use xlink:href="#DejaVuSans-48"/>
       <use x="63.623047" xlink:href="#DejaVuSans-46"/>
       <use x="95.410156" xlink:href="#DejaVuSans-54"/>
      </g>
     </g>
    </g>
   </g>
   <g id="PolyCollection_3">
    <defs>
     <path d="M 411.015209 -50.12696 
L 411.015209 -55.830966 
L 412.371553 -59.393799 
L 413.727897 -62.435697 
L 415.084241 -65.182049 
L 416.440586 -67.727672 
L 417.79693 -70.123975 
L 419.153274 -72.402834 
L 420.509618 -74.585754 
L 421.865962 -76.688119 
L 423.222307 -78.721422 
L 424.578651 -80.694538 
L 425.934995 -82.614504 
L 427.291339 -84.487019 
L 428.647683 -86.316783 
L 430.004028 -88.107731 
L 431.360372 -89.863197 
L 432.716716 -91.586042 
L 434.07306 -93.27874 
L 435.429404 -94.943454 
L 436.785749 -96.582085 
L 438.142093 -98.196316 
L 439.498437 -99.787648 
L 440.854781 -101.357426 
L 442.211125 -102.906862 
L 443.567469 -104.43705 
L 444.923814 -105.948987 
L 446.280158 -107.443579 
L 447.636502 -108.921657 
L 448.992846 -110.383986 
L 450.34919 -111.831266 
L 451.705535 -113.264148 
L 453.061879 -114.683231 
L 454.418223 -116.089075 
L 455.774567 -117.482199 
L 457.130911 -118.863086 
L 458.487256 -120.23219 
L 459.8436 -121.589935 
L 461.199944 -122.936717 
L 462.556288 -124.272911 
L 463.912632 -125.598868 
L 465.268977 -126.91492 
L 466.625321 -128.22138 
L 467.981665 -129.518543 
L 469.338009 -130.806689 
L 470.694353 -132.086085 
L 472.050697 -133.356982 
L 473.407042 -134.61962 
L 474.763386 -135.874226 
L 476.11973 -137.121017 
L 477.476074 -138.3602 
L 478.832418 -139.591972 
L 480.188763 -140.816521 
L 481.545107 -142.034028 
L 482.901451 -143.244665 
L 484.257795 -144.448596 
L 485.614139 -145.645981 
L 486.970484 -146.836969 
L 488.326828 -148.021708 
L 489.683172 -149.200336 
L 491.039516 -150.372988 
L 492.39586 -151.539793 
L 493.752205 -152.700875 
L 495.108549 -153.856355 
L 496.464893 -155.006347 
L 497.821237 -156.150962 
L 499.177581 -157.290308 
L 500.533925 -158.424489 
L 501.89027 -159.553604 
L 503.246614 -160.677751 
L 504.602958 -161.797021 
L 505.959302 -162.911507 
L 507.315646 -164.021295 
L 508.671991 -165.126469 
L 510.028335 -166.227113 
L 511.384679 -167.323305 
L 512.741023 -168.415122 
L 514.097367 -169.502639 
L 515.453712 -170.585929 
L 516.810056 -171.665062 
L 518.1664 -172.740105 
L 519.522744 -173.811126 
L 520.879088 -174.878189 
L 522.235433 -175.941356 
L 523.591777 -177.000689 
L 524.948121 -178.056246 
L 526.304465 -179.108085 
L 527.660809 -180.156263 
L 529.017153 -181.200834 
L 530.373498 -182.241851 
L 531.729842 -183.279365 
L 533.086186 -184.313429 
L 534.44253 -185.34409 
L 535.798874 -186.371396 
L 537.155219 -187.395395 
L 538.511563 -188.416133 
L 539.867907 -189.433653 
L 541.224251 -190.447999 
L 542.580595 -191.459214 
L 543.93694 -192.467339 
L 545.293284 -193.472415 
L 545.293284 -50.12696 
L 545.293284 -50.12696 
L 543.93694 -50.12696 
L 542.580595 -50.12696 
L 541.224251 -50.12696 
L 539.867907 -50.12696 
L 538.511563 -50.12696 
L 537.155219 -50.12696 
L 535.798874 -50.12696 
L 534.44253 -50.12696 
L 533.086186 -50.12696 
L 531.729842 -50.12696 
L 530.373498 -50.12696 
L 529.017153 -50.12696 
L 527.660809 -50.12696 
L 526.304465 -50.12696 
L 524.948121 -50.12696 
L 523.591777 -50.12696 
L 522.235433 -50.12696 
L 520.879088 -50.12696 
L 519.522744 -50.12696 
L 518.1664 -50.12696 
L 516.810056 -50.12696 
L 515.453712 -50.12696 
L 514.097367 -50.12696 
L 512.741023 -50.12696 
L 511.384679 -50.12696 
L 510.028335 -50.12696 
L 508.671991 -50.12696 
L 507.315646 -50.12696 
L 505.959302 -50.12696 
L 504.602958 -50.12696 
L 503.246614 -50.12696 
L 501.89027 -50.12696 
L 500.533925 -50.12696 
L 499.177581 -50.12696 
L 497.821237 -50.12696 
L 496.464893 -50.12696 
L 495.108549 -50.12696 
L 493.752205 -50.12696 
L 492.39586 -50.12696 
L 491.039516 -50.12696 
L 489.683172 -50.12696 
L 488.326828 -50.12696 
L 486.970484 -50.12696 
L 485.614139 -50.12696 
L 484.257795 -50.12696 
L 482.901451 -50.12696 
L 481.545107 -50.12696 
L 480.188763 -50.12696 
L 478.832418 -50.12696 
L 477.476074 -50.12696 
L 476.11973 -50.12696 
L 474.763386 -50.12696 
L 473.407042 -50.12696 
L 472.050697 -50.12696 
L 470.694353 -50.12696 
L 469.338009 -50.12696 
L 467.981665 -50.12696 
L 466.625321 -50.12696 
L 465.268977 -50.12696 
L 463.912632 -50.12696 
L 462.556288 -50.12696 
L 461.199944 -50.12696 
L 459.8436 -50.12696 
L 458.487256 -50.12696 
L 457.130911 -50.12696 
L 455.774567 -50.12696 
L 454.418223 -50.12696 
L 453.061879 -50.12696 
L 451.705535 -50.12696 
L 450.34919 -50.12696 
L 448.992846 -50.12696 
L 447.636502 -50.12696 
L 446.280158 -50.12696 
L 444.923814 -50.12696 
L 443.567469 -50.12696 
L 442.211125 -50.12696 
L 440.854781 -50.12696 
L 439.498437 -50.12696 
L 438.142093 -50.12696 
L 436.785749 -50.12696 
L 435.429404 -50.12696 
L 434.07306 -50.12696 
L 432.716716 -50.12696 
L 431.360372 -50.12696 
L 430.004028 -50.12696 
L 428.647683 -50.12696 
L 427.291339 -50.12696 
L 425.934995 -50.12696 
L 424.578651 -50.12696 
L 423.222307 -50.12696 
L 421.865962 -50.12696 
L 420.509618 -50.12696 
L 419.153274 -50.12696 
L 417.79693 -50.12696 
L 416.440586 -50.12696 
L 415.084241 -50.12696 
L 413.727897 -50.12696 
L 412.371553 -50.12696 
L 411.015209 -50.12696 
z
" id="m7e5e39ac07" style="stroke:#ffffff;"/>
    </defs>
    <g clip-path="url(#p7c27171ea5)">
     <use style="fill:#4c72b0;stroke:#ffffff;" x="0" xlink:href="#m7e5e39ac07" y="222.957813"/>
    </g>
   </g>
   <g id="patch_13">
    <path d="M 404.301305 179.998125 
L 404.301305 22.318125 
" style="fill:none;stroke:#ffffff;stroke-linecap:square;stroke-linejoin:miter;stroke-width:1.25;"/>
   </g>
   <g id="patch_14">
    <path d="M 552.007188 179.998125 
L 552.007188 22.318125 
" style="fill:none;stroke:#ffffff;stroke-linecap:square;stroke-linejoin:miter;stroke-width:1.25;"/>
   </g>
   <g id="patch_15">
    <path d="M 404.301305 179.998125 
L 552.007188 179.998125 
" style="fill:none;stroke:#ffffff;stroke-linecap:square;stroke-linejoin:miter;stroke-width:1.25;"/>
   </g>
   <g id="patch_16">
    <path d="M 404.301305 22.318125 
L 552.007188 22.318125 
" style="fill:none;stroke:#ffffff;stroke-linecap:square;stroke-linejoin:miter;stroke-width:1.25;"/>
   </g>
   <g id="text_32">
    <!-- Posterior -->
    <g style="fill:#262626;" transform="translate(451.427059 16.318125)scale(0.12 -0.12)">
     <use xlink:href="#DejaVuSans-80"/>
     <use x="60.255859" xlink:href="#DejaVuSans-111"/>
     <use x="121.4375" xlink:href="#DejaVuSans-115"/>
     <use x="173.537109" xlink:href="#DejaVuSans-116"/>
     <use x="212.746094" xlink:href="#DejaVuSans-101"/>
     <use x="274.269531" xlink:href="#DejaVuSans-114"/>
     <use x="315.382812" xlink:href="#DejaVuSans-105"/>
     <use x="343.166016" xlink:href="#DejaVuSans-111"/>
     <use x="404.347656" xlink:href="#DejaVuSans-114"/>
    </g>
   </g>
  </g>
 </g>
 <defs>
  <clipPath id="pff11e2ace1">
   <rect height="157.68" width="147.705882" x="49.807188" y="22.318125"/>
  </clipPath>
  <clipPath id="pce876a4ab5">
   <rect height="157.68" width="147.705882" x="227.054246" y="22.318125"/>
  </clipPath>
  <clipPath id="p7c27171ea5">
   <rect height="157.68" width="147.705882" x="404.301305" y="22.318125"/>
  </clipPath>
 </defs>
</svg>
