<?xml version="1.0" encoding="utf-8" standalone="no"?>
<!DOCTYPE svg PUBLIC "-//W3C//DTD SVG 1.1//EN"
  "http://www.w3.org/Graphics/SVG/1.1/DTD/svg11.dtd">
<!-- Created with matplotlib (https://matplotlib.org/) -->
<svg height="228.479688pt" version="1.1" viewBox="0 0 390.140613 228.479688" width="390.140613pt" xmlns="http://www.w3.org/2000/svg" xmlns:xlink="http://www.w3.org/1999/xlink">
 <defs>
  <style type="text/css">
*{stroke-linecap:butt;stroke-linejoin:round;}
  </style>
 </defs>
 <g id="figure_1">
  <g id="patch_1">
   <path d="M 0 228.479688 
L 390.140613 228.479688 
L 390.140613 0 
L 0 0 
z
" style="fill:#ffffff;"/>
  </g>
  <g id="axes_1">
   <g id="patch_2">
    <path d="M 46.31125 185.52 
L 198.493068 185.52 
L 198.493068 22.44 
L 46.31125 22.44 
z
" style="fill:#eaeaf2;"/>
   </g>
   <g id="matplotlib.axis_1">
    <g id="xtick_1">
     <g id="line2d_1">
      <path clip-path="url(#p3ec6f0a31e)" d="M 53.228605 185.52 
L 53.228605 22.44 
" style="fill:none;stroke:#ffffff;stroke-linecap:round;"/>
     </g>
     <g id="text_1">
      <!-- 0.0 -->
      <defs>
       <path d="M 31.78125 66.40625 
Q 24.171875 66.40625 20.328125 58.90625 
Q 16.5 51.421875 16.5 36.375 
Q 16.5 21.390625 20.328125 13.890625 
Q 24.171875 6.390625 31.78125 6.390625 
Q 39.453125 6.390625 43.28125 13.890625 
Q 47.125 21.390625 47.125 36.375 
Q 47.125 51.421875 43.28125 58.90625 
Q 39.453125 66.40625 31.78125 66.40625 
z
M 31.78125 74.21875 
Q 44.046875 74.21875 50.515625 64.515625 
Q 56.984375 54.828125 56.984375 36.375 
Q 56.984375 17.96875 50.515625 8.265625 
Q 44.046875 -1.421875 31.78125 -1.421875 
Q 19.53125 -1.421875 13.0625 8.265625 
Q 6.59375 17.96875 6.59375 36.375 
Q 6.59375 54.828125 13.0625 64.515625 
Q 19.53125 74.21875 31.78125 74.21875 
z
" id="DejaVuSans-48"/>
       <path d="M 10.6875 12.40625 
L 21 12.40625 
L 21 0 
L 10.6875 0 
z
" id="DejaVuSans-46"/>
      </defs>
      <g style="fill:#262626;" transform="translate(44.481887 203.378281)scale(0.11 -0.11)">
       <use xlink:href="#DejaVuSans-48"/>
       <use x="63.623047" xlink:href="#DejaVuSans-46"/>
       <use x="95.410156" xlink:href="#DejaVuSans-48"/>
      </g>
     </g>
    </g>
    <g id="xtick_2">
     <g id="line2d_2">
      <path clip-path="url(#p3ec6f0a31e)" d="M 122.402159 185.52 
L 122.402159 22.44 
" style="fill:none;stroke:#ffffff;stroke-linecap:round;"/>
     </g>
     <g id="text_2">
      <!-- 0.5 -->
      <defs>
       <path d="M 10.796875 72.90625 
L 49.515625 72.90625 
L 49.515625 64.59375 
L 19.828125 64.59375 
L 19.828125 46.734375 
Q 21.96875 47.46875 24.109375 47.828125 
Q 26.265625 48.1875 28.421875 48.1875 
Q 40.625 48.1875 47.75 41.5 
Q 54.890625 34.8125 54.890625 23.390625 
Q 54.890625 11.625 47.5625 5.09375 
Q 40.234375 -1.421875 26.90625 -1.421875 
Q 22.3125 -1.421875 17.546875 -0.640625 
Q 12.796875 0.140625 7.71875 1.703125 
L 7.71875 11.625 
Q 12.109375 9.234375 16.796875 8.0625 
Q 21.484375 6.890625 26.703125 6.890625 
Q 35.15625 6.890625 40.078125 11.328125 
Q 45.015625 15.765625 45.015625 23.390625 
Q 45.015625 31 40.078125 35.4375 
Q 35.15625 39.890625 26.703125 39.890625 
Q 22.75 39.890625 18.8125 39.015625 
Q 14.890625 38.140625 10.796875 36.28125 
z
" id="DejaVuSans-53"/>
      </defs>
      <g style="fill:#262626;" transform="translate(113.65544 203.378281)scale(0.11 -0.11)">
       <use xlink:href="#DejaVuSans-48"/>
       <use x="63.623047" xlink:href="#DejaVuSans-46"/>
       <use x="95.410156" xlink:href="#DejaVuSans-53"/>
      </g>
     </g>
    </g>
    <g id="xtick_3">
     <g id="line2d_3">
      <path clip-path="url(#p3ec6f0a31e)" d="M 191.575713 185.52 
L 191.575713 22.44 
" style="fill:none;stroke:#ffffff;stroke-linecap:round;"/>
     </g>
     <g id="text_3">
      <!-- 1.0 -->
      <defs>
       <path d="M 12.40625 8.296875 
L 28.515625 8.296875 
L 28.515625 63.921875 
L 10.984375 60.40625 
L 10.984375 69.390625 
L 28.421875 72.90625 
L 38.28125 72.90625 
L 38.28125 8.296875 
L 54.390625 8.296875 
L 54.390625 0 
L 12.40625 0 
z
" id="DejaVuSans-49"/>
      </defs>
      <g style="fill:#262626;" transform="translate(182.828994 203.378281)scale(0.11 -0.11)">
       <use xlink:href="#DejaVuSans-49"/>
       <use x="63.623047" xlink:href="#DejaVuSans-46"/>
       <use x="95.410156" xlink:href="#DejaVuSans-48"/>
      </g>
     </g>
    </g>
    <g id="text_4">
     <!-- $\theta$ -->
     <defs>
      <path d="M 45.515625 34.671875 
L 14.453125 34.671875 
Q 12.359375 20.0625 14.5 13.875 
Q 17.1875 6.25 24.46875 6.25 
Q 31.78125 6.25 37.359375 13.921875 
Q 42.234375 20.65625 45.515625 34.671875 
z
M 47.015625 42.96875 
Q 48.34375 56.84375 46.625 61.71875 
Q 43.953125 69.4375 36.765625 69.4375 
Q 29.296875 69.4375 23.828125 61.8125 
Q 19.53125 55.671875 16.15625 42.96875 
z
M 38.1875 76.765625 
Q 49.90625 76.765625 54.59375 66.40625 
Q 59.28125 56.109375 55.71875 37.84375 
Q 52.203125 19.625 43.453125 9.28125 
Q 34.765625 -1.125 23.046875 -1.125 
Q 11.28125 -1.125 6.640625 9.28125 
Q 2 19.625 5.515625 37.84375 
Q 9.078125 56.109375 17.71875 66.40625 
Q 26.421875 76.765625 38.1875 76.765625 
z
" id="DejaVuSans-Oblique-952"/>
     </defs>
     <g style="fill:#262626;" transform="translate(118.682159 218.784063)scale(0.12 -0.12)">
      <use transform="translate(0 0.234375)" xlink:href="#DejaVuSans-Oblique-952"/>
     </g>
    </g>
   </g>
   <g id="matplotlib.axis_2">
    <g id="ytick_1">
     <g id="line2d_4">
      <path clip-path="url(#p3ec6f0a31e)" d="M 46.31125 178.107273 
L 198.493068 178.107273 
" style="fill:none;stroke:#ffffff;stroke-linecap:round;"/>
     </g>
     <g id="text_5">
      <!-- 0 -->
      <g style="fill:#262626;" transform="translate(29.8125 182.286413)scale(0.11 -0.11)">
       <use xlink:href="#DejaVuSans-48"/>
      </g>
     </g>
    </g>
    <g id="ytick_2">
     <g id="line2d_5">
      <path clip-path="url(#p3ec6f0a31e)" d="M 46.31125 147.075157 
L 198.493068 147.075157 
" style="fill:none;stroke:#ffffff;stroke-linecap:round;"/>
     </g>
     <g id="text_6">
      <!-- 5 -->
      <g style="fill:#262626;" transform="translate(29.8125 151.254298)scale(0.11 -0.11)">
       <use xlink:href="#DejaVuSans-53"/>
      </g>
     </g>
    </g>
    <g id="ytick_3">
     <g id="line2d_6">
      <path clip-path="url(#p3ec6f0a31e)" d="M 46.31125 116.043042 
L 198.493068 116.043042 
" style="fill:none;stroke:#ffffff;stroke-linecap:round;"/>
     </g>
     <g id="text_7">
      <!-- 10 -->
      <g style="fill:#262626;" transform="translate(22.81375 120.222183)scale(0.11 -0.11)">
       <use xlink:href="#DejaVuSans-49"/>
       <use x="63.623047" xlink:href="#DejaVuSans-48"/>
      </g>
     </g>
    </g>
    <g id="ytick_4">
     <g id="line2d_7">
      <path clip-path="url(#p3ec6f0a31e)" d="M 46.31125 85.010927 
L 198.493068 85.010927 
" style="fill:none;stroke:#ffffff;stroke-linecap:round;"/>
     </g>
     <g id="text_8">
      <!-- 15 -->
      <g style="fill:#262626;" transform="translate(22.81375 89.190068)scale(0.11 -0.11)">
       <use xlink:href="#DejaVuSans-49"/>
       <use x="63.623047" xlink:href="#DejaVuSans-53"/>
      </g>
     </g>
    </g>
    <g id="ytick_5">
     <g id="line2d_8">
      <path clip-path="url(#p3ec6f0a31e)" d="M 46.31125 53.978812 
L 198.493068 53.978812 
" style="fill:none;stroke:#ffffff;stroke-linecap:round;"/>
     </g>
     <g id="text_9">
      <!-- 20 -->
      <defs>
       <path d="M 19.1875 8.296875 
L 53.609375 8.296875 
L 53.609375 0 
L 7.328125 0 
L 7.328125 8.296875 
Q 12.9375 14.109375 22.625 23.890625 
Q 32.328125 33.6875 34.8125 36.53125 
Q 39.546875 41.84375 41.421875 45.53125 
Q 43.3125 49.21875 43.3125 52.78125 
Q 43.3125 58.59375 39.234375 62.25 
Q 35.15625 65.921875 28.609375 65.921875 
Q 23.96875 65.921875 18.8125 64.3125 
Q 13.671875 62.703125 7.8125 59.421875 
L 7.8125 69.390625 
Q 13.765625 71.78125 18.9375 73 
Q 24.125 74.21875 28.421875 74.21875 
Q 39.75 74.21875 46.484375 68.546875 
Q 53.21875 62.890625 53.21875 53.421875 
Q 53.21875 48.921875 51.53125 44.890625 
Q 49.859375 40.875 45.40625 35.40625 
Q 44.1875 33.984375 37.640625 27.21875 
Q 31.109375 20.453125 19.1875 8.296875 
z
" id="DejaVuSans-50"/>
      </defs>
      <g style="fill:#262626;" transform="translate(22.81375 58.157952)scale(0.11 -0.11)">
       <use xlink:href="#DejaVuSans-50"/>
       <use x="63.623047" xlink:href="#DejaVuSans-48"/>
      </g>
     </g>
    </g>
    <g id="ytick_6">
     <g id="line2d_9">
      <path clip-path="url(#p3ec6f0a31e)" d="M 46.31125 22.946696 
L 198.493068 22.946696 
" style="fill:none;stroke:#ffffff;stroke-linecap:round;"/>
     </g>
     <g id="text_10">
      <!-- 25 -->
      <g style="fill:#262626;" transform="translate(22.81375 27.125837)scale(0.11 -0.11)">
       <use xlink:href="#DejaVuSans-50"/>
       <use x="63.623047" xlink:href="#DejaVuSans-53"/>
      </g>
     </g>
    </g>
    <g id="text_11">
     <!-- density -->
     <defs>
      <path d="M 45.40625 46.390625 
L 45.40625 75.984375 
L 54.390625 75.984375 
L 54.390625 0 
L 45.40625 0 
L 45.40625 8.203125 
Q 42.578125 3.328125 38.25 0.953125 
Q 33.9375 -1.421875 27.875 -1.421875 
Q 17.96875 -1.421875 11.734375 6.484375 
Q 5.515625 14.40625 5.515625 27.296875 
Q 5.515625 40.1875 11.734375 48.09375 
Q 17.96875 56 27.875 56 
Q 33.9375 56 38.25 53.625 
Q 42.578125 51.265625 45.40625 46.390625 
z
M 14.796875 27.296875 
Q 14.796875 17.390625 18.875 11.75 
Q 22.953125 6.109375 30.078125 6.109375 
Q 37.203125 6.109375 41.296875 11.75 
Q 45.40625 17.390625 45.40625 27.296875 
Q 45.40625 37.203125 41.296875 42.84375 
Q 37.203125 48.484375 30.078125 48.484375 
Q 22.953125 48.484375 18.875 42.84375 
Q 14.796875 37.203125 14.796875 27.296875 
z
" id="DejaVuSans-100"/>
      <path d="M 56.203125 29.59375 
L 56.203125 25.203125 
L 14.890625 25.203125 
Q 15.484375 15.921875 20.484375 11.0625 
Q 25.484375 6.203125 34.421875 6.203125 
Q 39.59375 6.203125 44.453125 7.46875 
Q 49.3125 8.734375 54.109375 11.28125 
L 54.109375 2.78125 
Q 49.265625 0.734375 44.1875 -0.34375 
Q 39.109375 -1.421875 33.890625 -1.421875 
Q 20.796875 -1.421875 13.15625 6.1875 
Q 5.515625 13.8125 5.515625 26.8125 
Q 5.515625 40.234375 12.765625 48.109375 
Q 20.015625 56 32.328125 56 
Q 43.359375 56 49.78125 48.890625 
Q 56.203125 41.796875 56.203125 29.59375 
z
M 47.21875 32.234375 
Q 47.125 39.59375 43.09375 43.984375 
Q 39.0625 48.390625 32.421875 48.390625 
Q 24.90625 48.390625 20.390625 44.140625 
Q 15.875 39.890625 15.1875 32.171875 
z
" id="DejaVuSans-101"/>
      <path d="M 54.890625 33.015625 
L 54.890625 0 
L 45.90625 0 
L 45.90625 32.71875 
Q 45.90625 40.484375 42.875 44.328125 
Q 39.84375 48.1875 33.796875 48.1875 
Q 26.515625 48.1875 22.3125 43.546875 
Q 18.109375 38.921875 18.109375 30.90625 
L 18.109375 0 
L 9.078125 0 
L 9.078125 54.6875 
L 18.109375 54.6875 
L 18.109375 46.1875 
Q 21.34375 51.125 25.703125 53.5625 
Q 30.078125 56 35.796875 56 
Q 45.21875 56 50.046875 50.171875 
Q 54.890625 44.34375 54.890625 33.015625 
z
" id="DejaVuSans-110"/>
      <path d="M 44.28125 53.078125 
L 44.28125 44.578125 
Q 40.484375 46.53125 36.375 47.5 
Q 32.28125 48.484375 27.875 48.484375 
Q 21.1875 48.484375 17.84375 46.4375 
Q 14.5 44.390625 14.5 40.28125 
Q 14.5 37.15625 16.890625 35.375 
Q 19.28125 33.59375 26.515625 31.984375 
L 29.59375 31.296875 
Q 39.15625 29.25 43.1875 25.515625 
Q 47.21875 21.78125 47.21875 15.09375 
Q 47.21875 7.46875 41.1875 3.015625 
Q 35.15625 -1.421875 24.609375 -1.421875 
Q 20.21875 -1.421875 15.453125 -0.5625 
Q 10.6875 0.296875 5.421875 2 
L 5.421875 11.28125 
Q 10.40625 8.6875 15.234375 7.390625 
Q 20.0625 6.109375 24.8125 6.109375 
Q 31.15625 6.109375 34.5625 8.28125 
Q 37.984375 10.453125 37.984375 14.40625 
Q 37.984375 18.0625 35.515625 20.015625 
Q 33.0625 21.96875 24.703125 23.78125 
L 21.578125 24.515625 
Q 13.234375 26.265625 9.515625 29.90625 
Q 5.8125 33.546875 5.8125 39.890625 
Q 5.8125 47.609375 11.28125 51.796875 
Q 16.75 56 26.8125 56 
Q 31.78125 56 36.171875 55.265625 
Q 40.578125 54.546875 44.28125 53.078125 
z
" id="DejaVuSans-115"/>
      <path d="M 9.421875 54.6875 
L 18.40625 54.6875 
L 18.40625 0 
L 9.421875 0 
z
M 9.421875 75.984375 
L 18.40625 75.984375 
L 18.40625 64.59375 
L 9.421875 64.59375 
z
" id="DejaVuSans-105"/>
      <path d="M 18.3125 70.21875 
L 18.3125 54.6875 
L 36.8125 54.6875 
L 36.8125 47.703125 
L 18.3125 47.703125 
L 18.3125 18.015625 
Q 18.3125 11.328125 20.140625 9.421875 
Q 21.96875 7.515625 27.59375 7.515625 
L 36.8125 7.515625 
L 36.8125 0 
L 27.59375 0 
Q 17.1875 0 13.234375 3.875 
Q 9.28125 7.765625 9.28125 18.015625 
L 9.28125 47.703125 
L 2.6875 47.703125 
L 2.6875 54.6875 
L 9.28125 54.6875 
L 9.28125 70.21875 
z
" id="DejaVuSans-116"/>
      <path d="M 32.171875 -5.078125 
Q 28.375 -14.84375 24.75 -17.8125 
Q 21.140625 -20.796875 15.09375 -20.796875 
L 7.90625 -20.796875 
L 7.90625 -13.28125 
L 13.1875 -13.28125 
Q 16.890625 -13.28125 18.9375 -11.515625 
Q 21 -9.765625 23.484375 -3.21875 
L 25.09375 0.875 
L 2.984375 54.6875 
L 12.5 54.6875 
L 29.59375 11.921875 
L 46.6875 54.6875 
L 56.203125 54.6875 
z
" id="DejaVuSans-121"/>
     </defs>
     <g style="fill:#262626;" transform="translate(16.318125 125.979375)rotate(-90)scale(0.12 -0.12)">
      <use xlink:href="#DejaVuSans-100"/>
      <use x="63.476562" xlink:href="#DejaVuSans-101"/>
      <use x="125" xlink:href="#DejaVuSans-110"/>
      <use x="188.378906" xlink:href="#DejaVuSans-115"/>
      <use x="240.478516" xlink:href="#DejaVuSans-105"/>
      <use x="268.261719" xlink:href="#DejaVuSans-116"/>
      <use x="307.470703" xlink:href="#DejaVuSans-121"/>
     </g>
    </g>
   </g>
   <g id="PolyCollection_1">
    <defs>
     <path d="M 53.228605 -50.372415 
L 53.228605 -50.372415 
L 54.612076 -50.862809 
L 55.995548 -70.061683 
L 57.379019 -135.201916 
L 58.76249 -195.418739 
L 60.145961 -198.62696 
L 61.529432 -159.064999 
L 62.912903 -113.355279 
L 64.296374 -80.932649 
L 65.679845 -63.258288 
L 67.063316 -55.214497 
L 68.446787 -52.023063 
L 69.830258 -50.889595 
L 71.213729 -50.522812 
L 72.5972 -50.413312 
L 73.980671 -50.382875 
L 75.364143 -50.374943 
L 76.747614 -50.372994 
L 78.131085 -50.372541 
L 79.514556 -50.372441 
L 80.898027 -50.37242 
L 82.281498 -50.372416 
L 83.664969 -50.372415 
L 85.04844 -50.372415 
L 86.431911 -50.372415 
L 87.815382 -50.372415 
L 89.198853 -50.372415 
L 90.582324 -50.372415 
L 91.965795 -50.372415 
L 93.349267 -50.372415 
L 94.732738 -50.372415 
L 96.116209 -50.372415 
L 97.49968 -50.372415 
L 98.883151 -50.372415 
L 100.266622 -50.372415 
L 101.650093 -50.372415 
L 103.033564 -50.372415 
L 104.417035 -50.372415 
L 105.800506 -50.372415 
L 107.183977 -50.372415 
L 108.567448 -50.372415 
L 109.950919 -50.372415 
L 111.33439 -50.372415 
L 112.717862 -50.372415 
L 114.101333 -50.372415 
L 115.484804 -50.372415 
L 116.868275 -50.372415 
L 118.251746 -50.372415 
L 119.635217 -50.372415 
L 121.018688 -50.372415 
L 122.402159 -50.372415 
L 123.78563 -50.372415 
L 125.169101 -50.372415 
L 126.552572 -50.372415 
L 127.936043 -50.372415 
L 129.319514 -50.372415 
L 130.702986 -50.372415 
L 132.086457 -50.372415 
L 133.469928 -50.372415 
L 134.853399 -50.372415 
L 136.23687 -50.372415 
L 137.620341 -50.372415 
L 139.003812 -50.372415 
L 140.387283 -50.372415 
L 141.770754 -50.372415 
L 143.154225 -50.372415 
L 144.537696 -50.372415 
L 145.921167 -50.372415 
L 147.304638 -50.372415 
L 148.68811 -50.372415 
L 150.071581 -50.372415 
L 151.455052 -50.372415 
L 152.838523 -50.372415 
L 154.221994 -50.372415 
L 155.605465 -50.372415 
L 156.988936 -50.372415 
L 158.372407 -50.372415 
L 159.755878 -50.372415 
L 161.139349 -50.372415 
L 162.52282 -50.372415 
L 163.906291 -50.372415 
L 165.289762 -50.372415 
L 166.673233 -50.372415 
L 168.056705 -50.372415 
L 169.440176 -50.372415 
L 170.823647 -50.372415 
L 172.207118 -50.372415 
L 173.590589 -50.372415 
L 174.97406 -50.372415 
L 176.357531 -50.372415 
L 177.741002 -50.372415 
L 179.124473 -50.372415 
L 180.507944 -50.372415 
L 181.891415 -50.372415 
L 183.274886 -50.372415 
L 184.658357 -50.372415 
L 186.041829 -50.372415 
L 187.4253 -50.372415 
L 188.808771 -50.372415 
L 190.192242 -50.372415 
L 191.575713 -50.372415 
L 191.575713 -50.372415 
L 191.575713 -50.372415 
L 190.192242 -50.372415 
L 188.808771 -50.372415 
L 187.4253 -50.372415 
L 186.041829 -50.372415 
L 184.658357 -50.372415 
L 183.274886 -50.372415 
L 181.891415 -50.372415 
L 180.507944 -50.372415 
L 179.124473 -50.372415 
L 177.741002 -50.372415 
L 176.357531 -50.372415 
L 174.97406 -50.372415 
L 173.590589 -50.372415 
L 172.207118 -50.372415 
L 170.823647 -50.372415 
L 169.440176 -50.372415 
L 168.056705 -50.372415 
L 166.673233 -50.372415 
L 165.289762 -50.372415 
L 163.906291 -50.372415 
L 162.52282 -50.372415 
L 161.139349 -50.372415 
L 159.755878 -50.372415 
L 158.372407 -50.372415 
L 156.988936 -50.372415 
L 155.605465 -50.372415 
L 154.221994 -50.372415 
L 152.838523 -50.372415 
L 151.455052 -50.372415 
L 150.071581 -50.372415 
L 148.68811 -50.372415 
L 147.304638 -50.372415 
L 145.921167 -50.372415 
L 144.537696 -50.372415 
L 143.154225 -50.372415 
L 141.770754 -50.372415 
L 140.387283 -50.372415 
L 139.003812 -50.372415 
L 137.620341 -50.372415 
L 136.23687 -50.372415 
L 134.853399 -50.372415 
L 133.469928 -50.372415 
L 132.086457 -50.372415 
L 130.702986 -50.372415 
L 129.319514 -50.372415 
L 127.936043 -50.372415 
L 126.552572 -50.372415 
L 125.169101 -50.372415 
L 123.78563 -50.372415 
L 122.402159 -50.372415 
L 121.018688 -50.372415 
L 119.635217 -50.372415 
L 118.251746 -50.372415 
L 116.868275 -50.372415 
L 115.484804 -50.372415 
L 114.101333 -50.372415 
L 112.717862 -50.372415 
L 111.33439 -50.372415 
L 109.950919 -50.372415 
L 108.567448 -50.372415 
L 107.183977 -50.372415 
L 105.800506 -50.372415 
L 104.417035 -50.372415 
L 103.033564 -50.372415 
L 101.650093 -50.372415 
L 100.266622 -50.372415 
L 98.883151 -50.372415 
L 97.49968 -50.372415 
L 96.116209 -50.372415 
L 94.732738 -50.372415 
L 93.349267 -50.372415 
L 91.965795 -50.372415 
L 90.582324 -50.372415 
L 89.198853 -50.372415 
L 87.815382 -50.372415 
L 86.431911 -50.372415 
L 85.04844 -50.372415 
L 83.664969 -50.372415 
L 82.281498 -50.372415 
L 80.898027 -50.372415 
L 79.514556 -50.372415 
L 78.131085 -50.372415 
L 76.747614 -50.372415 
L 75.364143 -50.372415 
L 73.980671 -50.372415 
L 72.5972 -50.372415 
L 71.213729 -50.372415 
L 69.830258 -50.372415 
L 68.446787 -50.372415 
L 67.063316 -50.372415 
L 65.679845 -50.372415 
L 64.296374 -50.372415 
L 62.912903 -50.372415 
L 61.529432 -50.372415 
L 60.145961 -50.372415 
L 58.76249 -50.372415 
L 57.379019 -50.372415 
L 55.995548 -50.372415 
L 54.612076 -50.372415 
L 53.228605 -50.372415 
z
" id="m4fad271fbb" style="stroke:#ffffff;"/>
    </defs>
    <g clip-path="url(#p3ec6f0a31e)">
     <use style="fill:#4c72b0;stroke:#ffffff;" x="0" xlink:href="#m4fad271fbb" y="228.479688"/>
    </g>
   </g>
   <g id="patch_3">
    <path d="M 46.31125 185.52 
L 46.31125 22.44 
" style="fill:none;stroke:#ffffff;stroke-linecap:square;stroke-linejoin:miter;stroke-width:1.25;"/>
   </g>
   <g id="patch_4">
    <path d="M 198.493068 185.52 
L 198.493068 22.44 
" style="fill:none;stroke:#ffffff;stroke-linecap:square;stroke-linejoin:miter;stroke-width:1.25;"/>
   </g>
   <g id="patch_5">
    <path d="M 46.31125 185.52 
L 198.493068 185.52 
" style="fill:none;stroke:#ffffff;stroke-linecap:square;stroke-linejoin:miter;stroke-width:1.25;"/>
   </g>
   <g id="patch_6">
    <path d="M 46.31125 22.44 
L 198.493068 22.44 
" style="fill:none;stroke:#ffffff;stroke-linecap:square;stroke-linejoin:miter;stroke-width:1.25;"/>
   </g>
   <g id="text_12">
    <!-- $p(\theta|N,z,\alpha,\beta)$ -->
    <defs>
     <path d="M 49.609375 33.6875 
Q 49.609375 40.875 46.484375 44.671875 
Q 43.359375 48.484375 37.5 48.484375 
Q 33.5 48.484375 29.859375 46.4375 
Q 26.21875 44.390625 23.390625 40.484375 
Q 20.609375 36.625 18.9375 31.15625 
Q 17.28125 25.6875 17.28125 20.3125 
Q 17.28125 13.484375 20.40625 9.796875 
Q 23.53125 6.109375 29.296875 6.109375 
Q 33.546875 6.109375 37.1875 8.109375 
Q 40.828125 10.109375 43.40625 13.921875 
Q 46.1875 17.921875 47.890625 23.34375 
Q 49.609375 28.765625 49.609375 33.6875 
z
M 21.78125 46.390625 
Q 25.390625 51.125 30.296875 53.5625 
Q 35.203125 56 41.21875 56 
Q 49.609375 56 54.25 50.5 
Q 58.890625 45.015625 58.890625 35.109375 
Q 58.890625 27 56 19.65625 
Q 53.125 12.3125 47.703125 6.5 
Q 44.09375 2.640625 39.546875 0.609375 
Q 35.015625 -1.421875 29.984375 -1.421875 
Q 24.171875 -1.421875 20.21875 1 
Q 16.265625 3.421875 14.3125 8.203125 
L 8.6875 -20.796875 
L -0.296875 -20.796875 
L 14.40625 54.6875 
L 23.390625 54.6875 
z
" id="DejaVuSans-Oblique-112"/>
     <path d="M 31 75.875 
Q 24.46875 64.65625 21.28125 53.65625 
Q 18.109375 42.671875 18.109375 31.390625 
Q 18.109375 20.125 21.3125 9.0625 
Q 24.515625 -2 31 -13.1875 
L 23.1875 -13.1875 
Q 15.875 -1.703125 12.234375 9.375 
Q 8.59375 20.453125 8.59375 31.390625 
Q 8.59375 42.28125 12.203125 53.3125 
Q 15.828125 64.359375 23.1875 75.875 
z
" id="DejaVuSans-40"/>
     <path d="M 21 76.421875 
L 21 -23.578125 
L 12.703125 -23.578125 
L 12.703125 76.421875 
z
" id="DejaVuSans-124"/>
     <path d="M 16.890625 72.90625 
L 30.171875 72.90625 
L 50.296875 10.40625 
L 62.5 72.90625 
L 72.125 72.90625 
L 57.90625 0 
L 44.578125 0 
L 24.515625 62.890625 
L 12.3125 0 
L 2.6875 0 
z
" id="DejaVuSans-Oblique-78"/>
     <path d="M 11.71875 12.40625 
L 22.015625 12.40625 
L 22.015625 4 
L 14.015625 -11.625 
L 7.71875 -11.625 
L 11.71875 4 
z
" id="DejaVuSans-44"/>
     <path d="M 11.625 54.6875 
L 54.296875 54.6875 
L 52.6875 46.484375 
L 11.53125 7.171875 
L 45.515625 7.171875 
L 44.09375 0 
L -0.296875 0 
L 1.3125 8.203125 
L 42.484375 47.515625 
L 10.203125 47.515625 
z
" id="DejaVuSans-Oblique-122"/>
     <path d="M 40.921875 25.4375 
L 40.96875 36.71875 
Q 41.015625 48.25 32.328125 48.296875 
Q 25.828125 48.34375 21.78125 42.921875 
Q 16.703125 36.234375 14.984375 27.296875 
Q 12.890625 16.546875 15.53125 11.421875 
Q 18.265625 6.203125 24.171875 6.203125 
Q 30.71875 6.203125 36.234375 16.609375 
z
M 33.84375 55.90625 
Q 49.078125 56.15625 48.875 40.375 
Q 48.875 40.375 56.5 54.6875 
L 64.5 54.6875 
L 48.734375 25.046875 
L 48.578125 14.359375 
Q 48.578125 11.96875 49.90625 9.96875 
Q 51.421875 7.625 52.984375 7.625 
L 57.328125 7.625 
L 55.859375 0 
L 50.4375 0 
Q 45.84375 0 42.53125 4.109375 
Q 40.96875 6.15625 40.921875 10.453125 
Q 37.75 5.21875 32.28125 0.78125 
Q 29.6875 -1.265625 22.703125 -1.21875 
Q 11.28125 -1.125 7.125 6.203125 
Q 2.875 13.8125 5.515625 27.296875 
Q 8.34375 41.796875 15.765625 48.390625 
Q 24.125 55.765625 33.84375 55.90625 
z
" id="DejaVuSans-Oblique-945"/>
     <path d="M 13.625 3.375 
L 8.9375 -20.796875 
L -0.09375 -20.796875 
L 14.5 54.34375 
Q 18.84375 76.609375 39.65625 76.609375 
Q 60.75 76.609375 57.171875 57.8125 
Q 54.734375 44.4375 45.21875 39.546875 
Q 58.015625 35.15625 55.515625 22.125 
Q 51.125 -1.078125 27.484375 -1.03125 
Q 17.140625 -0.984375 13.625 3.375 
z
M 15.921875 15.09375 
Q 19.671875 6.59375 29.296875 6.640625 
Q 43.359375 6.640625 46.34375 21.96875 
Q 49.03125 35.75 26.171875 34.671875 
L 27.78125 42.96875 
Q 45.453125 42.671875 48.53125 58.59375 
Q 50.640625 69.34375 39.203125 69.28125 
Q 26.421875 69.28125 23.484375 54.046875 
z
" id="DejaVuSans-Oblique-946"/>
     <path d="M 8.015625 75.875 
L 15.828125 75.875 
Q 23.140625 64.359375 26.78125 53.3125 
Q 30.421875 42.28125 30.421875 31.390625 
Q 30.421875 20.453125 26.78125 9.375 
Q 23.140625 -1.703125 15.828125 -13.1875 
L 8.015625 -13.1875 
Q 14.5 -2 17.703125 9.0625 
Q 20.90625 20.125 20.90625 31.390625 
Q 20.90625 42.671875 17.703125 53.65625 
Q 14.5 64.65625 8.015625 75.875 
z
" id="DejaVuSans-41"/>
    </defs>
    <g style="fill:#262626;" transform="translate(83.522159 16.44)scale(0.12 -0.12)">
     <use transform="translate(0 0.234375)" xlink:href="#DejaVuSans-Oblique-112"/>
     <use transform="translate(63.476562 0.234375)" xlink:href="#DejaVuSans-40"/>
     <use transform="translate(102.490234 0.234375)" xlink:href="#DejaVuSans-Oblique-952"/>
     <use transform="translate(163.671875 0.234375)" xlink:href="#DejaVuSans-124"/>
     <use transform="translate(197.363281 0.234375)" xlink:href="#DejaVuSans-Oblique-78"/>
     <use transform="translate(272.167969 0.234375)" xlink:href="#DejaVuSans-44"/>
     <use transform="translate(323.4375 0.234375)" xlink:href="#DejaVuSans-Oblique-122"/>
     <use transform="translate(375.927734 0.234375)" xlink:href="#DejaVuSans-44"/>
     <use transform="translate(427.197266 0.234375)" xlink:href="#DejaVuSans-Oblique-945"/>
     <use transform="translate(493.115234 0.234375)" xlink:href="#DejaVuSans-44"/>
     <use transform="translate(544.384766 0.234375)" xlink:href="#DejaVuSans-Oblique-946"/>
     <use transform="translate(608.203125 0.234375)" xlink:href="#DejaVuSans-41"/>
    </g>
   </g>
  </g>
  <g id="axes_2">
   <g id="patch_7">
    <path d="M 228.929432 185.52 
L 381.11125 185.52 
L 381.11125 22.44 
L 228.929432 22.44 
z
" style="fill:#eaeaf2;"/>
   </g>
   <g id="matplotlib.axis_3">
    <g id="xtick_4">
     <g id="line2d_10">
      <path clip-path="url(#p7d201985e8)" d="M 230.199966 185.52 
L 230.199966 22.44 
" style="fill:none;stroke:#ffffff;stroke-linecap:round;"/>
     </g>
     <g id="text_13">
      <!-- 0.0 -->
      <g style="fill:#262626;" transform="translate(221.453248 203.378281)scale(0.11 -0.11)">
       <use xlink:href="#DejaVuSans-48"/>
       <use x="63.623047" xlink:href="#DejaVuSans-46"/>
       <use x="95.410156" xlink:href="#DejaVuSans-48"/>
      </g>
     </g>
    </g>
    <g id="xtick_5">
     <g id="line2d_11">
      <path clip-path="url(#p7d201985e8)" d="M 302.196931 185.52 
L 302.196931 22.44 
" style="fill:none;stroke:#ffffff;stroke-linecap:round;"/>
     </g>
     <g id="text_14">
      <!-- 0.5 -->
      <g style="fill:#262626;" transform="translate(293.450212 203.378281)scale(0.11 -0.11)">
       <use xlink:href="#DejaVuSans-48"/>
       <use x="63.623047" xlink:href="#DejaVuSans-46"/>
       <use x="95.410156" xlink:href="#DejaVuSans-53"/>
      </g>
     </g>
    </g>
    <g id="xtick_6">
     <g id="line2d_12">
      <path clip-path="url(#p7d201985e8)" d="M 374.193895 185.52 
L 374.193895 22.44 
" style="fill:none;stroke:#ffffff;stroke-linecap:round;"/>
     </g>
     <g id="text_15">
      <!-- 1.0 -->
      <g style="fill:#262626;" transform="translate(365.447176 203.378281)scale(0.11 -0.11)">
       <use xlink:href="#DejaVuSans-49"/>
       <use x="63.623047" xlink:href="#DejaVuSans-46"/>
       <use x="95.410156" xlink:href="#DejaVuSans-48"/>
      </g>
     </g>
    </g>
    <g id="text_16">
     <!-- VE (Vaccine efficacy) -->
     <defs>
      <path d="M 28.609375 0 
L 0.78125 72.90625 
L 11.078125 72.90625 
L 34.1875 11.53125 
L 57.328125 72.90625 
L 67.578125 72.90625 
L 39.796875 0 
z
" id="DejaVuSans-86"/>
      <path d="M 9.8125 72.90625 
L 55.90625 72.90625 
L 55.90625 64.59375 
L 19.671875 64.59375 
L 19.671875 43.015625 
L 54.390625 43.015625 
L 54.390625 34.71875 
L 19.671875 34.71875 
L 19.671875 8.296875 
L 56.78125 8.296875 
L 56.78125 0 
L 9.8125 0 
z
" id="DejaVuSans-69"/>
      <path id="DejaVuSans-32"/>
      <path d="M 34.28125 27.484375 
Q 23.390625 27.484375 19.1875 25 
Q 14.984375 22.515625 14.984375 16.5 
Q 14.984375 11.71875 18.140625 8.90625 
Q 21.296875 6.109375 26.703125 6.109375 
Q 34.1875 6.109375 38.703125 11.40625 
Q 43.21875 16.703125 43.21875 25.484375 
L 43.21875 27.484375 
z
M 52.203125 31.203125 
L 52.203125 0 
L 43.21875 0 
L 43.21875 8.296875 
Q 40.140625 3.328125 35.546875 0.953125 
Q 30.953125 -1.421875 24.3125 -1.421875 
Q 15.921875 -1.421875 10.953125 3.296875 
Q 6 8.015625 6 15.921875 
Q 6 25.140625 12.171875 29.828125 
Q 18.359375 34.515625 30.609375 34.515625 
L 43.21875 34.515625 
L 43.21875 35.40625 
Q 43.21875 41.609375 39.140625 45 
Q 35.0625 48.390625 27.6875 48.390625 
Q 23 48.390625 18.546875 47.265625 
Q 14.109375 46.140625 10.015625 43.890625 
L 10.015625 52.203125 
Q 14.9375 54.109375 19.578125 55.046875 
Q 24.21875 56 28.609375 56 
Q 40.484375 56 46.34375 49.84375 
Q 52.203125 43.703125 52.203125 31.203125 
z
" id="DejaVuSans-97"/>
      <path d="M 48.78125 52.59375 
L 48.78125 44.1875 
Q 44.96875 46.296875 41.140625 47.34375 
Q 37.3125 48.390625 33.40625 48.390625 
Q 24.65625 48.390625 19.8125 42.84375 
Q 14.984375 37.3125 14.984375 27.296875 
Q 14.984375 17.28125 19.8125 11.734375 
Q 24.65625 6.203125 33.40625 6.203125 
Q 37.3125 6.203125 41.140625 7.25 
Q 44.96875 8.296875 48.78125 10.40625 
L 48.78125 2.09375 
Q 45.015625 0.34375 40.984375 -0.53125 
Q 36.96875 -1.421875 32.421875 -1.421875 
Q 20.0625 -1.421875 12.78125 6.34375 
Q 5.515625 14.109375 5.515625 27.296875 
Q 5.515625 40.671875 12.859375 48.328125 
Q 20.21875 56 33.015625 56 
Q 37.15625 56 41.109375 55.140625 
Q 45.0625 54.296875 48.78125 52.59375 
z
" id="DejaVuSans-99"/>
      <path d="M 37.109375 75.984375 
L 37.109375 68.5 
L 28.515625 68.5 
Q 23.6875 68.5 21.796875 66.546875 
Q 19.921875 64.59375 19.921875 59.515625 
L 19.921875 54.6875 
L 34.71875 54.6875 
L 34.71875 47.703125 
L 19.921875 47.703125 
L 19.921875 0 
L 10.890625 0 
L 10.890625 47.703125 
L 2.296875 47.703125 
L 2.296875 54.6875 
L 10.890625 54.6875 
L 10.890625 58.5 
Q 10.890625 67.625 15.140625 71.796875 
Q 19.390625 75.984375 28.609375 75.984375 
z
" id="DejaVuSans-102"/>
     </defs>
     <g style="fill:#262626;" transform="translate(241.685653 218.784063)scale(0.12 -0.12)">
      <use xlink:href="#DejaVuSans-86"/>
      <use x="68.408203" xlink:href="#DejaVuSans-69"/>
      <use x="131.591797" xlink:href="#DejaVuSans-32"/>
      <use x="163.378906" xlink:href="#DejaVuSans-40"/>
      <use x="202.392578" xlink:href="#DejaVuSans-86"/>
      <use x="270.691406" xlink:href="#DejaVuSans-97"/>
      <use x="331.970703" xlink:href="#DejaVuSans-99"/>
      <use x="386.951172" xlink:href="#DejaVuSans-99"/>
      <use x="441.931641" xlink:href="#DejaVuSans-105"/>
      <use x="469.714844" xlink:href="#DejaVuSans-110"/>
      <use x="533.09375" xlink:href="#DejaVuSans-101"/>
      <use x="594.617188" xlink:href="#DejaVuSans-32"/>
      <use x="626.404297" xlink:href="#DejaVuSans-101"/>
      <use x="687.927734" xlink:href="#DejaVuSans-102"/>
      <use x="723.132812" xlink:href="#DejaVuSans-102"/>
      <use x="758.337891" xlink:href="#DejaVuSans-105"/>
      <use x="786.121094" xlink:href="#DejaVuSans-99"/>
      <use x="841.101562" xlink:href="#DejaVuSans-97"/>
      <use x="902.380859" xlink:href="#DejaVuSans-99"/>
      <use x="957.361328" xlink:href="#DejaVuSans-121"/>
      <use x="1016.541016" xlink:href="#DejaVuSans-41"/>
     </g>
    </g>
   </g>
   <g id="matplotlib.axis_4">
    <g id="ytick_7">
     <g id="line2d_13">
      <path clip-path="url(#p7d201985e8)" d="M 228.929432 178.107273 
L 381.11125 178.107273 
" style="fill:none;stroke:#ffffff;stroke-linecap:round;"/>
     </g>
     <g id="text_17">
      <!-- 0 -->
      <g style="fill:#262626;" transform="translate(212.430682 182.286413)scale(0.11 -0.11)">
       <use xlink:href="#DejaVuSans-48"/>
      </g>
     </g>
    </g>
    <g id="ytick_8">
     <g id="line2d_14">
      <path clip-path="url(#p7d201985e8)" d="M 228.929432 147.075157 
L 381.11125 147.075157 
" style="fill:none;stroke:#ffffff;stroke-linecap:round;"/>
     </g>
     <g id="text_18">
      <!-- 5 -->
      <g style="fill:#262626;" transform="translate(212.430682 151.254298)scale(0.11 -0.11)">
       <use xlink:href="#DejaVuSans-53"/>
      </g>
     </g>
    </g>
    <g id="ytick_9">
     <g id="line2d_15">
      <path clip-path="url(#p7d201985e8)" d="M 228.929432 116.043042 
L 381.11125 116.043042 
" style="fill:none;stroke:#ffffff;stroke-linecap:round;"/>
     </g>
     <g id="text_19">
      <!-- 10 -->
      <g style="fill:#262626;" transform="translate(205.431932 120.222183)scale(0.11 -0.11)">
       <use xlink:href="#DejaVuSans-49"/>
       <use x="63.623047" xlink:href="#DejaVuSans-48"/>
      </g>
     </g>
    </g>
    <g id="ytick_10">
     <g id="line2d_16">
      <path clip-path="url(#p7d201985e8)" d="M 228.929432 85.010927 
L 381.11125 85.010927 
" style="fill:none;stroke:#ffffff;stroke-linecap:round;"/>
     </g>
     <g id="text_20">
      <!-- 15 -->
      <g style="fill:#262626;" transform="translate(205.431932 89.190068)scale(0.11 -0.11)">
       <use xlink:href="#DejaVuSans-49"/>
       <use x="63.623047" xlink:href="#DejaVuSans-53"/>
      </g>
     </g>
    </g>
    <g id="ytick_11">
     <g id="line2d_17">
      <path clip-path="url(#p7d201985e8)" d="M 228.929432 53.978812 
L 381.11125 53.978812 
" style="fill:none;stroke:#ffffff;stroke-linecap:round;"/>
     </g>
     <g id="text_21">
      <!-- 20 -->
      <g style="fill:#262626;" transform="translate(205.431932 58.157952)scale(0.11 -0.11)">
       <use xlink:href="#DejaVuSans-50"/>
       <use x="63.623047" xlink:href="#DejaVuSans-48"/>
      </g>
     </g>
    </g>
    <g id="ytick_12">
     <g id="line2d_18">
      <path clip-path="url(#p7d201985e8)" d="M 228.929432 22.946696 
L 381.11125 22.946696 
" style="fill:none;stroke:#ffffff;stroke-linecap:round;"/>
     </g>
     <g id="text_22">
      <!-- 25 -->
      <g style="fill:#262626;" transform="translate(205.431932 27.125837)scale(0.11 -0.11)">
       <use xlink:href="#DejaVuSans-50"/>
       <use x="63.623047" xlink:href="#DejaVuSans-53"/>
      </g>
     </g>
    </g>
   </g>
   <g id="PolyCollection_2">
    <defs>
     <path d="M 374.193895 -50.372415 
L 374.193895 -50.372415 
L 372.739411 -50.862809 
L 371.255243 -70.061683 
L 369.740474 -135.201916 
L 368.194148 -195.418739 
L 366.615267 -198.62696 
L 365.002793 -159.064999 
L 363.355642 -113.355279 
L 361.672683 -80.932649 
L 359.952737 -63.258288 
L 358.194569 -55.214497 
L 356.396892 -52.023063 
L 354.558359 -50.889595 
L 352.677561 -50.522812 
L 350.753023 -50.413312 
L 348.783201 -50.382875 
L 346.76648 -50.374943 
L 344.701162 -50.372994 
L 342.585471 -50.372541 
L 340.417541 -50.372441 
L 338.195413 -50.37242 
L 335.917028 -50.372416 
L 333.580223 -50.372415 
L 331.182721 -50.372415 
L 328.722128 -50.372415 
L 326.195919 -50.372415 
L 323.601433 -50.372415 
L 320.935866 -50.372415 
L 318.196256 -50.372415 
L 315.379473 -50.372415 
L 312.482211 -50.372415 
L 309.50097 -50.372415 
L 306.432046 -50.372415 
L 303.271512 -50.372415 
L 300.015204 -50.372415 
L 296.658703 -50.372415 
L 293.19731 -50.372415 
L 289.626032 -50.372415 
L 285.939552 -50.372415 
L 282.132203 -50.372415 
L 278.197943 -50.372415 
L 274.130317 -50.372415 
L 269.922429 -50.372415 
L 265.566896 -50.372415 
L 261.055808 -50.372415 
L 256.380681 -50.372415 
L 251.5324 -50.372415 
L 246.501166 -50.372415 
L 241.276422 -50.372415 
L 235.846787 -50.372415 
L 235.846787 -50.372415 
L 235.846787 -50.372415 
L 241.276422 -50.372415 
L 246.501166 -50.372415 
L 251.5324 -50.372415 
L 256.380681 -50.372415 
L 261.055808 -50.372415 
L 265.566896 -50.372415 
L 269.922429 -50.372415 
L 274.130317 -50.372415 
L 278.197943 -50.372415 
L 282.132203 -50.372415 
L 285.939552 -50.372415 
L 289.626032 -50.372415 
L 293.19731 -50.372415 
L 296.658703 -50.372415 
L 300.015204 -50.372415 
L 303.271512 -50.372415 
L 306.432046 -50.372415 
L 309.50097 -50.372415 
L 312.482211 -50.372415 
L 315.379473 -50.372415 
L 318.196256 -50.372415 
L 320.935866 -50.372415 
L 323.601433 -50.372415 
L 326.195919 -50.372415 
L 328.722128 -50.372415 
L 331.182721 -50.372415 
L 333.580223 -50.372415 
L 335.917028 -50.372415 
L 338.195413 -50.372415 
L 340.417541 -50.372415 
L 342.585471 -50.372415 
L 344.701162 -50.372415 
L 346.76648 -50.372415 
L 348.783201 -50.372415 
L 350.753023 -50.372415 
L 352.677561 -50.372415 
L 354.558359 -50.372415 
L 356.396892 -50.372415 
L 358.194569 -50.372415 
L 359.952737 -50.372415 
L 361.672683 -50.372415 
L 363.355642 -50.372415 
L 365.002793 -50.372415 
L 366.615267 -50.372415 
L 368.194148 -50.372415 
L 369.740474 -50.372415 
L 371.255243 -50.372415 
L 372.739411 -50.372415 
L 374.193895 -50.372415 
z
" id="mf9b5c81f75" style="stroke:#ffffff;"/>
    </defs>
    <g clip-path="url(#p7d201985e8)">
     <use style="fill:#4c72b0;stroke:#ffffff;" x="0" xlink:href="#mf9b5c81f75" y="228.479688"/>
    </g>
   </g>
   <g id="patch_8">
    <path d="M 228.929432 185.52 
L 228.929432 22.44 
" style="fill:none;stroke:#ffffff;stroke-linecap:square;stroke-linejoin:miter;stroke-width:1.25;"/>
   </g>
   <g id="patch_9">
    <path d="M 381.11125 185.52 
L 381.11125 22.44 
" style="fill:none;stroke:#ffffff;stroke-linecap:square;stroke-linejoin:miter;stroke-width:1.25;"/>
   </g>
   <g id="patch_10">
    <path d="M 228.929432 185.52 
L 381.11125 185.52 
" style="fill:none;stroke:#ffffff;stroke-linecap:square;stroke-linejoin:miter;stroke-width:1.25;"/>
   </g>
   <g id="patch_11">
    <path d="M 228.929432 22.44 
L 381.11125 22.44 
" style="fill:none;stroke:#ffffff;stroke-linecap:square;stroke-linejoin:miter;stroke-width:1.25;"/>
   </g>
   <g id="text_23">
    <!-- $p(VE|N,z,\alpha,\beta)$ -->
    <defs>
     <path d="M 20.609375 0 
L 7.8125 72.90625 
L 17.484375 72.90625 
L 28.078125 10.203125 
L 63.484375 72.90625 
L 74.21875 72.90625 
L 32.078125 0 
z
" id="DejaVuSans-Oblique-86"/>
     <path d="M 16.890625 72.90625 
L 62.984375 72.90625 
L 61.375 64.59375 
L 25.09375 64.59375 
L 20.90625 43.015625 
L 55.71875 43.015625 
L 54.109375 34.71875 
L 19.28125 34.71875 
L 14.203125 8.296875 
L 51.3125 8.296875 
L 49.703125 0 
L 2.6875 0 
z
" id="DejaVuSans-Oblique-69"/>
    </defs>
    <g style="fill:#262626;" transform="translate(261.940341 16.44)scale(0.12 -0.12)">
     <use transform="translate(0 0.390625)" xlink:href="#DejaVuSans-Oblique-112"/>
     <use transform="translate(63.476562 0.390625)" xlink:href="#DejaVuSans-40"/>
     <use transform="translate(102.490234 0.390625)" xlink:href="#DejaVuSans-Oblique-86"/>
     <use transform="translate(170.898438 0.390625)" xlink:href="#DejaVuSans-Oblique-69"/>
     <use transform="translate(234.082031 0.390625)" xlink:href="#DejaVuSans-124"/>
     <use transform="translate(267.773438 0.390625)" xlink:href="#DejaVuSans-Oblique-78"/>
     <use transform="translate(342.578125 0.390625)" xlink:href="#DejaVuSans-44"/>
     <use transform="translate(393.847656 0.390625)" xlink:href="#DejaVuSans-Oblique-122"/>
     <use transform="translate(446.337891 0.390625)" xlink:href="#DejaVuSans-44"/>
     <use transform="translate(497.607422 0.390625)" xlink:href="#DejaVuSans-Oblique-945"/>
     <use transform="translate(563.525391 0.390625)" xlink:href="#DejaVuSans-44"/>
     <use transform="translate(614.794922 0.390625)" xlink:href="#DejaVuSans-Oblique-946"/>
     <use transform="translate(678.613281 0.390625)" xlink:href="#DejaVuSans-41"/>
    </g>
   </g>
  </g>
 </g>
 <defs>
  <clipPath id="p3ec6f0a31e">
   <rect height="163.08" width="152.181818" x="46.31125" y="22.44"/>
  </clipPath>
  <clipPath id="p7d201985e8">
   <rect height="163.08" width="152.181818" x="228.929432" y="22.44"/>
  </clipPath>
 </defs>
</svg>
